<svg width="550" height="410" viewBox="0 0 550 410" fill="none" xmlns="http://www.w3.org/2000/svg">
<rect y="360.195" width="550" height="0.275" fill="#EBEBEB"/>
<rect x="394.9" y="370.667" width="99.99" height="0.275" fill="#EBEBEB"/>
<rect x="336.963" y="367.686" width="27.379" height="0.275" fill="#EBEBEB"/>
<rect x="384.473" y="380.886" width="42.449" height="0.275" fill="#EBEBEB"/>
<rect x="57.7051" y="379.038" width="24.904" height="0.275" fill="#EBEBEB"/>
<rect x="92.4004" y="379.038" width="29.579" height="0.275" fill="#EBEBEB"/>
<rect x="196.141" y="374.385" width="51.524" height="0.275" fill="#EBEBEB"/>
<path fill-rule="evenodd" clip-rule="evenodd" d="M48.3012 311.124H260.7C264.169 311.124 266.981 308.312 266.981 304.843V6.27C266.975 2.8054 264.165 -5.31315e-06 260.7 0H48.3012C44.8409 0.00605481 42.0373 2.80969 42.0312 6.27V304.843C42.0312 308.308 44.8366 311.118 48.3012 311.124ZM42.3063 6.27C42.3123 2.96156 44.9928 0.281054 48.3013 0.275H260.7C264.013 0.274994 266.7 2.95727 266.706 6.27V304.843C266.7 308.158 264.015 310.843 260.7 310.849H48.3013C44.9885 310.843 42.3062 308.156 42.3063 304.843V6.27Z" fill="#EBEBEB"/>
<path fill-rule="evenodd" clip-rule="evenodd" d="M286.23 311.124H498.64C502.109 311.124 504.921 308.312 504.921 304.843V6.27C504.915 2.8054 502.105 -5.31315e-06 498.64 0H286.23C282.768 0.0060315 279.961 2.80791 279.949 6.27V304.843C279.955 308.309 282.764 311.118 286.23 311.124ZM280.224 6.27C280.23 2.95727 282.917 0.274994 286.23 0.275H498.64C501.953 0.274994 504.64 2.95727 504.646 6.27V304.843C504.64 308.158 501.955 310.843 498.64 310.849H286.23C282.916 310.843 280.23 308.158 280.224 304.843V6.27Z" fill="#EBEBEB"/>
<rect x="189.211" y="360.184" width="131.516" height="290.851" transform="rotate(180 189.211 360.184)" fill="#F0F0F0"/>
<rect opacity="0.197777" x="182.984" y="360.184" width="125.279" height="290.851" transform="rotate(180 182.984 360.184)" fill="#004D99"/>
<rect x="176.385" y="75.9441" width="277.651" height="112.079" transform="rotate(90 176.385 75.9441)" fill="#CCE4F0"/>
<rect x="74.7344" y="201.014" width="28.721" height="5.863" rx="2.9315" fill="white"/>
<rect x="66.0117" y="75.9331" width="277.651" height="1.716" transform="rotate(90 66.0117 75.9331)" fill="#F0F0F0"/>
<rect x="270.412" y="354.673" width="19.58" height="84.92" transform="rotate(180 270.412 354.673)" fill="#F0F0F0"/>
<rect x="266.65" y="360.052" width="96.558" height="5.379" transform="rotate(180 266.65 360.052)" fill="#F0F0F0"/>
<rect x="166.33" y="269.753" width="84.502" height="84.92" fill="#F5F5F5"/>
<rect x="174.02" y="280.214" width="69.102" height="27.852" fill="#F0F0F0"/>
<rect x="174.02" y="316.371" width="69.102" height="27.852" fill="#F0F0F0"/>
<rect x="218.24" y="282.568" width="19.338" height="3.817" rx="1.9085" transform="rotate(-180 218.24 282.568)" fill="#F5F5F5"/>
<rect x="218.24" y="318.725" width="19.338" height="3.817" rx="1.9085" transform="rotate(180 218.24 318.725)" fill="#F5F5F5"/>
<rect x="213.564" y="221.067" width="2.904" height="47.025" rx="1.452" fill="#F5F5F5"/>
<rect x="201.432" y="266.376" width="27.17" height="3.421" fill="#F0F0F0"/>
<rect x="221.814" y="218.185" width="1.452" height="23.507" rx="0.726" fill="#F0F0F0"/>
<path d="M193.887 226.534C193.887 226.534 194.426 205.766 215.018 205.766C235.61 205.766 236.138 226.534 236.138 226.534H193.887Z" fill="#F0F0F0"/>
<path d="M372.141 255.915C372.724 255.915 373.318 255.915 373.912 255.915C386.492 256.824 396.481 266.86 397.331 279.444C397.505 282.209 397.23 284.984 396.517 287.661C393.761 298.4 392.429 309.454 392.557 320.54V352.825C392.557 353.948 392.111 355.025 391.317 355.82C390.523 356.614 389.446 357.06 388.322 357.06H285.857V255.86L372.141 255.915Z" fill="#F0F0F0"/>
<path d="M260.611 281.149C260.641 271.352 266.338 262.458 275.225 258.335C284.111 254.212 294.581 255.605 302.081 261.908C309.581 268.211 312.754 278.286 310.221 287.749C307.473 298.489 306.146 309.543 306.272 320.628V352.913C306.266 355.254 304.367 357.148 302.026 357.148H269.675C267.336 357.148 265.44 355.252 265.44 352.913V318.703C265.533 308.307 264.216 297.946 261.524 287.903C260.916 285.703 260.608 283.431 260.611 281.149Z" fill="#F5F5F5"/>
<rect opacity="0.2" x="412.609" y="357.115" width="91.971" height="61.446" transform="rotate(180 412.609 357.115)" fill="#0077B2"/>
<path d="M488.619 309.584H365.518V215.336C365.518 204.79 374.068 196.24 384.614 196.24H469.523C480.07 196.24 488.619 204.79 488.619 215.336V309.584H488.619Z" fill="#CCE4F0"/>
<path d="M464.562 309.584H341.461V214.423C341.461 204.381 349.602 196.24 359.645 196.24H446.335C456.378 196.24 464.519 204.381 464.519 214.423V309.584H464.562Z" fill="#F5F5F5"/>
<path d="M406.605 315.084H321.828C318.79 315.084 316.328 312.622 316.328 309.584V295.647C316.328 292.609 318.79 290.147 321.828 290.147H406.605C407.522 290.147 408.266 290.891 408.266 291.808V313.434C408.26 314.347 407.518 315.084 406.605 315.084V315.084Z" fill="#E0E0E0"/>
<path d="M497.695 255.915C498.278 255.915 498.861 255.915 499.466 255.915C512.042 256.829 522.025 266.864 522.874 279.444C523.059 282.209 522.784 284.986 522.06 287.661C519.299 298.417 517.967 309.491 518.1 320.595V352.88C518.094 355.221 516.195 357.115 513.854 357.115H411.4V255.915H497.695Z" fill="#CCE4F0"/>
<path d="M386.167 281.149C386.074 267.468 396.901 256.206 410.575 255.758C424.249 255.311 435.788 265.841 436.591 279.499C436.764 282.264 436.49 285.039 435.777 287.716C433.02 298.455 431.688 309.509 431.817 320.595V352.88C431.817 355.219 429.921 357.115 427.582 357.115H395.22C392.883 357.109 390.991 355.217 390.985 352.88V318.703C391.075 308.307 389.761 297.947 387.08 287.903C386.471 285.703 386.164 283.431 386.167 281.149Z" fill="#F5F5F5"/>
<path d="M495.892 360.184H287.662C285.967 360.184 284.593 358.81 284.593 357.115H498.961C498.961 358.81 497.587 360.184 495.892 360.184V360.184Z" fill="#E0E0E0"/>
<rect x="477.961" y="124.212" width="66.979" height="73.051" transform="rotate(180 477.961 124.212)" fill="#E0E0E0"/>
<rect x="475.705" y="124.212" width="68.717" height="73.051" transform="rotate(180 475.705 124.212)" fill="#F5F5F5"/>
<rect x="469.953" y="56.9141" width="61.545" height="57.211" transform="rotate(90 469.953 56.9141)" fill="white"/>
<path d="M441.341 72.127L456.983 99.22H425.699L441.341 72.127Z" fill="#F5F5F5"/>
<rect x="384" y="166.848" width="66.979" height="73.051" transform="rotate(180 384 166.848)" fill="#E0E0E0"/>
<rect x="381.744" y="166.848" width="68.717" height="73.051" transform="rotate(180 381.744 166.848)" fill="#F5F5F5"/>
<rect x="375.99" y="99.561" width="61.545" height="57.211" transform="rotate(90 375.99 99.561)" fill="white"/>
<path d="M340.384 141.295L333.597 129.547C332.167 127.048 332.174 123.977 333.615 121.485C335.056 118.993 337.714 117.455 340.593 117.447H354.2C357.078 117.458 359.734 118.995 361.176 121.486C362.619 123.976 362.63 127.046 361.207 129.547L354.42 141.295C352.98 143.812 350.302 145.366 347.402 145.366C344.502 145.366 341.824 143.812 340.384 141.295Z" fill="#F5F5F5"/>
<path d="M275 409.871C392.79 409.871 488.279 404.296 488.279 397.419C488.279 390.542 392.79 384.967 275 384.967C157.209 384.967 61.7207 390.542 61.7207 397.419C61.7207 404.296 157.209 409.871 275 409.871Z" fill="#F5F5F5"/>
<path d="M348.15 48.7739H94.5781L111.265 394.119H364.837L348.15 48.7739Z" fill="#407BFF"/>
<path opacity="0.2" d="M348.15 48.7739H94.5781L111.265 394.119H364.837L348.15 48.7739Z" fill="black"/>
<path d="M350.494 48.7739H96.9219L113.62 394.119H367.192L350.494 48.7739Z" fill="#0077B2"/>
<path opacity="0.2" d="M337.107 60.3899H108.516L124.488 378.51L323.258 378.246L356.291 348.953L337.107 60.3899Z" fill="black"/>
<path d="M338.856 60.3899C341.293 155.653 348.987 250.709 361.901 345.125C343.787 357.592 325.766 370.058 307.836 382.525H136.874C120.738 275.84 111.267 168.253 108.516 60.3899L338.856 60.3899Z" fill="white"/>
<path opacity="0.2" d="M361.901 345.125C343.788 357.592 325.766 370.058 307.836 382.525C311.752 366.032 315.833 349.532 320.079 333.025L361.901 345.125Z" fill="#0077B2"/>
<path opacity="0.7" fill-rule="evenodd" clip-rule="evenodd" d="M131.736 85.811H174.064H174.075C174.567 99.913 175.179 114.022 175.912 128.139H133.573C132.84 114.037 132.228 99.9277 131.736 85.811ZM172.018 124.454C171.439 112.794 170.933 101.141 170.5 89.496H135.553C135.979 101.149 136.485 112.801 137.071 124.454H172.018Z" fill="#4376AE"/>
<path d="M313.303 102.608H193.601C193.491 99.9826 193.388 97.35 193.293 94.71H312.984C313.087 97.35 313.193 99.9826 313.303 102.608Z" fill="#E0E0E0"/>
<path d="M288.014 119.196H194.338C194.217 116.567 194.085 113.927 193.975 111.298H287.64C287.761 113.949 287.882 116.589 288.014 119.196Z" fill="#E0E0E0"/>
<path opacity="0.7" fill-rule="evenodd" clip-rule="evenodd" d="M135.059 154.264H177.387H177.431C178.311 168.381 179.301 182.501 180.401 196.625H138.018C136.91 182.501 135.924 168.381 135.059 154.264ZM176.386 192.929C175.484 181.262 174.666 169.605 173.933 157.96H138.975C139.708 169.613 140.526 181.269 141.428 192.929H176.386Z" fill="#4376AE"/>
<path d="M241.34 171.083H197.34C197.164 168.454 196.978 165.814 196.812 163.185H240.812C240.978 165.814 241.153 168.454 241.34 171.083Z" fill="#E0E0E0"/>
<path d="M282.996 171.083H250.645L250.117 163.185H282.468C282.633 165.814 282.809 168.454 282.996 171.083Z" fill="#E0E0E0"/>
<path d="M303.303 187.704H198.55C198.352 185.075 198.165 182.435 197.967 179.795H302.72C302.918 182.435 303.105 185.064 303.303 187.704Z" fill="#E0E0E0"/>
<path opacity="0.7" fill-rule="evenodd" clip-rule="evenodd" d="M140.205 222.761H182.544C183.805 236.885 185.169 251.005 186.636 265.122H144.297C142.816 251.005 141.452 236.885 140.205 222.761ZM182.566 261.437C181.356 249.777 180.227 238.117 179.178 226.457H144.22C145.269 238.117 146.398 249.777 147.608 261.437H182.566Z" fill="#4376AE"/>
<path d="M323.51 248.303H203.797L204.589 256.212H324.302L323.51 248.303Z" fill="#E0E0E0"/>
<path d="M295.901 231.682H202.225C202.467 234.322 202.709 236.951 202.962 239.591H296.627C296.385 236.951 296.132 234.322 295.901 231.682Z" fill="#E0E0E0"/>
<g opacity="0.7">
<path fill-rule="evenodd" clip-rule="evenodd" d="M147.182 291.258H189.477C191.105 305.374 192.846 319.491 194.702 333.608H152.407C150.551 319.498 148.81 305.382 147.182 291.258ZM190.577 329.912C189.059 318.259 187.618 306.606 186.254 294.954H151.296C152.66 306.614 154.101 318.266 155.619 329.912H190.577Z" fill="#4376AE"/>
</g>
<path d="M330.098 308.077H210.385C210.066 305.448 209.747 302.808 209.439 300.179H329.141C329.46 302.808 329.768 305.448 330.098 308.077Z" fill="#E0E0E0"/>
<path d="M266.96 324.687H212.466C212.125 322.058 211.795 319.418 211.465 316.789H265.959C266.289 319.396 266.619 322.058 266.96 324.687Z" fill="#E0E0E0"/>
<path d="M299.497 324.687H275.968C275.638 322.058 275.297 319.418 274.967 316.789H298.496C298.826 319.396 299.2 322.058 299.497 324.687Z" fill="#E0E0E0"/>
<path d="M155.099 119.46L153.515 116.996C150.127 111.606 143.219 106.799 140.832 105.402L142.614 102.245C147.302 105.082 151.488 108.676 155 112.882C160.324 105.622 168.2 98.1421 178.98 90.0791L181.257 93.0601C169.751 101.662 161.699 109.56 156.617 117.15L155.099 119.46Z" fill="#F99F1B"/>
<path d="M159.281 187.935L157.664 185.471C154.144 180.081 147.104 175.263 144.684 173.866L146.367 170.709C151.136 173.553 155.418 177.145 159.05 181.346C164.176 174.086 171.843 166.606 182.414 158.532L184.768 161.513C173.493 170.137 165.65 178.013 160.777 185.614L159.281 187.935Z" fill="#F99F1B"/>
<path d="M165.351 256.608L163.668 254.133C159.994 248.743 152.822 243.936 150.369 242.528C150.897 241.428 151.469 240.427 151.975 239.371C156.824 242.222 161.197 245.814 164.933 250.019C169.872 242.759 177.341 235.268 187.681 227.194L190.123 230.175C179.123 238.799 171.423 246.675 166.77 254.287L165.351 256.608Z" fill="#F99F1B"/>
<path d="M276.243 363.55C269.753 363.55 266.013 361.152 262.713 359.04C259.413 356.928 256.575 355.113 251.097 355.102C245.619 355.091 243.177 357.016 240.592 359.04C238.007 361.064 234.839 363.55 228.349 363.55C221.859 363.55 218.119 361.152 214.83 359.04C211.541 356.928 208.703 355.113 203.214 355.102C197.725 355.091 195.294 357.016 192.709 359.04C190.124 361.064 186.956 363.55 180.477 363.55C173.998 363.55 170.247 361.152 166.947 359.04C163.647 356.928 160.82 355.113 155.331 355.102C155.188 354.002 155.034 353.001 154.891 351.945C161.381 351.945 165.11 354.332 168.41 356.455C171.71 358.578 174.537 360.382 180.015 360.382C185.493 360.382 187.935 358.468 190.52 356.455C193.105 354.442 196.284 351.945 202.774 351.945C209.264 351.945 212.982 354.332 216.282 356.455C219.582 358.578 222.42 360.382 227.898 360.382C233.376 360.382 235.818 358.468 238.403 356.455C240.988 354.442 244.167 351.945 250.657 351.945C257.147 351.945 260.876 354.332 264.176 356.455C267.476 358.578 270.303 360.382 275.792 360.382C275.935 361.438 276.1 362.494 276.243 363.55Z" fill="#F2C475"/>
<path d="M285.55 57.3211C281.832 47.4211 273.241 40.9201 264.001 40.9201H245.169C242.303 40.8951 239.728 39.1642 238.624 36.5201C235.903 30.0587 229.607 25.8282 222.597 25.7511C215.786 25.682 209.719 30.0427 207.615 36.5201C206.757 39.1707 204.273 40.9542 201.488 40.9201H182.667C173.416 40.9201 165.452 47.5201 162.702 57.3211L161.602 61.2591H287.002L285.55 57.3211Z" fill="#004D99"/>
<path d="M286.221 65.12H162.801C160.645 65.0953 158.874 63.4107 158.742 61.259C158.687 60.2488 159.052 59.2609 159.749 58.5281C160.446 57.7953 161.415 57.3825 162.427 57.387H285.847C288.004 57.4175 289.774 59.1054 289.906 61.259C289.96 62.2681 289.596 63.255 288.898 63.9861C288.2 64.7172 287.231 65.1275 286.221 65.12Z" fill="#407BFF"/>
<path opacity="0.2" d="M286.221 65.12H162.801C160.645 65.0953 158.874 63.4107 158.742 61.259C158.687 60.2488 159.052 59.2609 159.749 58.5281C160.446 57.7953 161.415 57.3825 162.427 57.387H285.847C288.004 57.4175 289.774 59.1054 289.906 61.259C289.96 62.2681 289.596 63.255 288.898 63.9861C288.2 64.7172 287.231 65.1275 286.221 65.12Z" fill="black"/>
<path fill-rule="evenodd" clip-rule="evenodd" d="M406.197 124.531H480.469V50.27H406.197V124.531Z" fill="#0077B2"/>
<path fill-rule="evenodd" clip-rule="evenodd" d="M449.02 103.642L445.654 112.926H470.03L473.396 103.642H449.02ZM441.012 112.926L459.58 61.864H431.728L413.16 112.926H441.012Z" fill="#FFFFFD"/>
<path d="M397.012 390.808H388.949L388.146 372.141H396.209L397.012 390.808Z" fill="#FFC3BD"/>
<path d="M445.4 390.808H437.337L433.289 372.141H441.341L445.4 390.808Z" fill="#FFC3BD"/>
<path d="M436.766 389.873H445.819C446.15 389.867 446.437 390.099 446.501 390.423L448.096 397.584C448.174 397.937 448.086 398.306 447.856 398.585C447.626 398.864 447.281 399.022 446.919 399.014C443.762 398.959 442.222 398.772 438.24 398.772C435.787 398.772 430.738 399.036 427.361 399.036C423.984 399.036 423.533 395.736 424.919 395.384C431.134 394.031 433.466 392.15 435.457 390.368C435.816 390.045 436.283 389.868 436.766 389.873Z" fill="#263238"/>
<path d="M389.004 389.873H397.804C398.134 389.867 398.422 390.099 398.486 390.423L400.081 397.584C400.16 397.924 400.082 398.282 399.869 398.559C399.656 398.836 399.33 399.003 398.981 399.014C395.802 398.959 391.215 398.772 387.222 398.772C382.558 398.772 378.532 399.036 373.054 399.036C369.754 399.036 368.83 395.736 370.216 395.384C376.519 394.009 381.667 393.855 387.112 390.5C387.675 390.126 388.328 389.909 389.004 389.873Z" fill="#263238"/>
<path d="M404.8 96.7671C403.7 102.663 403.062 109.967 407.187 113.905C407.187 113.905 404.822 119.878 393.866 119.878C383.856 119.878 388.872 113.905 388.872 113.905C395.472 112.332 395.098 104.203 393.954 99.6051L404.8 96.7671Z" fill="#FFC3BD"/>
<path d="M385.727 114.719C385.947 113.256 388.521 111.562 391.447 110.913C394.373 110.264 405.615 108.856 409.047 110.275C412.479 111.694 408.453 115.907 408.453 115.907L385.727 114.719Z" fill="#407BFF"/>
<path d="M385.727 114.719C385.947 113.256 388.521 111.562 391.447 110.913C394.373 110.264 405.615 108.856 409.047 110.275C412.479 111.694 408.453 115.907 408.453 115.907L385.727 114.719Z" fill="#F2C475"/>
<path opacity="0.2" d="M388.146 372.152L388.564 381.766H396.627L396.209 372.152H388.146Z" fill="black"/>
<path opacity="0.2" d="M441.352 372.152H433.289L435.379 381.766H443.442L441.352 372.152Z" fill="black"/>
<path d="M423.885 121.154L414.172 127.666C414.172 127.666 428.12 152.471 426.954 156.442C425.359 161.854 423.137 173.69 420.112 179.685C420.508 180.983 422.521 183.942 423.643 184.459C431.343 178.596 439.12 160.259 438.834 155.122C438.163 143.451 423.885 121.154 423.885 121.154Z" fill="#FFC3BD"/>
<path d="M420.112 179.696L412.412 179.102L416.449 187.594C416.449 187.594 423.17 187.891 424.292 182.754L420.112 179.696Z" fill="#B55B52"/>
<path d="M458.172 221.056L457.523 222.266L453.156 230.516L298.529 148.742L303.523 139.293L458.172 221.056Z" fill="#0077B2"/>
<path d="M468.17 202.169L464.98 208.197L463.176 211.607L308.527 129.844L313.521 120.384L468.17 202.169Z" fill="#0077B2"/>
<rect x="303.568" y="139.264" width="10.692" height="174.933" transform="rotate(-62.09 303.568 139.264)" fill="#407BFF"/>
<rect x="303.58" y="139.264" width="10.692" height="174.933" transform="rotate(-62.09 303.58 139.264)" fill="#004D99"/>
<path d="M291.862 121.638L287.363 130.141L298.528 148.753L313.521 120.384L291.862 121.638Z" fill="#407BFF"/>
<path opacity="0.8" d="M291.862 121.638L287.363 130.141L298.528 148.753L313.521 120.384L291.862 121.638Z" fill="white"/>
<path d="M282.578 122.177L287.363 130.141L291.862 121.638L282.578 122.177Z" fill="#F99F1B"/>
<path d="M406.219 182.963L410.245 190.465L416.482 187.583L412.445 179.102L406.219 182.963Z" fill="#B55B52"/>
<path d="M421.575 115.72C429.198 116.82 437.932 143.22 437.932 143.22L421.916 152.262C421.916 152.262 414.865 139.7 411.389 130.372C407.748 120.626 413.402 114.532 421.575 115.72Z" fill="#989898"/>
<path opacity="0.2" d="M417.141 124.773C413.676 121.605 415.799 135.168 417.449 143.847C418.296 145.541 419.099 147.081 419.781 148.368C423.642 141.548 421.915 129.096 417.141 124.773Z" fill="black"/>
<path d="M376.431 116.138C376.431 116.138 366.916 140.47 375.947 185.801H419.1C419.397 179.201 415.239 146.905 421.619 115.72C416.853 114.8 412.032 114.194 407.187 113.905C401.087 113.542 394.971 113.542 388.872 113.905C384.673 114.324 380.513 115.071 376.431 116.138Z" fill="#989898"/>
<path d="M383.064 127.446L372.196 123.145C372.196 123.145 359.7 148.698 355.74 149.996C350.383 151.756 339.383 156.596 332.717 157.553C331.881 158.653 330.583 161.953 330.792 163.163C339.977 166.166 359.524 162.173 363.572 159.027C372.812 151.844 383.064 127.446 383.064 127.446Z" fill="#FFC3BD"/>
<path opacity="0.2" d="M384.284 124.542C382.491 120.406 379.059 118.679 375.484 119.284C374.098 124.355 371.755 135.498 372.184 152.284L374.747 153.516C374.747 153.516 387.353 131.615 384.284 124.542Z" fill="black"/>
<path d="M386.001 121.649C388.707 128.865 375.001 150.095 375.001 150.095L358.875 141.295C361.29 134.718 364.399 128.416 368.148 122.496C373.857 113.982 383.02 113.696 386.001 121.649Z" fill="#989898"/>
<path d="M333.069 157.52L323.477 159.588L328.339 168.465C331.007 167.128 333.429 165.346 335.5 163.196L333.069 157.52Z" fill="#FFC3BD"/>
<path d="M318.945 161.568L322.773 166.87L328.339 168.476L323.477 159.599L318.945 161.568Z" fill="#FFC3BD"/>
<path d="M386.525 88.2901C386.563 87.6411 386.249 87.0952 385.824 87.0707C385.4 87.0462 385.025 87.5525 384.988 88.2014C384.95 88.8504 385.264 89.3963 385.689 89.4208C386.113 89.4453 386.488 88.939 386.525 88.2901Z" fill="#263238"/>
<path d="M387.091 88.3301C386.206 90.2732 385.054 92.0836 383.67 93.7091C384.532 94.3991 385.654 94.6765 386.739 94.4681L387.091 88.3301Z" fill="#ED847E"/>
<path d="M385.694 86.031C385.639 86.0404 385.583 86.0404 385.529 86.031C385.443 85.9769 385.382 85.89 385.361 85.7904C385.341 85.6908 385.361 85.587 385.419 85.503C386.057 84.45 387.171 83.7762 388.4 83.699C388.608 83.6989 388.779 83.8647 388.785 84.073C388.785 84.2856 388.612 84.458 388.4 84.458C387.432 84.5409 386.562 85.0802 386.057 85.91C385.966 86.0118 385.828 86.0579 385.694 86.031Z" fill="#263238"/>
<path d="M408.385 87.7139C407.439 95.6559 407.285 100.353 403.028 104.214C396.615 110.011 386.99 105.798 385.538 97.7349C384.24 90.4749 386.011 78.7049 393.997 75.9769C397.572 74.7395 401.533 75.4418 404.464 77.8331C407.396 80.2244 408.879 83.9633 408.385 87.7139Z" fill="#FFC3BD"/>
<path d="M392.382 89.2651C389.599 89.8151 385.155 83.6441 388.785 78.3971C386.948 77.4731 380.953 81.0811 378.698 77.7151C376.443 74.3491 382.702 72.5561 381.503 69.7181C385.749 70.5871 378.753 75.8781 382.79 75.3611C386.827 74.8441 391.48 67.3861 395.99 70.4441C403.965 75.8121 414.833 66.8691 410.4 78.0561C415.834 76.9561 419.552 83.3911 414.371 87.8351C404.042 96.6351 410.4 97.8561 403.855 98.3181C400.577 98.5491 392.954 94.6221 392.382 89.2651Z" fill="#263238"/>
<path d="M396.506 91.3221C395.725 92.9171 394.345 94.1388 392.667 94.7211C390.467 95.4691 389.202 93.5001 389.719 91.3331C390.181 89.3751 391.919 86.6361 394.196 86.8231C395.212 86.9261 396.106 87.5365 396.573 88.445C397.039 89.3535 397.014 90.4364 396.506 91.3221Z" fill="#FFC3BD"/>
<path d="M391.236 185.801C391.236 185.801 400.388 247.401 405.404 270.501C410.904 295.801 431.617 379.929 431.617 379.929H446.379C446.379 379.929 432.728 297.803 429.582 272.789C426.183 245.63 419.055 185.834 419.055 185.834L391.236 185.801Z" fill="#407BFF"/>
<path d="M391.236 185.801C391.236 185.801 400.388 247.401 405.404 270.501C410.904 295.801 431.617 379.929 431.617 379.929H446.379C446.379 379.929 432.728 297.803 429.582 272.789C426.183 245.63 419.055 185.834 419.055 185.834L391.236 185.801Z" fill="#0077B2"/>
<path opacity="0.2" d="M402.105 207.328C401.423 206.371 400.807 206.041 400.235 206.228H400.114C399.983 206.285 399.861 206.359 399.751 206.448C399.636 206.546 399.53 206.653 399.432 206.767L399.256 206.987L399.025 207.361C398.831 207.68 398.666 208.015 398.53 208.362C398.442 208.56 398.354 208.78 398.277 209.011C398.2 209.242 398.079 209.572 397.991 209.869C397.903 210.166 397.738 210.705 397.617 211.156C397.617 211.277 397.562 211.398 397.529 211.519C397.496 211.64 397.408 212.014 397.353 212.278C397.298 212.542 397.254 212.707 397.21 212.927C397.111 213.367 397.023 213.818 396.935 214.28C396.847 214.742 396.748 215.27 396.66 215.787C396.66 215.963 396.605 216.15 396.572 216.326C396.462 216.986 396.363 217.668 396.264 218.35C398.706 233.684 401.61 251.251 403.964 263.516C404.074 263.12 404.195 262.702 404.305 262.262C404.779 260.211 405.146 258.136 405.405 256.047C407.473 240.262 406.516 213.631 402.105 207.328Z" fill="black"/>
<path d="M375.946 185.801C375.946 185.801 374.846 246.059 375.715 270.633C376.628 296.197 385.56 379.896 385.56 379.896H399.211C399.211 379.896 399.706 297.693 400.311 272.58C400.971 245.212 404.271 185.801 404.271 185.801H375.946Z" fill="#407BFF"/>
<path d="M375.946 185.801C375.946 185.801 374.846 246.059 375.715 270.633C376.628 296.197 385.56 379.896 385.56 379.896H399.211C399.211 379.896 399.706 297.693 400.311 272.58C400.971 245.212 404.271 185.801 404.271 185.801H375.946Z" fill="#0077B2"/>
<path d="M400.114 375.716C400.169 375.716 400.114 380.182 400.114 380.182H384.373L383.713 375.166L400.114 375.716Z" fill="#263238"/>
<path d="M446.381 376.057C446.447 376.057 447.118 380.182 447.118 380.182H430.893L429.463 375.441L446.381 376.057Z" fill="#263238"/>
<path fill-rule="evenodd" clip-rule="evenodd" d="M432.552 390.863C433.007 391.175 433.554 391.322 434.103 391.281C434.813 391.265 435.518 391.165 436.204 390.984C436.281 390.97 436.339 390.907 436.347 390.83C436.364 390.758 436.333 390.683 436.27 390.643C435.973 390.412 433.366 388.861 432.475 389.312C432.28 389.427 432.16 389.636 432.156 389.862C432.105 390.242 432.255 390.621 432.552 390.863ZM432.651 389.609C432.735 389.59 432.821 389.59 432.904 389.609C433.881 389.784 434.815 390.146 435.654 390.676C434.718 390.996 433.694 390.944 432.794 390.533C432.599 390.359 432.5 390.1 432.53 389.84C432.527 389.747 432.573 389.659 432.651 389.609Z" fill="#407BFF"/>
<path fill-rule="evenodd" clip-rule="evenodd" d="M436.074 390.995H436.162C436.184 390.995 436.207 390.992 436.228 390.984C436.286 390.945 436.32 390.878 436.316 390.808C436.316 390.709 436.151 388.388 435.216 387.618C434.988 387.432 434.695 387.344 434.402 387.376C434.11 387.38 433.859 387.585 433.797 387.871C433.632 388.795 435.238 390.544 436.074 390.995ZM434.501 387.695H434.534L434.501 387.728C434.684 387.697 434.872 387.745 435.018 387.86C435.582 388.589 435.916 389.47 435.975 390.39C435.139 389.752 434.116 388.421 434.215 387.893C434.216 387.891 434.216 387.888 434.217 387.885C434.229 387.833 434.261 387.695 434.501 387.695Z" fill="#407BFF"/>
<path fill-rule="evenodd" clip-rule="evenodd" d="M383.691 390.786C384.27 391.165 384.959 391.339 385.649 391.281C386.499 391.263 387.346 391.167 388.179 390.995C388.26 390.978 388.321 390.912 388.333 390.83C388.347 390.75 388.307 390.669 388.234 390.632C387.871 390.445 384.626 388.795 383.647 389.345C383.463 389.449 383.346 389.64 383.339 389.851C383.3 390.201 383.431 390.549 383.691 390.786ZM383.834 389.675C383.945 389.627 384.065 389.604 384.186 389.609C385.362 389.789 386.5 390.165 387.552 390.72C385.77 391.017 384.439 390.94 383.944 390.5C383.768 390.347 383.681 390.115 383.713 389.884C383.713 389.798 383.759 389.718 383.834 389.675Z" fill="#407BFF"/>
<path fill-rule="evenodd" clip-rule="evenodd" d="M388.069 390.995H388.146C388.193 391.011 388.245 391.007 388.289 390.984C388.345 390.944 388.375 390.876 388.366 390.808C388.366 390.806 388.366 390.803 388.365 390.798C388.346 390.613 388.124 388.523 387.123 387.706C386.822 387.442 386.42 387.322 386.023 387.376C385.506 387.431 385.319 387.695 385.319 387.904C385.165 388.795 387.09 390.566 388.069 390.995ZM386.1 387.695H386.177V387.728C386.41 387.727 386.638 387.8 386.826 387.937C387.441 388.632 387.825 389.501 387.926 390.423C386.947 389.829 385.638 388.465 385.726 387.915C385.727 387.913 385.727 387.91 385.728 387.907C385.74 387.854 385.776 387.695 386.1 387.695Z" fill="#407BFF"/>
</svg>
