<svg width="586" height="410" viewBox="0 0 586 410" fill="none" xmlns="http://www.w3.org/2000/svg">
<g opacity="0.2">
<path d="M492.331 392.477C473.66 377.182 471.244 351.478 473.89 328.771C474.322 324.977 474.227 320.941 476.333 317.755C478.439 314.569 482.908 312.638 486.215 314.528C488.915 316.094 489.955 319.483 491.332 322.331C493.186 326.137 496.072 329.346 499.661 331.592C502.01 333.05 504.98 334.063 507.518 332.942C510.988 331.403 511.744 326.908 512.041 323.128C512.563 316.081 513.094 309.029 513.634 301.973C513.711 298.173 514.409 294.411 515.699 290.836C517.184 287.353 520.1 284.234 523.799 283.532C527.498 282.83 531.899 285.26 532.331 289.027C532.344 290.606 532.249 292.185 532.048 293.752C531.891 295.352 532.696 296.894 534.1 297.68C535.598 298.261 537.218 297.302 538.447 296.33C542.713 292.847 545.804 288.149 548.707 283.465C551.609 278.78 554.458 274.015 558.386 270.1C562.315 266.185 567.553 263.35 573.061 263.485C578.569 263.62 584.144 267.467 585.103 272.935C586.061 278.402 582.403 283.532 578.677 287.555C573.054 293.543 566.598 298.69 559.507 302.837C558.146 303.442 557.011 304.463 556.267 305.753C555.227 308.21 557.441 310.91 559.898 311.95C562.679 313.124 565.798 313.084 568.754 313.678C571.711 314.272 574.843 315.838 575.747 318.713C577.003 322.763 573.398 326.489 569.956 328.879C563.047 333.666 555.372 337.241 547.262 339.449C544.36 340.232 541.322 340.88 538.892 342.649C536.462 344.417 534.842 347.698 535.963 350.479C537.083 353.26 540.58 354.394 543.563 354.097C546.547 353.8 549.341 352.436 552.23 351.626C557.63 350.101 564.38 351.019 567.431 355.784C569.265 359.077 569.426 363.046 567.863 366.476C566.287 369.839 564.051 372.85 561.289 375.332C552.102 384.563 540.634 391.196 528.052 394.556C515.497 397.729 504.089 397.931 492.304 392.558" fill="#0077B2"/>
</g>
<path d="M490.697 409.338C492.638 398.867 495.59 388.608 499.513 378.707C504.365 366.615 509.914 354.814 516.131 343.364L520.964 334.319C522.557 331.349 524.137 328.406 525.865 325.625C529.176 320.294 532.782 315.152 536.665 310.221C540.364 305.483 544.036 301.109 547.465 297.059C550.894 293.009 554.215 289.296 557.414 286.029C562.394 280.86 567.775 276.094 573.506 271.773C575.531 270.234 577.138 269.073 578.231 268.344L579.5 267.48L579.932 267.21C579.932 267.21 579.797 267.332 579.527 267.534L578.299 268.439C577.232 269.222 575.599 270.383 573.641 271.949C567.978 276.33 562.653 281.132 557.711 286.313C554.566 289.58 551.285 293.306 547.829 297.369C544.373 301.433 540.715 305.807 537.029 310.545C533.152 315.471 529.547 320.604 526.229 325.922C524.515 328.689 522.949 331.619 521.356 334.589C519.763 337.559 518.156 340.569 516.523 343.62C510.359 355.058 504.847 366.836 500.012 378.896C496.081 388.761 493.093 398.977 491.089 409.406" fill="#F7F7F7"/>
<path d="M526.014 325.584C525.887 325.044 525.814 324.492 525.798 323.937C525.69 322.884 525.582 321.332 525.474 319.428C525.244 315.621 525.109 310.356 524.988 304.578C524.866 298.8 524.623 293.508 524.326 289.728C524.178 287.825 524.043 286.299 523.921 285.233C523.842 284.688 523.81 284.137 523.827 283.586C523.984 284.115 524.092 284.657 524.151 285.206C524.326 286.259 524.529 287.798 524.731 289.688C525.136 293.495 525.42 298.76 525.555 304.538C525.69 310.316 525.798 315.513 525.879 319.388C525.879 321.21 525.987 322.736 526.014 323.897C526.068 324.458 526.068 325.023 526.014 325.584Z" fill="#F7F7F7"/>
<path d="M576.005 320.562H575.492H574.074C572.724 320.562 570.956 320.562 568.674 320.63C564.125 320.724 557.874 321.075 550.935 321.791C543.996 322.506 537.786 323.424 533.304 324.221C531.063 324.612 529.254 324.963 528.012 325.206L526.568 325.49C526.23 325.49 526.055 325.571 526.055 325.49C526.208 325.412 526.372 325.358 526.541 325.328L527.958 324.936C529.2 324.626 530.996 324.207 533.237 323.775C537.705 322.871 543.942 321.885 550.868 321.156C557.793 320.427 564.111 320.157 568.674 320.171C570.956 320.171 572.805 320.171 574.074 320.292L575.546 320.387C575.829 320.522 576.018 320.535 576.005 320.562Z" fill="#F7F7F7"/>
<path d="M500.135 377.843C500.029 377.639 499.938 377.427 499.865 377.209L499.176 375.386C498.582 373.793 497.826 371.458 496.827 368.636C494.924 362.872 492.534 354.826 490.077 345.902C487.62 336.979 485.217 328.933 483.408 323.141C482.504 320.306 481.775 317.984 481.235 316.283C481.005 315.527 480.803 314.933 480.654 314.42C480.571 314.208 480.516 313.985 480.492 313.759C480.597 313.959 480.687 314.166 480.762 314.38C480.938 314.866 481.167 315.473 481.451 316.216C482.045 317.809 482.801 320.131 483.8 322.966C485.703 328.73 488.093 336.776 490.617 345.7C493.142 354.623 495.477 362.669 497.286 368.461L499.46 375.305C499.689 376.075 499.892 376.655 500.04 377.182C500.101 377.397 500.133 377.619 500.135 377.843Z" fill="#E0E0E0"/>
<path d="M567.323 362.413C567.108 362.511 566.881 362.579 566.648 362.615L564.69 363.074L557.495 364.721C551.42 366.071 543.05 368.137 533.816 370.405C524.582 372.673 516.185 374.644 510.083 375.94C507.032 376.588 504.561 377.087 502.833 377.398L500.862 377.749C500.632 377.802 500.397 377.834 500.16 377.843C500.375 377.745 500.602 377.677 500.835 377.641L502.793 377.182L509.988 375.535C516.063 374.185 524.433 372.119 533.681 369.851C542.928 367.583 551.298 365.612 557.4 364.316C560.451 363.668 562.935 363.169 564.65 362.858L566.621 362.494C566.852 362.448 567.087 362.421 567.323 362.413V362.413Z" fill="#F7F7F7"/>
<rect x="445.16" y="102.46" width="68.7015" height="101.925" transform="rotate(-73.26 445.16 102.46)" fill="white"/>
<path d="M445 102.109C445 102.109 445.148 101.691 445.391 100.908C445.635 100.125 445.999 98.937 446.471 97.425C447.416 94.374 448.78 89.9055 450.521 84.2085C454.004 72.774 458.986 56.3715 465.061 36.405L464.71 36.594L562.288 66.024L562.045 65.5785C555.011 89.0415 548.302 111.33 542.281 131.377L542.686 131.161L472.378 110.209L452.249 104.256L446.849 102.676L445.499 102.271L445.013 102.15L445.459 102.299L446.809 102.73L452.087 104.35L472.094 110.466L542.51 131.809L542.821 131.904L542.915 131.593C548.95 111.546 555.673 89.2575 562.733 65.808L562.841 65.4705L562.504 65.376L464.885 36.081L464.615 36L464.535 36.27C458.568 56.3445 453.653 72.828 450.238 84.3165C448.55 90.0135 447.241 94.4685 446.336 97.533C445.904 99.018 445.567 100.166 445.338 100.976C445.108 101.785 445 102.109 445 102.109Z" fill="#E0E0E0"/>
<path d="M464.969 36.701L465.104 36.998L465.563 37.835L467.385 41.021L474.135 52.7255L497.085 91.511L497.234 91.7675L497.504 91.6595L500.501 90.512L544.457 73.3535L557.754 68.0885L561.359 66.617L562.29 66.2255C562.493 66.131 562.601 66.077 562.587 66.0635C562.574 66.05 562.479 66.0635 562.263 66.158L561.305 66.482L557.66 67.832L544.281 72.8945L500.244 89.8505L497.261 91.0115L497.679 91.16L474.608 52.496C471.665 47.636 469.289 43.694 467.615 40.913L465.684 37.781L465.171 36.9845C465.05 36.782 464.982 36.6875 464.969 36.701Z" fill="#E0E0E0"/>
<path opacity="0.2" d="M30.995 269.546C30.995 269.546 37.3265 263.282 49.679 278.928C62.0315 294.575 67.391 303.957 67.391 303.957C67.391 303.957 70.469 307.143 72.494 304.254C74.519 301.365 76.6115 293.913 81.1205 294.291C85.6295 294.669 88.235 299.313 88.829 306.725C89.423 314.136 91.3535 330.35 91.529 331.808C91.7045 333.266 92.879 335.169 94.634 333.428C96.389 331.686 105.137 316.823 111.941 321.426C118.745 326.03 117.031 346.968 116.882 349.25C116.734 351.531 117.355 352.395 118.502 352.719C119.65 353.043 122.134 347.778 124.807 343.661C127.48 339.543 131.314 335.21 135.026 338.193C138.739 341.177 142.64 355.851 133.312 382.811L128.168 394.961L114.992 396.837C86.5475 399.119 73.331 391.653 71.36 387.32C69.389 382.986 74.5325 380.367 79.2035 378.801C83.8745 377.235 89.5985 376.101 89.558 374.954C89.5175 373.806 88.856 372.969 86.6015 372.537C84.347 372.105 63.6515 368.487 60.9515 360.779C58.2515 353.07 74.789 348.237 76.9085 347.022C79.028 345.807 77.462 344.147 76.112 343.62C74.762 343.094 59.534 337.167 52.514 334.737C45.494 332.307 41.5925 328.77 42.389 324.153C43.1855 319.536 50.894 319.55 54.2015 318.294C57.509 317.039 55.187 313.286 55.187 313.286C55.187 313.286 47.4515 305.739 35.396 289.863C23.3405 273.987 31.1975 269.357 31.1975 269.357" fill="#0077B2"/>
<path d="M42.0918 283.478C42.1424 283.6 42.2107 283.714 42.2943 283.816L42.9828 284.788L45.6828 288.446C48.0318 291.619 51.4878 296.182 55.7673 301.798C64.3398 313.03 76.3278 328.447 89.6523 345.403L123.713 388.886L133.973 402.103L136.781 405.68L137.523 406.598L137.793 406.895C137.74 406.772 137.667 406.658 137.577 406.558L136.889 405.599C136.254 404.722 135.35 403.493 134.189 401.927C131.84 398.755 128.384 394.192 124.104 388.576C115.532 377.344 103.544 361.927 90.2193 344.971L56.1723 301.487L45.9123 288.271C44.7108 286.759 43.7793 285.571 43.1043 284.693L42.3618 283.775L42.0918 283.478Z" fill="#F4F4F4"/>
<path d="M78.6239 304.768C78.3302 305.925 78.1627 307.111 78.1244 308.305C77.9219 310.492 77.7464 313.529 77.6249 316.891C77.5034 320.252 77.4629 323.033 77.3954 325.477C77.2927 326.662 77.2927 327.855 77.3954 329.041C77.6962 327.885 77.8593 326.698 77.8814 325.504C78.0704 323.303 78.2054 320.266 78.3269 316.918C78.4484 313.57 78.5429 310.775 78.6239 308.332C78.727 307.146 78.727 305.953 78.6239 304.768Z" fill="#F4F4F4"/>
<path d="M76.2479 329.513C71.6286 328.766 66.974 328.257 62.3024 327.987C54.5939 327.353 48.3299 326.988 48.3164 327.177C52.9319 327.916 57.5819 328.421 62.2484 328.689C69.9569 329.337 76.2344 329.702 76.2479 329.513Z" fill="#F4F4F4"/>
<path d="M98.6435 355.541C97.4324 355.634 96.2313 355.829 95.0525 356.122C92.852 356.54 89.801 357.121 86.426 357.661C83.051 358.201 79.9865 358.606 77.759 358.889C76.548 358.983 75.3469 359.177 74.168 359.47C75.3823 359.574 76.6045 359.547 77.813 359.389C80.054 359.227 83.1455 358.903 86.5475 358.349C89.9495 357.796 92.9735 357.148 95.1605 356.608C96.3563 356.378 97.524 356.02 98.6435 355.541V355.541Z" fill="#F4F4F4"/>
<path d="M105.719 333.644C105.162 334.625 104.71 335.661 104.369 336.736C103.64 338.693 102.681 341.393 101.669 344.39C100.656 347.387 99.7787 350.114 99.1847 352.112C98.7882 353.163 98.5075 354.254 98.3477 355.366C98.9024 354.379 99.3548 353.339 99.6977 352.261C100.413 350.317 101.372 347.617 102.398 344.62C103.424 341.623 104.288 338.882 104.882 336.898C105.278 335.847 105.559 334.756 105.719 333.644V333.644Z" fill="#F4F4F4"/>
<path d="M128.426 354.11C127.769 355.39 127.218 356.722 126.779 358.092C125.834 360.59 124.592 364.046 123.255 367.88C121.919 371.714 120.758 375.197 119.948 377.721C119.433 379.071 119.035 380.462 118.76 381.879C119.421 380.578 119.972 379.223 120.407 377.829C121.352 375.345 122.594 371.889 123.93 368.055C125.267 364.221 126.428 360.738 127.238 358.2C127.743 356.871 128.14 355.503 128.426 354.11Z" fill="#F4F4F4"/>
<path d="M118.814 381.15C117.276 381.237 115.746 381.435 114.237 381.744C111.416 382.19 107.487 382.797 103.235 383.364C98.9822 383.931 95.0132 384.363 92.1917 384.714C90.6545 384.815 89.1256 385.018 87.6152 385.322C89.1545 385.415 90.699 385.379 92.2322 385.214C95.0807 385.025 98.9822 384.674 103.329 384.093C107.676 383.513 111.524 382.838 114.318 382.284C115.844 382.025 117.347 381.646 118.814 381.15V381.15Z" fill="#F4F4F4"/>
<rect opacity="0.2" x="14.0508" y="139.067" width="76.545" height="104.746" transform="rotate(-1.75 14.0508 139.067)" fill="#0077B2"/>
<rect x="28.1445" y="152.967" width="76.545" height="104.746" transform="rotate(-1.75 28.1445 152.967)" fill="white"/>
<path d="M31.3726 257.653C31.3726 257.653 31.3726 257.477 31.3726 257.14C31.3726 256.802 31.3726 256.303 31.3726 255.668C31.3726 254.318 31.2916 252.428 31.2241 249.944C31.1026 244.936 30.9001 237.659 30.6571 228.439C30.1306 210.011 29.3881 183.889 28.5106 152.96L28.2001 153.284L104.705 150.976L104.34 150.638C105.555 189.788 106.676 225.955 107.594 255.331L107.877 255.034L52.3111 256.883L36.7726 257.396L32.7226 257.558L31.3051 257.626H32.6551L36.7051 257.531L52.1086 257.14L107.85 255.587H108.134V255.304C107.256 225.914 106.163 189.707 105.002 150.598V150.247H104.637L28.1326 152.65H27.8086V152.974C28.8211 184.024 29.6716 210.187 30.2791 228.655C30.5896 237.835 30.8461 245.098 31.0216 250.079C31.1026 252.536 31.1836 254.426 31.2241 255.736C31.2241 256.357 31.2241 256.829 31.2916 257.18C31.3591 257.531 31.3726 257.653 31.3726 257.653Z" fill="#E0E0E0"/>
<path d="M58.0235 174.857C58.0235 175.059 66.353 174.951 76.6265 174.641C86.9 174.33 95.2025 173.912 95.2025 173.723C95.2025 173.534 86.873 173.628 76.5995 173.939C66.326 174.249 58.01 174.668 58.0235 174.857Z" fill="#E0E0E0"/>
<path d="M38.1917 184.577C38.1917 184.766 51.0302 184.577 66.8387 184.051C82.6472 183.524 95.4857 183.011 95.4722 182.822C95.4587 182.633 82.6472 182.822 66.8252 183.349C51.0032 183.875 38.1242 184.375 38.1917 184.577Z" fill="#E0E0E0"/>
<path d="M38.4746 194.067C38.4746 194.256 51.3131 194.067 67.1351 193.541C82.9571 193.014 95.7686 192.501 95.7686 192.312C95.7686 192.123 82.9301 192.312 67.1081 192.839C51.2861 193.365 38.4746 193.865 38.4746 194.067Z" fill="#E0E0E0"/>
<path d="M38.7715 203.558C38.7715 203.747 51.61 203.558 67.4185 203.031C83.227 202.505 96.0655 201.992 96.052 201.803C96.0385 201.614 83.227 201.803 67.405 202.329C51.583 202.856 38.758 203.396 38.7715 203.558Z" fill="#E0E0E0"/>
<path d="M39.0547 213.048C39.0547 213.237 51.8932 213.048 67.7152 212.522C83.5372 211.995 96.3487 211.482 96.3487 211.293C96.3487 211.104 83.5102 211.293 67.6882 211.82C51.8662 212.346 39.0547 212.846 39.0547 213.048Z" fill="#E0E0E0"/>
<path d="M39.3516 222.539C39.3516 222.728 52.1901 222.539 67.9986 222.012C83.8071 221.486 96.6456 220.973 96.6321 220.784C96.6186 220.595 83.8071 220.784 67.9851 221.31C52.1631 221.837 39.3381 222.296 39.3516 222.539Z" fill="#E0E0E0"/>
<path d="M39.6348 232.029C39.6348 232.218 52.4733 232.029 68.2953 231.503C84.1173 230.976 96.9288 230.463 96.9288 230.274C96.9288 230.085 84.0903 230.274 68.2683 230.801C52.4463 231.327 39.6348 231.827 39.6348 232.029Z" fill="#E0E0E0"/>
<path d="M66.4727 240.71C66.4727 240.899 73.3847 240.845 81.8762 240.589C90.3677 240.332 97.2797 239.954 97.2662 239.765C97.2527 239.576 90.3677 239.63 81.8627 239.887C73.3577 240.143 66.4727 240.507 66.4727 240.71Z" fill="#E0E0E0"/>
<rect x="180.221" y="30.9961" width="80.946" height="64.719" transform="rotate(-21.71 180.221 30.9961)" fill="white"/>
<path d="M180.224 30.9884L180.589 30.8534L181.642 30.4349L185.692 28.8284L201.082 22.7264L255.433 1.12643H255.271C262.399 19.0274 270.566 39.5339 279.193 61.2554V61.0799L204.173 90.9959H204.322C197.086 72.8924 191.092 57.8804 186.893 47.3909C184.801 42.1394 183.154 38.0354 182.02 35.2409C181.453 33.8909 181.021 32.7569 180.67 32.0279L180.211 30.9344C180.211 30.9344 180.346 31.2989 180.629 32.0144C180.913 32.7299 181.345 33.8234 181.885 35.2139C183.005 38.0219 184.585 42.1394 186.704 47.3639C190.876 57.8804 196.843 72.9329 204.052 91.0769V91.1849H204.16L279.422 61.2959H279.544V61.1744C270.904 39.4664 262.723 18.9599 255.595 1.05893V0.950928H255.487L201.095 22.6724L185.746 28.8149L181.696 30.4484L180.67 30.8669L180.224 30.9884Z" fill="#E0E0E0"/>
<rect opacity="0.2" x="184.473" y="33.761" width="75.2625" height="56.565" transform="rotate(-21.71 184.473 33.761)" fill="#0077B2"/>
<path d="M275.036 58.6365L237.614 35.6865L230.621 62.1465L216.014 55.3155L205.119 86.4735L275.036 58.6365Z" fill="#F4F4F4"/>
<path d="M214.461 40.263C215.345 42.4909 217.485 43.9666 219.882 44.002C222.279 44.0373 224.461 42.6253 225.41 40.4245C226.36 38.2236 225.891 35.6673 224.221 33.9476C222.551 32.2278 220.01 31.6833 217.782 32.568C214.74 33.7759 213.253 37.221 214.461 40.263Z" fill="#F4F4F4"/>
<path opacity="0.1" d="M146.594 210.142H176.766V182.278H185.919V210.142H216.092V218.728H185.919V246.578H176.766V218.728H146.594V210.142Z" fill="#0077B2"/>
<path d="M434.861 321.508L475.631 280.562L455.124 242.924C434.631 216.68 391.256 218.368 391.256 218.368C369.848 216.895 348.34 218.197 327.266 222.242C292.814 228.992 295.581 251.753 295.581 251.753L290.964 336.223L286.023 405.005L413.126 407.57L434.861 321.508Z" fill="#B3B3B3"/>
<path d="M366.389 403.601L480.235 404.951C492.984 405.099 504.911 398.674 511.801 387.946C518.69 377.217 519.572 363.698 514.133 352.166L465.466 261.892L421.118 291.862L451.372 354.596L359.207 356.243L366.389 403.601Z" fill="#B3B3B3"/>
<path d="M299.659 238.037L208.305 379.085L261.603 382.568C261.603 382.568 293.422 332.416 292.653 333.442C291.411 335.332 299.659 238.037 299.659 238.037Z" fill="#B3B3B3"/>
<path d="M423.414 299.975C423.392 299.728 423.347 299.484 423.279 299.246C423.157 298.706 422.995 298.031 422.793 297.194C422.374 295.425 421.767 292.86 421.119 289.674C420.471 286.488 419.769 282.654 419.337 278.388C418.795 273.765 418.795 269.094 419.337 264.47C420.076 259.887 421.674 255.485 424.048 251.496C425.961 248.215 428.224 245.15 430.798 242.357C432.533 240.452 434.376 238.649 436.32 236.957C437.068 236.379 437.78 235.757 438.453 235.094C438.235 235.207 438.027 235.338 437.832 235.485C437.454 235.769 436.86 236.16 436.144 236.741C434.119 238.345 432.211 240.091 430.434 241.965C427.764 244.734 425.422 247.801 423.454 251.105C421 255.157 419.35 259.645 418.594 264.321C418.06 269.002 418.096 273.73 418.702 278.402C419.158 282.203 419.807 285.979 420.646 289.715C421.362 292.914 421.996 295.466 422.55 297.221C422.806 298.098 423.009 298.773 423.157 299.232C423.205 299.492 423.291 299.742 423.414 299.975Z" fill="#263238"/>
<path d="M427.072 304.835C427.283 305.533 427.545 306.214 427.855 306.873C428.395 308.223 429.205 310.032 430.245 312.273C432.31 316.85 435.253 323.141 438.628 330.026C442.003 336.911 445.176 343.08 447.538 347.576C448.726 349.79 449.698 351.626 450.387 352.8C450.716 353.454 451.095 354.082 451.521 354.677C451.286 353.985 450.987 353.316 450.63 352.679C449.955 351.329 449.064 349.52 447.93 347.346C445.648 342.743 442.53 336.546 439.195 329.796L430.65 312.138C429.597 309.965 428.719 308.156 428.044 306.738C427.774 306.078 427.449 305.441 427.072 304.835L427.072 304.835Z" fill="#263238"/>
<path d="M366.389 403.601C366.389 403.601 366.389 403.52 366.389 403.371C366.389 403.223 366.389 402.953 366.389 402.669C366.321 402.021 366.24 401.117 366.119 399.969C365.862 397.566 365.484 394.151 365.012 389.844C363.999 381.11 362.582 368.825 360.962 354.339L360.638 354.69H394.266L453.099 354.582L470.933 354.474L475.779 354.407H477.035H477.467C477.323 354.39 477.178 354.39 477.035 354.407H475.779L470.933 354.339L453.099 354.231L394.266 354.137H360.638H360.273V354.488C362.042 368.96 363.554 381.245 364.62 389.966C365.174 394.259 365.606 397.688 365.97 400.077C366.132 401.211 366.254 402.111 366.335 402.777L366.443 403.466C366.423 403.51 366.405 403.555 366.389 403.601Z" fill="#263238"/>
<path d="M450.562 355.595C451.378 354.694 452.135 353.743 452.83 352.747C456.469 348.179 460.974 344.375 466.087 341.555C467.18 341.026 468.243 340.441 469.274 339.8C468.075 340.081 466.924 340.536 465.858 341.15C460.532 343.781 455.927 347.668 452.439 352.477C451.679 353.429 451.048 354.477 450.562 355.595Z" fill="#263238"/>
<path d="M289.075 364.532C289.174 364.147 289.238 363.754 289.264 363.358C289.359 362.534 289.48 361.414 289.642 359.996C289.953 357.08 290.371 352.855 290.83 347.63C291.748 337.168 292.815 322.696 293.76 306.712C294.705 290.728 295.366 276.229 295.744 265.739C295.947 260.488 296.068 256.289 296.136 253.306C296.136 251.888 296.136 250.768 296.136 249.931C296.165 249.54 296.165 249.147 296.136 248.756C296.061 249.143 296.021 249.536 296.014 249.931C296.014 250.754 295.906 251.888 295.825 253.306C295.69 256.303 295.474 260.528 295.231 265.712C294.718 276.202 293.976 290.674 293.031 306.671C292.086 322.669 291.1 337.114 290.331 347.59C289.926 352.76 289.602 357.04 289.372 359.983C289.264 361.333 289.183 362.521 289.116 363.344C289.048 364.168 289.062 364.532 289.075 364.532Z" fill="#263238"/>
<path d="M362.582 371.566C362.582 371.566 339.861 365.018 332.342 363.101C329.412 362.359 316.871 368.974 308.204 374.482C308.204 374.482 296.27 381.556 297.242 383.729C298.295 386.132 302.642 385.646 309.716 382.379C309.716 382.379 307.272 389.494 312.078 389.332C312.078 389.332 309.689 397.027 314.198 397.823C318.707 398.62 319.76 388.805 323.729 388.279C327.698 387.752 335.879 387.212 335.879 387.212C335.879 387.212 342.723 398.552 348.029 399.362C353.334 400.172 365.579 398.714 365.579 398.714L362.582 371.566Z" fill="#FFBE9D"/>
<path d="M323.81 373.132C321.587 374.122 319.463 375.319 317.465 376.709C315.346 377.908 313.347 379.31 311.498 380.894C313.721 379.904 315.845 378.706 317.843 377.317C319.963 376.118 321.961 374.716 323.81 373.132Z" fill="#EB996E"/>
<path d="M325.16 377.546C322.566 378.362 320.046 379.396 317.627 380.637C315.113 381.67 312.692 382.917 310.391 384.363C312.98 383.554 315.496 382.524 317.91 381.285C320.432 380.256 322.859 379.004 325.16 377.546Z" fill="#EB996E"/>
<path d="M322.716 388.09C319.287 388.08 315.872 388.534 312.564 389.44C315.994 389.452 319.409 388.998 322.716 388.09Z" fill="#EB996E"/>
<path d="M392.121 137.246C391.574 139.035 392.15 140.976 393.584 142.177C395.017 143.378 397.03 143.605 398.695 142.754C401.773 141.202 402.165 136.949 401.557 133.561C400.95 130.172 399.802 126.541 401.233 123.395C402.313 120.992 404.676 119.467 406.525 117.577C409.806 114.245 411.336 109.567 410.656 104.941C409.863 100.299 406.536 96.4932 402.043 95.0856C397.521 93.8301 391.959 95.2206 388.543 91.9401C386.1 89.5641 385.951 85.6896 384.075 82.8546C381.132 78.4536 374.935 77.7516 369.711 78.4671C364.486 79.1826 359.14 80.8701 354.01 79.5876C349.731 78.5211 346.221 75.5376 342.211 73.7016C333.222 69.6288 322.639 71.7088 315.861 78.8805C309.082 86.0522 307.601 96.7354 312.174 105.481C313.661 108.613 316.204 111.122 319.356 112.568" fill="#263238"/>
<path d="M366.078 248.77C359.118 248.767 352.448 245.974 347.562 241.017C342.676 236.059 339.98 229.351 340.077 222.391L340.415 197.577C340.415 197.577 319.571 195.485 318.194 174.83C316.817 154.175 317.802 106.507 317.802 106.507C341.16 94.9155 368.959 96.8624 390.473 111.596L393.659 113.797L392.106 223.065C391.936 237.317 380.331 248.778 366.078 248.77Z" fill="#FFBE9D"/>
<path d="M323.284 143.996C324.845 143.817 326.023 142.495 326.023 140.925C326.023 139.354 324.845 138.033 323.284 137.854C323.116 137.813 322.94 137.813 322.771 137.854C321.211 138.033 320.033 139.354 320.033 140.925C320.033 142.495 321.211 143.817 322.771 143.996C322.941 144.024 323.115 144.024 323.284 143.996Z" fill="#263238"/>
<path d="M319.234 137.327C319.572 137.678 321.516 135.977 324.364 135.828C327.213 135.68 329.359 137.016 329.656 136.638C329.953 136.26 329.44 135.842 328.495 135.207C327.239 134.39 325.75 134.006 324.256 134.114C322.764 134.212 321.343 134.79 320.206 135.761C319.342 136.517 319.072 137.246 319.234 137.327Z" fill="#263238"/>
<path d="M352.16 138.029C351.159 138.722 350.674 139.951 350.932 141.142C351.19 142.332 352.14 143.25 353.339 143.467C354.538 143.683 355.749 143.156 356.407 142.131C357.065 141.106 357.041 139.785 356.345 138.785C355.397 137.422 353.525 137.084 352.16 138.029Z" fill="#263238"/>
<path d="M350.285 138.151C350.636 138.502 352.58 136.801 355.428 136.652C358.277 136.504 360.423 137.84 360.707 137.462C360.855 137.287 360.504 136.666 359.559 136.031C356.967 134.368 353.592 134.592 351.243 136.585C350.393 137.341 350.123 138.002 350.285 138.151Z" fill="#263238"/>
<path d="M340.159 162.261C340.159 162.045 338.377 161.775 335.501 161.532C334.745 161.532 334.151 161.357 334.151 160.965C334.083 160.22 334.228 159.471 334.57 158.805C335.191 156.875 335.825 154.931 336.5 152.892C339.2 144.482 340.969 137.556 340.55 137.421C340.132 137.286 337.621 143.996 334.948 152.406C334.327 154.458 333.733 156.456 333.139 158.346C332.71 159.329 332.624 160.428 332.896 161.465C333.14 162.033 333.642 162.45 334.246 162.585C334.666 162.679 335.098 162.711 335.528 162.68C338.35 162.626 340.145 162.491 340.159 162.261Z" fill="#263238"/>
<path d="M349.569 164.907C345.234 167.133 340.615 168.755 335.84 169.727C337.992 172.7 341.915 173.787 345.29 172.346C351.324 169.74 349.569 164.907 349.569 164.907Z" fill="white"/>
<path d="M340.375 197.281C349.928 196.94 359.162 193.763 366.903 188.155C366.903 188.155 361.34 203.369 340.618 202.64L340.375 197.281Z" fill="#EB996E"/>
<path d="M317.668 111.731C317.668 111.731 330.142 118.076 346.693 110.219C357.493 105.062 370.129 102.672 372.856 104.9C375.583 107.127 375.947 118.197 386.531 121.64C386.531 121.64 385.397 142.781 393.835 142.187C402.272 141.593 397.655 108.747 397.655 108.747L377.23 98.2714L354.806 93.5869L333.544 96.1654L317.047 100.337L317.668 111.731Z" fill="#263238"/>
<path d="M392.297 135.397C392.648 135.221 406.269 130.415 406.593 144.577C406.917 158.738 392.634 156.133 392.594 155.728C392.553 155.323 392.297 135.397 392.297 135.397Z" fill="#FFBE9D"/>
<path d="M396.806 150.26C396.806 150.26 397.049 150.436 397.467 150.611C398.061 150.851 398.724 150.851 399.317 150.611C400.802 150.031 402.017 147.628 402.017 145.076C402.025 143.859 401.762 142.655 401.247 141.553C400.952 140.663 400.242 139.972 399.344 139.703C398.757 139.567 398.156 139.868 397.913 140.419C397.724 140.81 397.818 141.094 397.751 141.121C397.683 141.148 397.44 140.891 397.535 140.311C397.609 139.957 397.799 139.639 398.075 139.406C398.458 139.108 398.941 138.968 399.425 139.015C400.609 139.222 401.601 140.029 402.044 141.148C402.68 142.359 403.004 143.709 402.989 145.076C402.989 147.925 401.558 150.638 399.533 151.273C398.766 151.507 397.935 151.388 397.265 150.949C396.833 150.611 396.752 150.287 396.806 150.26Z" fill="#EB996E"/>
<path d="M399.506 91.0761C396.188 90.1028 392.626 91.4332 390.758 94.3431C392.019 93.3934 393.376 92.579 394.808 91.9131C396.34 91.4716 397.915 91.1911 399.506 91.0761Z" fill="#263238"/>
<path d="M390.986 82.5979C390.743 82.5979 391.135 85.5814 390.635 89.1184C390.216 91.2434 389.555 93.3134 388.664 95.2879C388.664 95.2879 389.245 94.7884 389.839 93.7354C390.601 92.334 391.104 90.8065 391.324 89.2264C391.717 87.02 391.601 84.7529 390.986 82.5979Z" fill="#263238"/>
<path d="M332.829 130.496C332.896 130.334 332.289 129.835 331.141 129.376C328.095 128.198 324.713 128.231 321.691 129.47C320.557 129.956 319.963 130.456 320.044 130.618C320.206 130.996 322.933 129.929 326.443 129.929C329.953 129.929 332.653 130.915 332.829 130.496Z" fill="#263238"/>
<path d="M364.391 127.553C364.459 127.391 363.851 126.905 362.704 126.433C361.194 125.846 359.585 125.557 357.965 125.582C356.343 125.582 354.737 125.903 353.24 126.527C352.093 127.013 351.499 127.513 351.58 127.688C351.661 127.864 354.482 127 357.979 126.986C361.475 126.973 364.216 127.931 364.391 127.553Z" fill="#263238"/>
<path d="M335.259 132.764C335.259 132.764 335.259 133.061 335.259 133.601C335.259 134.141 335.259 134.951 335.192 135.883C335.124 136.814 335.192 138.07 335.124 139.42C335.161 140.977 334.933 142.529 334.449 144.01C333.831 145.793 332.81 147.41 331.466 148.735C329.909 150.235 327.979 151.293 325.877 151.799C323.557 152.338 321.13 152.183 318.897 151.354C316.5 150.453 314.458 148.8 313.079 146.642C311.757 144.585 311.093 142.174 311.175 139.73C311.175 137.314 311.175 134.992 311.175 132.764L310.838 133.088L328.388 132.926L333.477 132.832H334.827H335.327C334.753 132.768 334.176 132.741 333.599 132.751L328.577 132.656L310.824 132.427H310.5V132.764C310.5 134.992 310.5 137.314 310.5 139.73C310.408 142.307 311.106 144.85 312.498 147.02C313.957 149.308 316.124 151.057 318.668 152.002C319.864 152.461 321.127 152.721 322.407 152.771C323.632 152.843 324.861 152.729 326.052 152.434C330.246 151.407 333.607 148.28 334.935 144.172C335.407 142.625 335.608 141.008 335.529 139.393C335.529 138.043 335.529 136.787 335.448 135.761C335.367 134.735 335.448 134.101 335.381 133.507C335.368 133.255 335.327 133.006 335.259 132.764Z" fill="#263238"/>
<path d="M368.36 132.062C368.331 132.34 368.331 132.621 368.36 132.899L368.293 135.181C368.293 136.18 368.293 137.368 368.212 138.731C368.261 140.289 368.032 141.843 367.537 143.321C366.921 145.102 365.9 146.715 364.553 148.033C363.005 149.538 361.078 150.596 358.978 151.097C356.655 151.657 354.218 151.501 351.985 150.652C349.59 149.753 347.549 148.105 346.166 145.954C344.856 143.892 344.197 141.483 344.276 139.042C344.276 136.625 344.276 134.29 344.276 132.062L343.952 132.386L361.502 132.224L366.592 132.143H367.942H368.441C367.863 132.079 367.281 132.052 366.7 132.062L361.691 131.981L343.952 131.819H343.628V132.143C343.628 134.371 343.628 136.706 343.628 139.123C343.542 141.697 344.234 144.237 345.613 146.413C347.082 148.694 349.252 150.437 351.796 151.381C352.944 151.805 354.151 152.046 355.373 152.096C356.598 152.168 357.827 152.055 359.018 151.759C361.228 151.216 363.249 150.082 364.864 148.478C366.248 147.075 367.288 145.37 367.901 143.497C368.386 141.953 368.587 140.333 368.495 138.718C368.495 137.368 368.495 136.112 368.428 135.086C368.36 134.06 368.428 133.426 368.428 132.832C368.423 132.574 368.4 132.317 368.36 132.062Z" fill="#263238"/>
<path d="M334.961 133.749C338.048 134.218 341.189 134.218 344.276 133.749C341.19 133.264 338.047 133.264 334.961 133.749H334.961Z" fill="#263238"/>
<path d="M394.173 133.925C389.881 133.567 385.573 133.436 381.267 133.533C376.963 133.411 372.655 133.515 368.361 133.844C372.652 134.219 376.961 134.349 381.267 134.235C385.572 134.374 389.881 134.27 394.173 133.925Z" fill="#263238"/>
<path d="M0.849609 407.246C0.849609 407.448 129.977 407.61 289.223 407.61C448.469 407.61 577.61 407.448 577.61 407.246C577.61 407.043 448.523 406.895 289.223 406.895C129.923 406.895 0.849609 407.07 0.849609 407.246Z" fill="#263238"/>
<path d="M249.223 291.457L294.029 402.278H374.84V407.273H134.162L84.9277 291.457H249.223Z" fill="#0077B2"/>
<path fill-rule="evenodd" clip-rule="evenodd" d="M187.183 362.664L184.064 371.25H206.636L209.755 362.664H187.183ZM179.771 371.25L196.957 324H171.185L154 371.25H179.771Z" fill="#FFFFFD"/>
</svg>
