<svg width="272" height="235" viewBox="0 0 272 235" fill="none" xmlns="http://www.w3.org/2000/svg">
<path d="M135.723 234.045C210.681 234.045 271.446 230.497 271.446 226.121C271.446 221.744 210.681 218.197 135.723 218.197C60.7653 218.197 0 221.744 0 226.121C0 230.497 60.7653 234.045 135.723 234.045Z" fill="#F5F5F5"/>
<g opacity="0.2">
<path d="M213.234 220.262L168.651 137.865L124.068 220.262H213.234Z" fill="#4AADF7"/>
<path d="M213.234 80.8638L168.651 163.261L124.068 80.8638H213.234Z" fill="#4AADF7"/>
</g>
<path d="M176.821 129.514L170.297 141.568C169.971 142.173 169.339 142.55 168.652 142.55C167.965 142.55 167.333 142.173 167.007 141.568L160.483 129.514C159.286 127.298 159.345 124.615 160.637 122.453C161.929 120.291 164.264 118.968 166.783 118.972H170.556C173.068 118.981 175.392 120.308 176.676 122.468C177.959 124.628 178.014 127.303 176.821 129.514Z" fill="#F99F1B"/>
<path d="M169.357 199.465L189.622 207.795C190.437 208.139 190.9 209.007 190.731 209.875C190.561 210.743 189.807 211.374 188.922 211.386H148.413C147.529 211.374 146.774 210.743 146.605 209.875C146.436 209.007 146.898 208.139 147.713 207.795L167.922 199.465C168.381 199.273 168.898 199.273 169.357 199.465Z" fill="#F99F1B"/>
<path d="M168.652 183.61C170.086 183.61 171.249 182.447 171.249 181.013C171.249 179.579 170.086 178.416 168.652 178.416C167.217 178.416 166.055 179.579 166.055 181.013C166.055 182.447 167.217 183.61 168.652 183.61Z" fill="#F99F1B"/>
<path d="M168.651 155.232C169.39 155.232 169.988 154.634 169.988 153.895C169.988 153.157 169.39 152.558 168.651 152.558C167.913 152.558 167.314 153.157 167.314 153.895C167.314 154.634 167.913 155.232 168.651 155.232Z" fill="#F99F1B"/>
<path d="M168.652 168.343C169.491 168.343 170.171 167.663 170.171 166.824C170.171 165.985 169.491 165.305 168.652 165.305C167.813 165.305 167.133 165.985 167.133 166.824C167.133 167.663 167.813 168.343 168.652 168.343Z" fill="#F99F1B"/>
<path d="M213.01 216.202H124.292C122.051 216.21 120.236 218.027 120.232 220.269C120.24 222.508 122.053 224.321 124.292 224.329H213.01C215.25 224.321 217.063 222.508 217.07 220.269C217.067 218.027 215.252 216.21 213.01 216.202Z" fill="#F99F1B"/>
<path d="M213.01 76.8042H124.292C122.053 76.8119 120.24 78.6251 120.232 80.8642C120.24 83.1033 122.053 84.9165 124.292 84.9242H213.01C215.25 84.9165 217.063 83.1033 217.07 80.8642C217.063 78.6251 215.25 76.8119 213.01 76.8042Z" fill="#F99F1B"/>
<path d="M96.9643 218.729L92.0293 217.133L95.0953 205.492L100.03 207.095L96.9643 218.729Z" fill="#FFBE9D"/>
<path d="M91.9517 216.475L97.4957 218.274C97.6901 218.332 97.8044 218.533 97.7547 218.729L96.5997 223.209C96.4458 223.69 95.9329 223.955 95.4517 223.804C93.5337 223.146 92.6517 222.733 90.2087 221.942C88.7037 221.452 83.7617 220.178 81.6897 219.506C79.6177 218.834 80.3387 216.804 81.2767 216.902C85.4767 217.343 89.2567 217.147 91.0067 216.503C91.3099 216.39 91.6423 216.38 91.9517 216.475Z" fill="#263238"/>
<path opacity="0.2" d="M100.031 207.095L95.0957 205.492L93.5137 211.491L98.4487 213.094L100.031 207.095Z" fill="black"/>
<path d="M113.52 89.264C113.52 89.264 104.665 130.249 102.586 144.984C100.311 161.119 91.7637 209.573 91.7637 209.573L100.927 212.107C100.927 212.107 113.625 165.116 117.335 149.429C121.36 132.398 132.035 89.229 132.035 89.229L113.52 89.264Z" fill="#F99F1B"/>
<path opacity="0.3" d="M124.467 102.704C120.967 110.642 119.238 127.904 120.596 135.849C123.074 125.664 126.056 113.554 128.359 104.237C127.582 101.535 126.294 98.56 124.467 102.704Z" fill="black"/>
<path d="M101.158 212.282L91.3438 209.58L91.5327 205.583L102.586 209.405L101.158 212.282Z" fill="#263238"/>
<path fill-rule="evenodd" clip-rule="evenodd" d="M91.3214 217.021C90.8471 216.986 90.3778 216.902 89.9214 216.769C89.5959 216.694 89.3079 216.505 89.1094 216.237C89.0012 216.01 89.0226 215.743 89.1654 215.537C89.2411 215.397 89.3844 215.307 89.5434 215.299C90.2095 215.258 91.2663 216.611 91.4252 216.814C91.4282 216.818 91.431 216.822 91.4334 216.825C91.4601 216.865 91.4619 216.916 91.4382 216.958C91.4144 216.999 91.3692 217.024 91.3214 217.021ZM89.2984 216.118C89.4524 216.419 90.0964 216.657 91.0344 216.769V216.748C90.5794 216.202 89.8934 215.516 89.5294 215.558C89.4522 215.563 89.3834 215.608 89.3474 215.677C89.2515 215.804 89.2327 215.973 89.2984 216.118Z" fill="#263238"/>
<path fill-rule="evenodd" clip-rule="evenodd" d="M91.421 216.937C91.4055 216.976 91.3713 217.005 91.33 217.014H91.274L91.218 216.958C90.819 216.503 90.42 215.236 90.707 214.732C90.8144 214.547 91.0344 214.461 91.239 214.522C91.4254 214.552 91.5865 214.669 91.673 214.837C91.9624 215.392 91.5841 216.465 91.4587 216.821C91.4355 216.887 91.421 216.928 91.421 216.937ZM91.491 214.977C91.4475 214.888 91.3687 214.822 91.274 214.795L91.218 214.781C91.043 214.746 90.945 214.816 90.945 214.879C90.8355 215.493 90.963 216.126 91.302 216.65C91.542 216.127 91.6083 215.541 91.491 214.977Z" fill="#263238"/>
<path d="M122.941 50.3509C122.675 50.9809 122.451 51.4569 122.206 51.9889C121.961 52.5209 121.695 53.0109 121.436 53.5149C120.918 54.5299 120.372 55.5169 119.805 56.5039C118.659 58.4858 117.397 60.3978 116.025 62.2299C114.62 64.1244 113.063 65.9013 111.37 67.5429C109.565 69.3188 107.52 70.8317 105.294 72.0369L105.119 72.1279C104.835 72.2742 104.534 72.3825 104.223 72.4499C102.628 72.7815 100.977 72.7166 99.4137 72.2609C98.1148 71.8722 96.8792 71.2968 95.7457 70.5529C93.8441 69.2742 92.1371 67.7276 90.6777 65.9609C89.3218 64.3498 88.0887 62.6394 86.9887 60.8439C85.9023 59.0794 84.9365 57.2436 84.0977 55.3489C83.6511 54.3129 84.0338 53.1062 84.9959 52.517C85.958 51.9278 87.2068 52.1353 87.9267 53.0039L87.9967 53.0879C89.1517 54.4879 90.4047 55.9789 91.6647 57.3369C92.8925 58.689 94.1966 59.9698 95.5707 61.1729C96.7851 62.2737 98.1354 63.2147 99.5887 63.9729C100.132 64.2523 100.715 64.4459 101.318 64.5469C101.655 64.6096 102.003 64.5806 102.326 64.4629L101.255 64.8759C102.701 63.9005 104.021 62.7482 105.182 61.4459C106.446 60.0263 107.615 58.525 108.682 56.9519C109.788 55.3419 110.838 53.6549 111.825 51.9189C112.329 51.0579 112.812 50.1829 113.267 49.2939L113.967 47.9709C114.184 47.5439 114.422 47.0539 114.59 46.7109L114.632 46.6129C115.693 44.3727 118.353 43.3946 120.613 44.413C122.873 45.4315 123.902 48.0717 122.927 50.3509H122.941Z" fill="#989898"/>
<path opacity="0.3" d="M111.496 59.8571C113.694 54.0191 118.363 53.9211 120.386 55.4681C120.239 55.7411 120.085 56.0141 119.931 56.2871C118.833 58.1982 117.629 60.0467 116.326 61.8241C114.988 63.6528 113.516 65.3795 111.923 66.9901C111.419 67.4871 110.901 67.9771 110.362 68.4531C110.176 65.5413 110.561 62.6212 111.496 59.8571Z" fill="black"/>
<path d="M83.923 55.7131L79.373 55.8811L80.507 51.0161C82.0735 51.0938 83.6283 51.3283 85.148 51.7161C85.7092 51.886 86.1559 52.3131 86.3509 52.8661C86.5458 53.4191 86.4656 54.0319 86.135 54.5161C85.6356 55.2503 84.8109 55.6966 83.923 55.7131Z" fill="#FFBE9D"/>
<path d="M86.471 51.6041C86.0245 51.25 85.5133 50.9861 84.966 50.8271C84.588 52.8151 82.166 56.1681 82.166 56.1681H84.063C84.5571 56.1696 85.0264 55.9516 85.344 55.5731L86.674 53.9771C86.9683 53.6384 87.1129 53.1948 87.0746 52.7477C87.0364 52.3006 86.8186 51.888 86.471 51.6041Z" fill="#F99F1B"/>
<path d="M75.8867 53.6409L77.1607 50.2109L80.4927 51.0159L79.3587 55.8739L75.8867 53.6409Z" fill="#FFBE9D"/>
<path d="M133.098 221.004H127.904L127.729 208.985H132.916L133.098 221.004Z" fill="#FFBE9D"/>
<path d="M127.638 220.402H133.469C133.568 220.398 133.664 220.434 133.736 220.501C133.808 220.568 133.851 220.661 133.854 220.759L134.134 225.372C134.134 225.877 133.729 226.288 133.224 226.296C131.194 226.261 130.228 226.142 127.624 226.142C126.049 226.142 120.778 226.303 118.601 226.303C116.424 226.303 116.501 224.147 117.404 223.951C121.548 223.083 125.244 221.851 126.707 220.724C126.971 220.511 127.3 220.397 127.638 220.402Z" fill="#263238"/>
<path opacity="0.2" d="M132.916 208.985H127.729L127.82 215.18H133.014L132.916 208.985Z" fill="black"/>
<path d="M123.642 89.2642C123.642 89.2642 121.661 134.351 122.501 149.212C123.425 165.48 125.357 213.689 125.357 213.689H134.863C134.863 213.689 137.257 166.789 137.831 150.689C138.454 133.189 141.275 89.2642 141.275 89.2642L123.642 89.2642Z" fill="#F99F1B"/>
<path d="M135.246 213.689H124.97L124.193 209.867L135.526 210.434L135.246 213.689Z" fill="#263238"/>
<path fill-rule="evenodd" clip-rule="evenodd" d="M127.197 221.123C126.738 221.232 126.269 221.293 125.797 221.305C125.455 221.335 125.114 221.238 124.838 221.032C124.677 220.854 124.619 220.605 124.684 220.374C124.715 220.222 124.821 220.096 124.964 220.038C125.601 219.786 127.071 220.787 127.239 220.906C127.275 220.935 127.294 220.98 127.288 221.025C127.277 221.071 127.242 221.108 127.197 221.123ZM124.992 220.864C125.237 221.102 125.916 221.13 126.847 220.948C126.245 220.563 125.384 220.129 125.041 220.262C124.97 220.29 124.919 220.354 124.908 220.43C124.858 220.579 124.89 220.744 124.992 220.864Z" fill="#263238"/>
<path fill-rule="evenodd" clip-rule="evenodd" d="M127.212 221.123C127.194 221.129 127.174 221.129 127.156 221.123C127.135 221.129 127.113 221.129 127.093 221.123C126.575 220.815 125.798 219.73 125.924 219.163C125.968 218.957 126.147 218.807 126.358 218.799C126.545 218.773 126.734 218.835 126.869 218.967C127.356 219.435 127.288 220.754 127.276 220.991C127.275 221.009 127.275 221.02 127.275 221.025C127.271 221.066 127.248 221.103 127.212 221.123ZM126.715 219.128C126.647 219.058 126.553 219.02 126.456 219.023H126.4C126.225 219.044 126.169 219.128 126.169 219.198C126.092 219.569 126.61 220.395 127.058 220.78C127.124 220.207 127.004 219.627 126.715 219.128Z" fill="#263238"/>
<path d="M143.872 47.4178C144.028 46.5336 143.819 45.6236 143.29 44.8973C142.762 44.171 141.961 43.691 141.072 43.5678H141.016C139.343 43.3228 137.243 43.0708 135.185 42.9728C131.256 42.7486 127.318 42.7486 123.39 42.9728C121.577 43.1408 119.806 43.4418 118.392 43.7148H118.336C116.534 44.0787 115.082 45.4097 114.563 47.1728C112.869 52.8778 110.846 64.5258 113.492 89.2568H141.247C141.443 86.7788 140.89 78.7148 141.296 68.4458C141.701 61.3884 142.562 54.3645 143.872 47.4178Z" fill="#989898"/>
<path opacity="0.3" d="M143.606 48.9442C143.032 52.2622 142.325 56.7772 141.835 61.5442C141.835 61.5442 139.301 56.5742 138.839 52.3252C138.377 48.0762 142.024 47.7542 143.606 48.9442Z" fill="black"/>
<g opacity="0.2">
<path d="M124.992 49.6022C124.874 49.5967 124.773 49.5136 124.746 49.3984C124.718 49.2832 124.77 49.1637 124.873 49.1052L133.525 44.6182C133.653 44.556 133.807 44.6053 133.875 44.7302C133.942 44.8598 133.892 45.019 133.763 45.0872L125.111 49.5602C125.074 49.5817 125.034 49.596 124.992 49.6022Z" fill="white"/>
<path d="M128.954 50.0083C128.885 50.0112 128.818 49.9829 128.772 49.9313L124.026 45.2203C123.929 45.1156 123.929 44.954 124.026 44.8493C124.129 44.7488 124.294 44.7488 124.397 44.8493L129.136 49.5673C129.236 49.6705 129.236 49.835 129.136 49.9383C129.087 49.9851 129.021 50.0103 128.954 50.0083Z" fill="white"/>
<path d="M135.204 42.966C131.278 42.7418 127.342 42.7418 123.416 42.966H123.22C123.028 43.6936 123.136 44.4682 123.521 45.115C124.179 46.165 125.558 46.753 127.63 46.865H128.407C134.007 46.865 136.17 43.463 136.261 43.316L136.457 43.001L135.204 42.966Z" fill="white"/>
</g>
<path d="M123.977 42.9238C127.407 42.1118 128.009 39.9908 127.778 37.6598C127.724 37.076 127.633 36.4962 127.505 35.9238L131.803 32.3538L134.96 29.7358C134.085 33.5368 133.098 40.4598 135.66 42.9938C135.66 42.9938 133.56 46.4938 127.659 46.1858C122.71 45.9128 123.977 42.9238 123.977 42.9238Z" fill="#FFBE9D"/>
<path opacity="0.2" d="M127.506 35.924C127.633 36.4964 127.724 37.0762 127.779 37.66C129.382 37.338 131.524 35.63 131.748 33.992C131.827 33.4497 131.845 32.9004 131.804 32.354L127.506 35.924Z" fill="black"/>
<path d="M125.223 17.71C122.892 19.11 123.263 22.61 122.633 25.116C124.117 25.263 126.455 22.624 126.455 22.624L127.855 18.613L125.223 17.71Z" fill="#263238"/>
<path d="M137.621 24.752C136.13 29.694 135.521 32.655 132.357 34.72C130.283 36.1068 127.611 36.2292 125.419 35.0378C123.227 33.8463 121.877 31.5375 121.913 29.043C121.913 24.332 124.335 17.038 129.739 16.03C132.109 15.5234 134.57 16.319 136.196 18.1175C137.821 19.916 138.364 22.4446 137.621 24.752Z" fill="#FFBE9D"/>
<path d="M132.965 28.9449C136.465 24.8849 132.09 22.8829 135.667 20.0619C131.642 20.2509 125.013 19.9639 123.83 17.2059C122.647 14.4479 126.287 10.7099 129.318 10.3599C132.818 9.95386 132.062 14.2869 132.062 14.2869C132.062 14.2869 145.453 13.4539 141.204 19.1869C144.424 18.9909 143.535 24.1989 137.935 28.5949C136.528 29.0639 132.965 28.9449 132.965 28.9449Z" fill="#263238"/>
<path d="M140.398 19.2569C140.398 19.2569 143.156 18.4379 143.065 16.2539C144.059 16.9399 144.164 19.0259 140.398 19.2569Z" fill="#263238"/>
<path d="M138.439 29.911C137.634 30.9061 136.508 31.5913 135.254 31.85C133.665 32.137 133.294 30.667 134.085 29.232C134.785 27.944 136.486 26.243 137.914 26.6C139.342 26.957 139.454 28.658 138.439 29.911Z" fill="#FFBE9D"/>
<path d="M129.648 24.6261C129.55 25.0321 129.256 25.3261 128.983 25.2631C128.71 25.2001 128.577 24.8361 128.675 24.4301C128.773 24.0241 129.067 23.7301 129.333 23.7861C129.599 23.8421 129.746 24.2131 129.648 24.6261Z" fill="#263238"/>
<path d="M125.005 23.6948C124.907 24.1008 124.613 24.3948 124.347 24.3388C124.081 24.2828 123.934 23.9118 124.032 23.5058C124.13 23.0998 124.424 22.8058 124.69 22.8618C124.956 22.9178 125.103 23.2888 125.005 23.6948Z" fill="#263238"/>
<path d="M126.435 24.1919C125.645 25.3443 124.703 26.385 123.635 27.2859C124.116 27.8052 124.803 28.0846 125.511 28.0489L126.435 24.1919Z" fill="#EB996E"/>
<path d="M126.938 29.4771C127.917 29.5691 128.891 29.2553 129.633 28.6091C129.657 28.5878 129.671 28.5572 129.671 28.5251C129.671 28.493 129.657 28.4624 129.633 28.4411C129.584 28.394 129.506 28.394 129.458 28.4411C128.642 29.1345 127.549 29.4065 126.504 29.1761C126.472 29.17 126.439 29.177 126.413 29.1955C126.386 29.2139 126.369 29.2423 126.364 29.2741C126.351 29.3416 126.394 29.407 126.462 29.4211L126.938 29.4771Z" fill="#263238"/>
<path d="M131.439 23.492C131.477 23.5048 131.519 23.5048 131.558 23.492C131.617 23.4661 131.663 23.4171 131.686 23.3564C131.708 23.2956 131.705 23.2283 131.677 23.17C131.372 22.4431 130.722 21.9174 129.948 21.77C129.813 21.7532 129.689 21.8461 129.668 21.98C129.66 22.0451 129.678 22.1106 129.719 22.1619C129.76 22.2132 129.82 22.246 129.885 22.253C130.487 22.3801 130.988 22.793 131.229 23.359C131.271 23.4372 131.35 23.4877 131.439 23.492Z" fill="#263238"/>
<path d="M123.858 20.909C123.935 20.9369 124.021 20.9208 124.082 20.867C124.572 20.4591 125.226 20.306 125.846 20.454C125.976 20.4966 126.115 20.4261 126.158 20.2965C126.2 20.167 126.13 20.0276 126 19.985C125.223 19.7932 124.402 19.9772 123.781 20.482C123.675 20.5654 123.656 20.7186 123.739 20.825C123.767 20.8663 123.81 20.8961 123.858 20.909Z" fill="#263238"/>
<path d="M144.124 45.4229L144.705 46.2139L145.23 46.9559C145.58 47.4529 145.895 47.9499 146.224 48.4469C146.861 49.4479 147.463 50.4629 148.044 51.4849C149.208 53.528 150.264 55.6309 151.208 57.7849C151.698 58.8489 152.118 59.9549 152.566 61.0399C153.014 62.1249 153.392 63.2519 153.735 64.3859C154.472 66.643 155.08 68.9404 155.555 71.2669L155.611 71.5329C155.818 72.4818 155.639 73.4742 155.114 74.2909C154.212 75.6752 153.142 76.9425 151.929 78.0639C150.681 79.2074 149.264 80.1518 147.729 80.8639C146.213 81.5704 144.59 82.0199 142.927 82.1939C142.113 82.2778 141.293 82.2919 140.477 82.2359C140.071 82.2359 139.665 82.1589 139.259 82.0959L138.643 81.9769L137.943 81.8019C137.771 81.7604 137.665 81.5888 137.705 81.4169L138.671 77.3569C138.671 77.3219 138.853 77.3149 138.965 77.2869L139.35 77.2099C139.616 77.1539 139.875 77.0909 140.141 77.0209C140.659 76.8805 141.167 76.7027 141.66 76.4889C142.614 76.0973 143.507 75.5717 144.313 74.9279C145.889 73.6306 147.148 71.9907 147.995 70.1329L147.554 73.1569C146.952 71.1759 146.315 69.2159 145.545 67.2769C144.775 65.3379 143.935 63.4339 143.018 61.5579C142.101 59.6819 141.121 57.8269 140.064 56.0209C139.546 55.1179 139 54.2289 138.454 53.3469L137.621 52.0449L137.208 51.4149L136.823 50.8549L136.683 50.6449C135.241 48.5902 135.737 45.7554 137.792 44.3134C139.847 42.8714 142.682 43.3682 144.124 45.4229Z" fill="#989898"/>
<path d="M134.868 81.3962L133.363 83.8602L139.894 83.6012C139.894 83.6012 141.609 79.2052 139.271 78.5122L138.361 78.7572C136.906 79.1648 135.658 80.1075 134.868 81.3962Z" fill="#FFBE9D"/>
<path d="M137.557 77.945C137.087 78.2631 136.683 78.6696 136.367 79.142C138.145 80.108 140.623 83.398 140.623 83.398L141.197 81.592C141.345 81.1204 141.276 80.6075 141.008 80.192L139.923 78.442C139.684 78.0527 139.294 77.779 138.847 77.685C138.4 77.591 137.933 77.685 137.557 77.945Z" fill="#F99F1B"/>
<path d="M133.938 87.6542L139.321 87.1712L139.895 83.5942L133.357 83.8602L133.938 87.6542Z" fill="#FFBE9D"/>
<path d="M67.8648 2.198L67.5078 1.596C68.5343 0.987652 69.6034 0.454263 70.7068 0L70.9728 0.651C69.8999 1.08888 68.861 1.60598 67.8648 2.198Z" fill="#F99F1B"/>
<path d="M57.6453 14.5601L56.9453 14.3221C58.6047 9.72729 61.6069 5.73734 65.5623 2.87012L65.9753 3.43712C62.1448 6.22429 59.2422 10.1002 57.6453 14.5601Z" fill="#F99F1B"/>
<path d="M79.8624 44.0788C91.7619 44.0788 101.408 34.4323 101.408 22.5328C101.408 10.6333 91.7619 0.986816 79.8624 0.986816C67.9629 0.986816 58.3164 10.6333 58.3164 22.5328C58.3164 34.4323 67.9629 44.0788 79.8624 44.0788Z" fill="#F99F1B"/>
<path opacity="0.6" d="M97.8594 22.5328C97.8565 31.1954 91.6828 38.6269 83.1675 40.2178C74.6522 41.8087 66.2118 37.1075 63.0815 29.0302C59.9512 20.9529 63.0193 11.7917 70.3829 7.22883C77.7464 2.66598 87.3158 3.99636 93.1554 10.3948C93.1665 10.3897 93.1793 10.3897 93.1904 10.3948C96.2082 13.7155 97.8738 18.0456 97.8594 22.5328Z" fill="white"/>
<path d="M97.8602 22.5332C97.86 29.6817 93.629 36.1525 87.0805 39.0193C80.532 41.8861 72.9076 40.6053 67.6552 35.7562C61.1248 28.64 61.3759 17.6378 68.2243 10.8271C75.0726 4.0163 86.0761 3.82571 93.1562 10.3952C93.1673 10.3901 93.1801 10.3901 93.1912 10.3952C96.209 13.716 97.8746 18.046 97.8602 22.5332Z" fill="white"/>
<path d="M79.862 23.5829C79.5835 23.5835 79.3163 23.4726 79.12 23.2749L70.342 14.4969C70.0611 14.2352 69.9455 13.841 70.0405 13.4689C70.1355 13.0969 70.426 12.8064 70.798 12.7114C71.1701 12.6164 71.5643 12.732 71.826 13.0129L79.862 21.0489L84.503 16.4079C84.9167 16.0224 85.5614 16.0338 85.9613 16.4337C86.3612 16.8335 86.3725 17.4782 85.987 17.8919L80.604 23.2749C80.4069 23.4713 80.1403 23.5819 79.862 23.5829Z" fill="#263238"/>
</svg>
