<svg width="248" height="268" viewBox="0 0 248 268" fill="none" xmlns="http://www.w3.org/2000/svg">
<path fill-rule="evenodd" clip-rule="evenodd" d="M244.594 34.3613V73.6756H188.127L186.094 34.636L244.594 34.3613Z" fill="#E0E0E0"/>
<path fill-rule="evenodd" clip-rule="evenodd" d="M186.094 73.5926H242.56V34.6362H186.094V73.5926Z" fill="white"/>
<path fill-rule="evenodd" clip-rule="evenodd" d="M186.361 73.325H242.292V34.9043H186.361V73.325ZM185.826 73.8607H242.827V34.3687H185.826V73.8607Z" fill="#E0E0E0"/>
<path fill-rule="evenodd" clip-rule="evenodd" d="M192.209 68.7529H236.444V39.4761H192.209V68.7529Z" fill="white"/>
<path fill-rule="evenodd" clip-rule="evenodd" d="M236.442 39.4762C236.442 39.4762 236.366 39.481 236.224 39.484C236.075 39.4858 235.867 39.4882 235.595 39.4912C235.035 39.4948 234.221 39.5002 233.166 39.5067C231.041 39.5145 227.951 39.5265 224.05 39.5409C216.25 39.5564 205.208 39.5786 192.208 39.6043L192.336 39.4762C192.339 48.4214 192.343 58.332 192.347 68.7495V68.753L192.208 68.613C208.895 68.6238 224.279 68.6339 236.442 68.6417L236.331 68.753C236.356 59.8432 236.376 52.5385 236.39 47.4518C236.402 44.9094 236.411 42.923 236.418 41.5614C236.424 40.8887 236.428 40.3722 236.43 40.0131C236.435 39.663 236.442 39.4762 236.442 39.4762C236.442 39.4762 236.451 39.6468 236.455 39.9897C236.457 40.344 236.461 40.8534 236.467 41.5171C236.473 42.8727 236.483 44.8508 236.495 47.3824C236.509 52.4858 236.53 59.8144 236.554 68.753L236.554 68.8638H236.442C224.279 68.8715 208.895 68.8817 192.208 68.8919H192.068V68.753V68.7495C192.073 58.332 192.076 48.4214 192.08 39.4762V39.3481H192.208C205.243 39.3739 216.313 39.396 224.135 39.4116C228.024 39.4259 231.103 39.4379 233.221 39.4457C234.265 39.4523 235.07 39.4577 235.625 39.4613C235.889 39.4643 236.093 39.4666 236.239 39.4684C236.377 39.4714 236.442 39.4762 236.442 39.4762Z" fill="#E0E0E0"/>
<path fill-rule="evenodd" clip-rule="evenodd" d="M186.093 34.527C186.116 34.4965 186.486 34.7389 187.064 35.156C187.641 35.5732 188.428 36.1645 189.277 36.8444C190.126 37.5243 190.874 38.1671 191.4 38.6489C191.926 39.1307 192.234 39.4479 192.209 39.4766C192.156 39.5358 190.799 38.416 189.103 37.0616C187.406 35.7096 186.043 34.5904 186.093 34.527Z" fill="#E0E0E0"/>
<path fill-rule="evenodd" clip-rule="evenodd" d="M242.559 34.6363C242.606 34.6968 241.276 35.8291 239.587 37.1656C237.898 38.502 236.491 39.5368 236.443 39.4764C236.395 39.4159 237.725 38.2836 239.414 36.9465C241.103 35.6107 242.511 34.5759 242.559 34.6363Z" fill="#E0E0E0"/>
<path fill-rule="evenodd" clip-rule="evenodd" d="M242.514 73.5984C240.416 71.8975 238.317 70.1965 236.219 68.4956L242.514 73.5984Z" fill="white"/>
<path fill-rule="evenodd" clip-rule="evenodd" d="M236.218 68.4955C236.267 68.4357 237.715 69.5297 239.453 70.9386C241.193 72.3481 242.562 73.5385 242.514 73.5983C242.465 73.6582 241.017 72.5647 239.278 71.1552C237.54 69.7464 236.17 68.5554 236.218 68.4955Z" fill="#E0E0E0"/>
<path fill-rule="evenodd" clip-rule="evenodd" d="M186.093 73.5927C186.045 73.5322 187.361 72.4112 189.033 71.0898C190.705 69.7671 192.098 68.7448 192.146 68.8053C192.194 68.8657 190.877 69.9861 189.206 71.3088C187.534 72.6303 186.14 73.6531 186.093 73.5927Z" fill="#E0E0E0"/>
<mask id="mask0" mask-type="alpha" maskUnits="userSpaceOnUse" x="0" y="0" width="248" height="267">
<path fill-rule="evenodd" clip-rule="evenodd" d="M0 266.386H247.821V0.598145H0V266.386Z" fill="white"/>
</mask>
<g mask="url(#mask0)">
<path fill-rule="evenodd" clip-rule="evenodd" d="M201.189 58.4005H229.023V48.5977H201.189V58.4005Z" fill="#E0E0E0"/>
<path fill-rule="evenodd" clip-rule="evenodd" d="M88.4956 12.3293C88.4938 12.3347 88.4459 12.3198 88.3562 12.2868C88.2484 12.2444 88.1186 12.1929 87.96 12.1306C87.5883 11.9762 87.0849 11.7668 86.4493 11.5022C85.1153 10.9306 83.2324 10.1245 80.918 9.13395C76.2359 7.09426 69.814 4.29628 62.7194 1.20562C62.5034 1.11106 62.2873 1.0165 62.0886 0.929115L62.2197 0.929714C55.2447 3.91204 48.9611 6.59871 44.388 8.5546C42.128 9.50382 40.293 10.2747 38.9925 10.8211C38.3736 11.0737 37.8835 11.2736 37.5214 11.4214C37.1838 11.5555 37.0043 11.6207 37.0001 11.6105C36.9959 11.6004 37.1659 11.5148 37.4956 11.3616C37.8517 11.2 38.3341 10.9815 38.9422 10.7056C40.2332 10.1358 42.0544 9.33206 44.2964 8.34273C48.86 6.36409 55.1298 3.64511 62.0892 0.626873L62.155 0.598145L62.2209 0.627471C62.4202 0.714852 62.6356 0.808817 62.8517 0.903978C69.9307 4.02875 76.3395 6.85786 81.012 8.92029C83.3084 9.9515 85.1769 10.79 86.5008 11.3843C87.1256 11.6728 87.6212 11.9014 87.9869 12.0702C88.1401 12.1444 88.2658 12.2055 88.3699 12.2557C88.4555 12.2994 88.498 12.3246 88.4956 12.3293Z" fill="#E0E0E0"/>
<path fill-rule="evenodd" clip-rule="evenodd" d="M0 97.2332H116.884V9.71631H0V97.2332Z" fill="#E0E0E0"/>
<path fill-rule="evenodd" clip-rule="evenodd" d="M4.08594 93.6369H113.237V13.7856H4.08594V93.6369Z" fill="#FAFAFA"/>
<path fill-rule="evenodd" clip-rule="evenodd" d="M28.1953 48.6733C28.1953 48.6733 28.3084 62.0779 28.9907 66.1675L45.8032 65.3721C45.8032 65.3721 44.3261 52.1949 44.8941 48.6733H28.1953Z" fill="#E0E0E0"/>
<path fill-rule="evenodd" clip-rule="evenodd" d="M36.4771 50.5687C36.4771 50.5669 36.4981 50.5645 36.5388 50.5621C36.5866 50.5603 36.6459 50.5579 36.7201 50.5555C36.8799 50.5442 37.1157 50.5555 37.4197 50.5902C37.7214 50.6375 38.0919 50.7189 38.4887 50.908C38.8849 51.0954 39.2948 51.4024 39.6521 51.8279C39.9963 52.2618 40.3123 52.7993 40.4583 53.4475C40.5966 54.0951 40.5266 54.8228 40.2818 55.5243C40.1627 55.8768 40.0005 56.2233 39.8096 56.5627C39.6198 56.9008 39.4295 57.2414 39.2709 57.6112C38.9537 58.345 38.7023 59.1524 38.5916 59.9969L38.5844 60.0525L38.53 60.0537C37.9991 60.0621 37.4383 60.0711 36.8697 60.0807C36.2736 60.0896 35.6859 60.0992 35.1287 60.1076L35.067 60.1088L35.0646 60.0459C35.0359 59.2003 34.6559 58.43 34.2573 57.7483C34.0556 57.4036 33.8341 57.081 33.6276 56.7536C33.4254 56.4334 33.1979 56.1264 33.0369 55.7906C32.7054 55.1215 32.6491 54.3811 32.7742 53.7431C32.8939 53.1033 33.1064 52.524 33.4224 52.0673C33.7372 51.6113 34.1382 51.2935 34.5164 51.0822C34.8971 50.8703 35.255 50.7554 35.5494 50.6836C35.8439 50.6124 36.0779 50.5843 36.2359 50.5717C36.3149 50.5675 36.3754 50.5639 36.4161 50.5651C36.4562 50.5645 36.4771 50.5669 36.4771 50.5687C36.4771 50.5705 36.4568 50.5723 36.4161 50.5765C36.3694 50.5813 36.3107 50.5878 36.2383 50.595C36.0815 50.6154 35.8511 50.6507 35.5608 50.7279C35.2711 50.8057 34.9198 50.926 34.5493 51.1403C34.1807 51.3527 33.7934 51.6681 33.4918 52.1152C33.1895 52.5599 32.9855 53.1333 32.8717 53.7599C32.7544 54.3847 32.8143 55.0957 33.1375 55.7415C33.2949 56.0665 33.5181 56.3646 33.727 56.6919C33.9317 57.0139 34.1561 57.3395 34.3608 57.6867C34.7654 58.3755 35.158 59.156 35.1903 60.0441L35.1269 59.9825C35.6835 59.9729 36.2712 59.9633 36.8679 59.9538C37.4365 59.9454 37.9973 59.9364 38.5282 59.928L38.4665 59.9843C38.5814 59.1165 38.8364 58.3073 39.1608 57.5628C39.3212 57.1899 39.5187 56.8404 39.7078 56.5052C39.8969 56.1718 40.0573 55.8319 40.1758 55.4878C40.4188 54.8019 40.49 54.0957 40.3608 53.4678C40.2249 52.843 39.9185 52.3061 39.5869 51.8812C39.2416 51.4617 38.8454 51.157 38.4593 50.9673C38.0733 50.777 37.71 50.6896 37.4126 50.6351C37.1133 50.5938 36.8793 50.5753 36.7201 50.5789C36.6459 50.5771 36.5866 50.5753 36.5393 50.5741C36.4981 50.5723 36.4771 50.5705 36.4771 50.5687Z" fill="white"/>
<path fill-rule="evenodd" clip-rule="evenodd" d="M37.3382 59.907C37.3382 59.907 37.334 59.8897 37.3275 59.8543C37.3215 59.8172 37.3131 59.7652 37.3023 59.6981C37.2808 59.5587 37.2503 59.3576 37.2108 59.0984C37.1353 58.5765 37.0234 57.8212 36.948 56.8804C36.9301 56.6452 36.9139 56.3986 36.9043 56.1412C36.8959 55.8839 36.8852 55.6164 36.9001 55.3381C36.9157 55.061 36.9606 54.7689 37.0893 54.4966C37.2179 54.229 37.4322 53.9777 37.7303 53.855C38.0265 53.7275 38.4024 53.7939 38.646 54.0291C38.7651 54.1464 38.8459 54.3152 38.8417 54.4894C38.8411 54.663 38.774 54.8323 38.6699 54.9706C38.567 55.1118 38.4227 55.2202 38.2653 55.2974C38.1085 55.3764 37.9379 55.4254 37.7662 55.4631C37.4214 55.5362 37.0653 55.5763 36.7044 55.587C36.3441 55.5948 35.9868 55.5882 35.6373 55.535C35.4625 55.5068 35.2908 55.4614 35.131 55.3889C34.9712 55.3171 34.8251 55.2154 34.7072 55.0879C34.5899 54.961 34.5002 54.8066 34.4636 54.6378C34.4241 54.4696 34.4505 54.2913 34.5235 54.1405C34.5959 53.989 34.7192 53.8598 34.8748 53.7975C35.0316 53.7347 35.2082 53.7526 35.3536 53.8203C35.4996 53.8873 35.6211 53.9968 35.7103 54.1237C35.8001 54.2524 35.854 54.3972 35.8893 54.5427C35.9581 54.8347 35.9563 55.1244 35.9743 55.4003C36.003 55.9539 36.0299 56.4692 36.0545 56.9396C36.1017 57.8799 36.14 58.6412 36.167 59.1697C36.1789 59.4312 36.1885 59.6347 36.1945 59.7759C36.1975 59.8436 36.1993 59.8962 36.2011 59.9333C36.2017 59.9693 36.2011 59.9872 36.2011 59.9872C36.2011 59.9872 36.1981 59.9693 36.1951 59.9339C36.1927 59.8962 36.1891 59.8442 36.1843 59.7765C36.1754 59.6359 36.1628 59.4324 36.1466 59.1709C36.1161 58.6424 36.0718 57.8817 36.0173 56.942C35.991 56.471 35.9617 55.9557 35.9306 55.4027C35.912 55.1262 35.9126 54.8371 35.8444 54.5534C35.8097 54.4128 35.757 54.2721 35.672 54.1506C35.587 54.0303 35.4709 53.9268 35.3333 53.864C35.1974 53.8011 35.0352 53.7856 34.8934 53.8436C34.7509 53.8999 34.636 54.0202 34.5684 54.162C34.5002 54.3039 34.4762 54.4702 34.5127 54.627C34.5474 54.785 34.6324 54.9317 34.7449 55.0532C34.9712 55.301 35.3051 55.4308 35.6451 55.4841C35.9886 55.5362 36.3453 55.5427 36.7032 55.535C37.0611 55.5242 37.4142 55.4841 37.7548 55.4123C37.9242 55.3752 38.0906 55.3273 38.2426 55.2513C38.3946 55.1765 38.531 55.0735 38.6292 54.9401C38.728 54.809 38.7902 54.6492 38.7914 54.4888C38.795 54.3278 38.722 54.1752 38.6106 54.0645C38.3832 53.8442 38.0277 53.779 37.7488 53.8993C37.4645 54.0154 37.2562 54.2572 37.1306 54.5169C37.0055 54.7803 36.9594 55.0663 36.9432 55.3405C36.9271 55.6158 36.9378 55.8833 36.945 56.14C36.9528 56.3968 36.9684 56.6428 36.9851 56.878C37.0551 57.817 37.1617 58.573 37.2311 59.0954C37.2658 59.3552 37.2939 59.5575 37.3131 59.6969C37.3215 59.764 37.3281 59.816 37.3329 59.8537C37.3376 59.8891 37.3382 59.907 37.3382 59.907Z" fill="white"/>
<path fill-rule="evenodd" clip-rule="evenodd" d="M35.126 59.996C35.1344 60.0038 35.1482 60.2049 35.1697 60.555C35.1906 60.9602 35.2152 61.4456 35.2445 62.0112L35.2307 61.9758C35.5689 62.3649 35.9501 62.8048 36.3625 63.28L36.3045 63.2548C36.7162 63.2321 37.1567 63.207 37.6128 63.1812L37.5577 63.2094C37.7678 62.9526 37.9862 62.6857 38.2095 62.4133C38.3196 62.2793 38.4291 62.1464 38.5363 62.0159L38.5183 62.0668C38.5009 61.3001 38.4842 60.5736 38.4692 59.9116L38.5404 59.9792C37.587 59.99 36.7605 59.999 36.0962 60.0062C35.8304 60.0062 35.5976 60.0056 35.3893 60.0056C35.2236 60.0044 35.1314 60.0014 35.126 59.996C35.1206 59.9906 35.2014 59.9834 35.3594 59.9739C35.5623 59.9631 35.7897 59.9511 36.0489 59.9374C36.7252 59.911 37.5667 59.8781 38.5369 59.8398L38.6063 59.8374L38.6087 59.908C38.6284 60.57 38.6506 61.2959 38.6733 62.0626L38.6745 62.0914L38.656 62.1141C38.5482 62.2446 38.4393 62.3774 38.3298 62.5121C38.1059 62.7838 37.8869 63.0502 37.6762 63.3063L37.6547 63.3326L37.6206 63.3344C37.1645 63.3566 36.724 63.3781 36.3116 63.3985L36.2763 63.3997L36.2536 63.3733C35.849 62.8915 35.4749 62.4451 35.1434 62.0507L35.1296 62.0345V62.0147C35.1242 61.4342 35.1194 60.9368 35.1152 60.5209C35.1152 60.1738 35.1176 59.9882 35.126 59.996Z" fill="white"/>
<path fill-rule="evenodd" clip-rule="evenodd" d="M38.5018 61.8895C38.5 61.8931 38.4563 61.8728 38.3779 61.8375C38.2995 61.8015 38.184 61.7525 38.0386 61.7028C37.7483 61.6022 37.3264 61.5083 36.8565 61.5226C36.3861 61.537 35.9713 61.6561 35.6877 61.7746C35.5452 61.8333 35.4333 61.8889 35.3573 61.929C35.2807 61.9697 35.2382 61.9925 35.2364 61.9895C35.2346 61.9865 35.2729 61.9578 35.3471 61.9117C35.4207 61.8656 35.5309 61.8039 35.6733 61.7405C35.9564 61.6124 36.3771 61.4849 36.8553 61.4706C37.3329 61.4556 37.7603 61.5574 38.0505 61.6681C38.1966 61.7231 38.3103 61.7776 38.3869 61.8189C38.4635 61.8602 38.5036 61.8871 38.5018 61.8895Z" fill="white"/>
<path fill-rule="evenodd" clip-rule="evenodd" d="M38.5024 61.3659C38.5006 61.3694 38.4569 61.3491 38.3779 61.3132C38.2995 61.2779 38.1846 61.2288 38.0385 61.1791C37.7483 61.0786 37.3269 60.9846 36.8565 60.999C36.3867 61.0133 35.9713 61.1324 35.6882 61.2509C35.5458 61.3096 35.4339 61.3653 35.3573 61.4054C35.2812 61.4455 35.2387 61.4688 35.2364 61.4652C35.2352 61.4628 35.2735 61.4335 35.3477 61.388C35.4213 61.3413 35.5314 61.2803 35.6733 61.2162C35.9564 61.0882 36.3771 60.9613 36.8553 60.9469C37.3329 60.9319 37.7608 61.0331 38.0511 61.1438C38.1971 61.1989 38.3108 61.2539 38.3875 61.2952C38.4641 61.3365 38.5036 61.3629 38.5024 61.3659Z" fill="white"/>
<path fill-rule="evenodd" clip-rule="evenodd" d="M38.4706 60.868C38.4688 60.8716 38.4251 60.8513 38.3461 60.816C38.2677 60.7801 38.1528 60.731 38.0067 60.6813C37.717 60.5808 37.2951 60.4868 36.8253 60.5012C36.3549 60.5155 35.9395 60.6346 35.6564 60.7531C35.514 60.8118 35.402 60.8674 35.326 60.9075C35.2494 60.9482 35.2069 60.971 35.2051 60.968C35.2033 60.965 35.2416 60.9363 35.3159 60.8902C35.3895 60.8441 35.4996 60.7825 35.642 60.719C35.9251 60.5909 36.3453 60.4635 36.8235 60.4491C37.3017 60.4341 37.729 60.5359 38.0193 60.6466C38.1653 60.7017 38.279 60.7561 38.3556 60.7974C38.4323 60.8387 38.4718 60.8657 38.4706 60.868Z" fill="white"/>
<path fill-rule="evenodd" clip-rule="evenodd" d="M9.4707 26.7598C9.4707 26.7598 9.58442 40.1644 10.2661 44.2539L27.0786 43.4585C27.0786 43.4585 25.6015 30.2813 26.1695 26.7598H9.4707Z" fill="#EBEBEB"/>
<path fill-rule="evenodd" clip-rule="evenodd" d="M23.6358 32.39C23.6412 32.4809 21.1198 32.7066 18.0046 32.8939C14.8888 33.0812 12.3589 33.1596 12.3535 33.0687C12.3481 32.9777 14.869 32.7521 17.9854 32.5647C21.1 32.3774 23.6305 32.299 23.6358 32.39Z" fill="white"/>
<path fill-rule="evenodd" clip-rule="evenodd" d="M23.6398 35.2291C23.6451 35.32 21.1237 35.5457 18.0091 35.733C14.8927 35.9203 12.3628 35.9987 12.3574 35.9078C12.352 35.8168 14.8729 35.5911 17.9893 35.4038C21.1039 35.2165 23.6344 35.1387 23.6398 35.2291Z" fill="white"/>
<path fill-rule="evenodd" clip-rule="evenodd" d="M20.7834 38.0171C20.7888 38.108 19.3542 38.2678 17.5796 38.375C15.8045 38.4815 14.3609 38.4947 14.3555 38.4037C14.3501 38.3127 15.7841 38.1529 17.5599 38.0458C19.3344 37.9393 20.778 37.9261 20.7834 38.0171Z" fill="white"/>
<path fill-rule="evenodd" clip-rule="evenodd" d="M8.67578 66.1968C8.67578 66.1968 8.7889 79.6014 9.47119 83.6909L26.2837 82.8955C26.2837 82.8955 24.8066 69.7184 25.3745 66.1968H8.67578Z" fill="#EBEBEB"/>
<path fill-rule="evenodd" clip-rule="evenodd" d="M22.839 71.8275C22.8444 71.9184 20.3229 72.1441 17.2083 72.3314C14.0919 72.5187 11.5626 72.5971 11.5566 72.5062C11.5513 72.4152 14.0727 72.1896 17.1885 72.0022C20.3031 71.8149 22.8336 71.7365 22.839 71.8275Z" fill="white"/>
<path fill-rule="evenodd" clip-rule="evenodd" d="M22.8448 74.6663C22.8502 74.7573 20.3287 74.9829 17.2135 75.1703C14.0978 75.3576 11.5679 75.436 11.5625 75.345C11.5571 75.2541 14.078 75.0284 17.1944 74.8411C20.309 74.6538 22.8394 74.5754 22.8448 74.6663Z" fill="white"/>
<path fill-rule="evenodd" clip-rule="evenodd" d="M19.9865 77.4541C19.9919 77.5451 18.5573 77.7054 16.7821 77.812C15.007 77.9185 13.564 77.9317 13.5586 77.8407C13.5532 77.7503 14.9872 77.5899 16.763 77.4828C18.5375 77.3763 19.9811 77.3631 19.9865 77.4541Z" fill="white"/>
<path fill-rule="evenodd" clip-rule="evenodd" d="M54.6211 30.3125L56.2867 68.975L104.552 69.5573L102.385 30.8236L54.6211 30.3125Z" fill="#EBEBEB"/>
<path fill-rule="evenodd" clip-rule="evenodd" d="M54.0605 66.2378H102.005V30.0352H54.0605V66.2378Z" fill="#F5F5F5"/>
<path fill-rule="evenodd" clip-rule="evenodd" d="M102.005 66.238C102.005 66.238 101.995 66.0046 101.99 65.5665C101.987 65.1182 101.982 64.4736 101.975 63.6345C101.967 61.9371 101.955 59.4641 101.94 56.3089C101.923 49.9965 101.899 40.9633 101.87 30.0353L102.005 30.1706C88.4515 30.1789 71.9065 30.1891 54.0653 30.1999H54.0611L54.2257 30.0353C54.2203 43.0557 54.2149 55.3836 54.2101 66.238L54.0611 66.0889C68.2473 66.1195 80.2131 66.1452 88.6442 66.1632C92.8606 66.1799 96.1907 66.1937 98.4793 66.2027C99.6153 66.2104 100.49 66.2164 101.094 66.2206C101.384 66.2242 101.608 66.2272 101.77 66.229C101.923 66.232 102.005 66.238 102.005 66.238C102.005 66.238 101.934 66.2434 101.787 66.2463C101.629 66.2487 101.411 66.2511 101.128 66.2553C100.53 66.2595 99.6656 66.2649 98.5428 66.2727C96.2613 66.2823 92.9426 66.2954 88.7406 66.3128C80.2861 66.3307 68.2868 66.3559 54.0611 66.3864L53.9126 66.387V66.238C53.9079 55.3836 53.9019 43.0557 53.8965 30.0353V29.8701H54.0611H54.0653C71.9065 29.8815 88.4515 29.8917 102.005 29.9H102.141L102.14 30.0353C102.111 40.9986 102.087 50.0611 102.07 56.3938C102.055 59.536 102.043 61.9988 102.035 63.689C102.028 64.5173 102.024 65.1535 102.02 65.5952C102.015 66.0243 102.005 66.238 102.005 66.238Z" fill="#E0E0E0"/>
<path fill-rule="evenodd" clip-rule="evenodd" d="M59.8457 62.1647H79.2814V37.7046H59.8457V62.1647Z" fill="#F5F5F5"/>
<path fill-rule="evenodd" clip-rule="evenodd" d="M79.2814 62.165C79.2784 62.162 79.2754 62.1208 79.2724 62.0412C79.2706 61.949 79.2677 61.8353 79.2641 61.6934C79.2599 61.3714 79.2545 60.9261 79.2467 60.3558C79.2377 59.1737 79.224 57.4782 79.2072 55.338C79.1898 51.0323 79.1641 44.9396 79.1336 37.7049L79.2814 37.8528C73.4897 37.8576 66.8613 37.8635 59.8481 37.8701C59.8086 37.9048 60.1581 37.5607 60.0109 37.7097V37.7163V37.7295V37.7558V37.8091V37.915V38.1269V38.55V39.3939C60.0103 39.9547 60.0103 40.5131 60.0103 41.0685C60.0097 42.1793 60.0091 43.2782 60.0091 44.3645C60.0067 46.5364 60.0049 48.6563 60.0037 50.7115C59.996 54.8196 59.9894 58.6698 59.9828 62.165L59.8457 62.028C65.6769 62.0573 70.5152 62.0818 73.9177 62.0992C75.6054 62.1142 76.9359 62.1261 77.866 62.1345C78.3095 62.1405 78.6572 62.1459 78.9127 62.1501C79.1509 62.1549 79.2814 62.165 79.2814 62.165C79.2862 62.1698 79.1707 62.1752 78.9421 62.18C78.6931 62.1836 78.3537 62.189 77.921 62.1956C76.9987 62.2039 75.6778 62.2159 74.0038 62.2309C70.5804 62.2482 65.7128 62.2728 59.8457 62.3021H59.7093V62.165C59.7027 58.6698 59.6955 54.8196 59.6883 50.7115C59.6865 48.6563 59.6847 46.5364 59.6829 44.3645C59.6823 43.2782 59.6817 42.1793 59.6817 41.0685C59.6811 40.5131 59.6811 39.9547 59.6811 39.3939V38.55V38.1269V37.915V37.8091V37.7558V37.7295V37.7163V37.7097C59.5339 37.8552 59.8804 37.5033 59.8481 37.5404C66.8613 37.5463 73.4897 37.5523 79.2814 37.5571L79.4298 37.5577L79.4292 37.7049C79.3987 44.9791 79.373 51.1048 79.355 55.4331C79.3383 57.5602 79.3251 59.2444 79.3161 60.4186C79.3084 60.9758 79.3024 61.4115 79.2982 61.7269C79.2946 61.8622 79.2922 61.9699 79.2898 62.0585C79.2868 62.1321 79.2844 62.1674 79.2814 62.165Z" fill="#E0E0E0"/>
<path fill-rule="evenodd" clip-rule="evenodd" d="M60.5898 35.6324H97.8363V32.1084H60.5898V35.6324Z" fill="#F5F5F5"/>
<path fill-rule="evenodd" clip-rule="evenodd" d="M97.837 35.6325C97.8328 35.6283 97.8286 35.5463 97.8244 35.3913C97.8202 35.2195 97.8148 34.9939 97.8082 34.7078C97.7993 34.095 97.7867 33.2253 97.7705 32.1079L97.837 32.175C91.5557 32.2324 77.2378 32.2731 60.5923 32.2731H60.5905C60.9191 31.9434 60.6815 32.1822 60.7551 32.1085V32.1097V32.1133V32.1199V32.1343V32.163V32.2193V32.3324V32.5586V33.0087V33.9011C60.7551 34.4912 60.7545 35.0711 60.7545 35.6325L60.5905 35.4685C71.0062 35.4955 80.289 35.5206 86.9916 35.538C90.333 35.5583 93.0304 35.5751 94.9157 35.587C95.8368 35.5966 96.5586 35.6044 97.0721 35.6098C97.3061 35.6146 97.4922 35.6181 97.6371 35.6211C97.7657 35.6247 97.8334 35.6283 97.837 35.6325C97.8406 35.6361 97.7807 35.6397 97.6598 35.6439C97.5204 35.6463 97.3408 35.6505 97.1158 35.6553C96.6112 35.66 95.902 35.6678 94.9971 35.678C93.1208 35.6894 90.4365 35.7061 87.1113 35.7265C80.3781 35.7444 71.0541 35.769 60.5905 35.7965L60.4259 35.7971V35.6325C60.4259 35.0711 60.4259 34.4912 60.4253 33.9011V33.0087V32.5586V32.3324V32.2193V32.163V32.1343V32.1199V32.1133V32.1097V32.1085C60.499 32.0349 60.2607 32.2725 60.5905 31.9434H60.5923C77.2378 31.9434 91.5557 31.9835 97.837 32.0415L97.9046 32.0421L97.9034 32.1079C97.8872 33.2415 97.8747 34.1243 97.8657 34.7461C97.8591 35.0262 97.8537 35.2465 97.8501 35.4147C97.8453 35.5631 97.8412 35.6367 97.837 35.6325Z" fill="#E0E0E0"/>
<path fill-rule="evenodd" clip-rule="evenodd" d="M81.6602 52.4472H97.8364V37.7056H81.6602V52.4472Z" fill="#F5F5F5"/>
<path fill-rule="evenodd" clip-rule="evenodd" d="M97.837 52.4466C97.8316 52.4413 97.8268 52.3443 97.8214 52.1612C97.8172 51.9577 97.8118 51.6931 97.8052 51.3616C97.7963 50.6404 97.7843 49.6301 97.7687 48.3565C97.7508 45.7626 97.7262 42.1004 97.6969 37.705L97.837 37.845C93.1645 37.8522 87.6098 37.8606 81.6619 37.8696C81.6242 37.9049 81.9725 37.5584 81.8253 37.7074V37.711V37.7188V37.7343V37.766V37.8289V37.9546V38.2059V38.7063V39.701C81.8247 40.3617 81.8241 41.0159 81.8241 41.6641C81.8229 42.9604 81.8211 44.2298 81.8199 45.4675C81.8145 47.9399 81.8097 50.2831 81.8049 52.4466L81.6607 52.3018C86.4577 52.3323 90.4778 52.3575 93.329 52.3748C94.7325 52.391 95.8463 52.4041 96.6394 52.4131C97.0068 52.4203 97.2989 52.4257 97.5227 52.4299C97.7244 52.4353 97.8316 52.4413 97.837 52.4466C97.8423 52.452 97.7466 52.4574 97.5545 52.4628C97.3384 52.4676 97.0553 52.473 96.6998 52.4802C95.9146 52.4891 94.8109 52.5017 93.4218 52.5179C90.5478 52.5358 86.496 52.561 81.6607 52.5915L81.5159 52.5921V52.4466C81.5111 50.2831 81.5063 47.9399 81.5009 45.4675C81.4997 44.2298 81.4985 42.9604 81.4967 41.6641C81.4967 41.0159 81.4961 40.3617 81.4961 39.701C81.4961 39.3706 81.4955 39.039 81.4955 38.7063V38.2059V37.9546V37.8289V37.766V37.7343V37.7188V37.711V37.7074C81.3483 37.8528 81.696 37.5033 81.6619 37.5398C87.6098 37.5488 93.1645 37.5572 97.837 37.5643H97.9782L97.977 37.705C97.9477 42.1375 97.9231 45.8302 97.9052 48.4451C97.8896 49.7061 97.8776 50.7056 97.8687 51.419C97.8621 51.7392 97.8567 51.9948 97.8525 52.1923C97.8477 52.3652 97.8423 52.452 97.837 52.4466Z" fill="#E0E0E0"/>
<path fill-rule="evenodd" clip-rule="evenodd" d="M81.6602 62.1648H97.8364V54.7578H81.6602V62.1648Z" fill="#F5F5F5"/>
<path fill-rule="evenodd" clip-rule="evenodd" d="M97.8362 62.1649C97.8279 62.1565 97.8201 61.9715 97.8111 61.628C97.8033 61.2551 97.7932 60.7602 97.7812 60.1407C97.765 58.8336 97.7435 57.0034 97.7165 54.7578L97.8362 54.8775C93.6174 54.8889 87.9251 54.905 81.6612 54.9224C81.5128 55.0696 81.8599 54.7213 81.8246 54.7584V54.7602V54.7644V54.7716V54.7871V54.8177V54.8787V55.0002V55.2438V55.7286C81.8246 56.0506 81.824 56.3714 81.824 56.6898C81.8234 57.3272 81.8228 57.9562 81.8222 58.5756C81.8204 59.8145 81.818 61.0157 81.8162 62.1649L81.66 62.008C86.3253 62.0386 90.3394 62.0643 93.2272 62.0829C94.6415 62.1008 95.778 62.1152 96.5985 62.126C96.972 62.1343 97.2731 62.1403 97.5089 62.1457C97.7177 62.1523 97.8297 62.1583 97.8362 62.1649C97.8428 62.1714 97.7435 62.1774 97.546 62.184C97.3185 62.1894 97.0283 62.1954 96.668 62.2032C95.8564 62.2139 94.7318 62.2283 93.3331 62.2468C90.4184 62.2648 86.3678 62.2911 81.66 62.3211L81.5032 62.3223V62.1649C81.5014 61.0157 81.4996 59.8145 81.4972 58.5756C81.4966 57.9562 81.496 57.3272 81.4954 56.6898C81.4954 56.3714 81.4954 56.0506 81.4948 55.7286V55.2438V55.0002V54.8787V54.8177V54.7871V54.7716V54.7644V54.7602V54.7584C81.4589 54.7937 81.8072 54.4454 81.6612 54.5926C87.9251 54.61 93.6174 54.6261 97.8362 54.6381H97.9571L97.9559 54.7578C97.929 57.0339 97.9075 58.8887 97.8919 60.2131C97.8793 60.8218 97.8692 61.3078 97.8614 61.6741C97.8524 62.0039 97.8446 62.1732 97.8362 62.1649Z" fill="#E0E0E0"/>
<path fill-rule="evenodd" clip-rule="evenodd" d="M78.8002 37.7476C72.7841 46.0577 65.8618 53.8544 59.8457 62.1652L78.8002 37.7476Z" fill="white"/>
<path fill-rule="evenodd" clip-rule="evenodd" d="M59.8447 62.165C59.8357 62.1585 59.8908 62.0645 60.0033 61.8921C60.141 61.6904 60.3085 61.4445 60.5114 61.147C60.9555 60.503 61.621 59.5861 62.4571 58.4639C64.127 56.2178 66.5168 53.178 69.1933 49.8539C71.8704 46.528 74.2859 43.5146 76.0018 41.3067C76.8343 40.2318 77.5196 39.3472 78.0295 38.6889C78.2516 38.4064 78.4353 38.173 78.5867 37.9809C78.7172 37.8217 78.7896 37.7409 78.7992 37.7474C78.8088 37.754 78.7537 37.848 78.6406 38.0204C78.5029 38.2221 78.3354 38.468 78.1325 38.7649C77.6878 39.4095 77.0228 40.3258 76.1873 41.448C74.5175 43.6947 72.1271 46.7345 69.45 50.0598C66.7741 53.3845 64.358 56.3973 62.6421 58.6052C61.8096 59.6801 61.1249 60.5647 60.615 61.223C60.3923 61.5055 60.208 61.7395 60.0572 61.931C59.9267 62.0908 59.8543 62.1716 59.8447 62.165Z" fill="#E0E0E0"/>
<path fill-rule="evenodd" clip-rule="evenodd" d="M59.8457 37.7051L79.2814 62.1652L59.8457 37.7051Z" fill="white"/>
<path fill-rule="evenodd" clip-rule="evenodd" d="M79.2803 62.1645C79.2091 62.2214 74.7999 56.7912 69.4338 50.0377C64.0658 43.2819 59.7734 37.7619 59.8446 37.705C59.9164 37.6482 64.3238 43.0772 69.6917 49.833C75.0579 56.5859 79.3515 62.1083 79.2803 62.1645Z" fill="#E0E0E0"/>
<path fill-rule="evenodd" clip-rule="evenodd" d="M56.2858 37.7572C56.2858 39.4366 54.9248 40.7976 53.2455 40.7976C51.5661 40.7976 50.2051 39.4366 50.2051 37.7572C50.2051 36.0778 51.5661 34.7168 53.2455 34.7168C54.9248 34.7168 56.2858 36.0778 56.2858 37.7572Z" fill="#E0E0E0"/>
<path fill-rule="evenodd" clip-rule="evenodd" d="M106.013 30.3768C106.013 32.0562 104.652 33.4172 102.973 33.4172C101.293 33.4172 99.9316 32.0562 99.9316 30.3768C99.9316 28.6974 101.293 27.3364 102.973 27.3364C104.652 27.3364 106.013 28.6974 106.013 30.3768Z" fill="#E0E0E0"/>
<path fill-rule="evenodd" clip-rule="evenodd" d="M194.244 241.207V254.836H191.969V256.316H194.244V265.437H236.78V257.137H233.63V255.329H236.78V252.617H238.181V251.385H236.518V241.207H194.244Z" fill="#F5F5F5"/>
<path fill-rule="evenodd" clip-rule="evenodd" d="M225.484 241.247V265.285H236.78V256.985H233.629V255.329L236.78 255.385V252.673L238.208 252.675L238.18 251.273L236.518 251.233V241.207L225.484 241.247Z" fill="#E0E0E0"/>
<path fill-rule="evenodd" clip-rule="evenodd" d="M226.289 256.12C226.289 256.203 218.592 256.271 209.099 256.271C199.604 256.271 191.908 256.203 191.908 256.12C191.908 256.036 199.604 255.968 209.099 255.968C218.592 255.968 226.289 256.036 226.289 256.12Z" fill="#E0E0E0"/>
<path fill-rule="evenodd" clip-rule="evenodd" d="M226.289 254.735C226.289 254.819 218.592 254.886 209.099 254.886C199.604 254.886 191.908 254.819 191.908 254.735C191.908 254.651 199.604 254.584 209.099 254.584C218.592 254.584 226.289 254.651 226.289 254.735Z" fill="#E0E0E0"/>
<path fill-rule="evenodd" clip-rule="evenodd" d="M228.498 251.009C228.498 251.093 220.801 251.16 211.308 251.16C201.812 251.16 194.117 251.093 194.117 251.009C194.117 250.925 201.812 250.858 211.308 250.858C220.801 250.858 228.498 250.925 228.498 251.009Z" fill="#E0E0E0"/>
<path fill-rule="evenodd" clip-rule="evenodd" d="M228.711 261.163C228.711 261.247 221.014 261.314 211.521 261.314C202.026 261.314 194.33 261.247 194.33 261.163C194.33 261.079 202.026 261.011 211.521 261.011C221.014 261.011 228.711 261.079 228.711 261.163Z" fill="#E0E0E0"/>
<path fill-rule="evenodd" clip-rule="evenodd" d="M65.8171 197.966H98.2659C100.549 197.966 102.4 196.115 102.4 193.832V183.834C102.4 179.987 99.2816 176.867 95.4338 176.867H65.5723L65.8171 197.966Z" fill="#EBEBEB"/>
<path fill-rule="evenodd" clip-rule="evenodd" d="M97.724 204.254H33.9174C32.1811 204.254 30.7734 202.846 30.7734 201.11C30.7734 199.374 32.1811 197.966 33.9174 197.966H97.724C99.4603 197.966 100.868 199.374 100.868 201.11C100.868 202.846 99.4603 204.254 97.724 204.254Z" fill="#EBEBEB"/>
<path fill-rule="evenodd" clip-rule="evenodd" d="M20.9147 114.194L56.0167 113.572L78.2988 197.782L30.7732 198.259L12.8606 124.436C11.5948 119.219 15.5467 114.194 20.9147 114.194Z" fill="#E0E0E0"/>
<path fill-rule="evenodd" clip-rule="evenodd" d="M38.3996 204.254L27.8965 265.291H30.7735L44.5827 204.254H38.3996Z" fill="#EBEBEB"/>
<path fill-rule="evenodd" clip-rule="evenodd" d="M63.1589 204.254L51.998 265.291H54.875L69.3426 204.254H63.1589Z" fill="#E0E0E0"/>
<path fill-rule="evenodd" clip-rule="evenodd" d="M90.5444 204.254L102.996 265.291H100.119L84.3613 204.254H90.5444Z" fill="#EBEBEB"/>
<path fill-rule="evenodd" clip-rule="evenodd" d="M51.998 113.572L69.3689 197.872H82.6915L68.7608 123.385C67.7081 117.698 62.7483 113.572 56.965 113.572H51.998Z" fill="#EBEBEB"/>
<path fill-rule="evenodd" clip-rule="evenodd" d="M247.822 265.622C247.822 265.708 192.451 265.778 124.165 265.778C55.8557 265.778 0.498047 265.708 0.498047 265.622C0.498047 265.536 55.8557 265.466 124.165 265.466C192.451 265.466 247.822 265.536 247.822 265.622Z" fill="#263238"/>
<path fill-rule="evenodd" clip-rule="evenodd" d="M90.9593 265.795H45.1992L48.6615 232.483L90.9593 232.211V265.795Z" fill="#E8505B"/>
<path fill-rule="evenodd" clip-rule="evenodd" d="M90.9593 265.795H45.1992L48.6615 232.483L90.9593 232.211V265.795Z" fill="#F98B1B"/>
<path fill-rule="evenodd" clip-rule="evenodd" d="M51.8711 265.795H97.6312V232.211H51.8711V265.795Z" fill="#E8505B"/>
<path fill-rule="evenodd" clip-rule="evenodd" d="M51.8711 265.795H97.6312V232.211H51.8711V265.795Z" fill="#F99F1B"/>
<path fill-rule="evenodd" clip-rule="evenodd" d="M98.0198 248.468C98.0198 248.555 87.7238 248.625 75.0261 248.625C62.3235 248.625 52.0293 248.555 52.0293 248.468C52.0293 248.382 62.3235 248.313 75.0261 248.313C87.7238 248.313 98.0198 248.382 98.0198 248.468Z" fill="#263238"/>
<path fill-rule="evenodd" clip-rule="evenodd" d="M60.0236 251.702C59.9374 251.702 59.868 250.576 59.868 249.187C59.868 247.798 59.9374 246.672 60.0236 246.672C60.1097 246.672 60.1798 247.798 60.1798 249.187C60.1798 250.576 60.1097 251.702 60.0236 251.702Z" fill="#263238"/>
<path fill-rule="evenodd" clip-rule="evenodd" d="M91.823 251.522C91.7368 251.522 91.6668 250.517 91.6668 249.277C91.6668 248.037 91.7368 247.031 91.823 247.031C91.9092 247.031 91.9786 248.037 91.9786 249.277C91.9786 250.517 91.9092 251.522 91.823 251.522Z" fill="#263238"/>
<path fill-rule="evenodd" clip-rule="evenodd" d="M81.7637 232.383C81.7325 232.382 81.7559 232.021 81.6529 231.388C81.5494 230.761 81.2807 229.851 80.6397 228.905C80.0059 227.96 78.9896 226.998 77.6155 226.369C76.2497 225.733 74.5775 225.419 72.8334 225.464C71.0876 225.508 69.431 225.879 68.073 226.536C66.7102 227.187 65.6736 228.123 65.0194 229.055C64.3557 229.986 64.0349 230.875 63.8972 231.498C63.756 232.124 63.75 232.485 63.7201 232.483C63.7093 232.483 63.7045 232.394 63.7051 232.222C63.7063 232.05 63.7201 231.796 63.7787 231.474C63.8817 230.831 64.1779 229.904 64.8387 228.929C65.4881 227.953 66.548 226.963 67.9473 226.278C69.3412 225.585 71.0409 225.197 72.8257 225.153C74.6104 225.107 76.3311 225.437 77.7376 226.11C79.1524 226.773 80.1956 227.794 80.8234 228.784C81.4614 229.777 81.7044 230.724 81.7732 231.372C81.8098 231.697 81.8115 231.952 81.7978 232.122C81.7858 232.295 81.7744 232.383 81.7637 232.383Z" fill="#263238"/>
<path fill-rule="evenodd" clip-rule="evenodd" d="M64.5997 102.677C66.7333 101.577 69.2458 101.433 71.6141 101.825C72.8865 102.035 74.2134 102.416 75.0794 103.372C75.9454 104.328 76.1094 106.01 75.1147 106.831C74.5234 107.32 73.6981 107.394 72.9302 107.386C71.076 107.364 69.0184 107.037 67.5371 108.153C66.692 108.79 66.1294 109.848 65.1186 110.161C64.1298 110.467 63.0148 109.884 62.4905 108.991C61.9663 108.099 61.9483 106.983 62.1931 105.978C62.1931 105.978 62.4504 103.786 64.5997 102.677Z" fill="#F99F1B"/>
<path fill-rule="evenodd" clip-rule="evenodd" d="M59.7104 93.2411C61.0151 95.1043 63.5509 94.4878 64.7264 93.3501C65.9019 92.2129 66.3992 90.5646 66.8517 88.9924C67.8847 85.4008 68.9267 81.6326 68.1582 77.9752C67.9284 76.8817 67.5196 75.7913 66.7517 74.9803C65.9827 74.1687 64.8012 73.6863 63.7209 73.9718C62.4425 74.3094 61.6477 75.5615 61.0738 76.7531C59.386 80.2543 58.4918 84.1362 58.4787 88.0234C58.4721 89.8387 58.6863 91.7425 59.7104 93.2411Z" fill="#F99F1B"/>
<path fill-rule="evenodd" clip-rule="evenodd" d="M56.127 95.9147C57.5436 94.2335 57.8124 91.7814 57.1821 89.6753C56.5519 87.5692 55.1281 85.7779 53.4864 84.3145C51.5628 82.5998 49.3005 81.2652 46.8694 80.4099C45.9124 80.0736 44.9027 79.8084 43.8931 79.9048C42.8834 80.0011 41.8665 80.517 41.3955 81.4154C40.6989 82.7441 41.3668 84.3552 42.0886 85.6695C43.361 87.9845 44.8159 90.2002 46.4355 92.2877C47.7378 93.9677 49.2305 95.6244 51.2157 96.3833C53.2015 97.1422 55.264 97.053 56.3161 95.6764" fill="#F99F1B"/>
<path fill-rule="evenodd" clip-rule="evenodd" d="M59.6216 121.35C59.6461 121.351 59.6856 121.049 59.7395 120.503C59.7994 119.887 59.8748 119.113 59.9645 118.192C60.0717 117.22 60.2141 116.063 60.484 114.803C60.7534 113.546 61.1747 112.184 61.7163 110.802C62.2765 109.429 62.96 108.181 63.759 107.183C64.552 106.18 65.4743 105.455 66.3416 105.036C67.2052 104.609 67.9802 104.435 68.5159 104.359C69.0563 104.303 69.3592 104.261 69.3592 104.237C69.3598 104.213 69.0563 104.209 68.5015 104.224C67.9515 104.26 67.1441 104.4 66.2332 104.814C65.3199 105.219 64.3414 105.956 63.5095 106.979C62.671 107.998 61.9623 109.274 61.392 110.672C60.8413 112.077 60.426 113.454 60.1686 114.737C59.9125 116.019 59.7952 117.189 59.7186 118.17C59.6449 119.151 59.6174 119.946 59.6036 120.494C59.5917 121.044 59.5977 121.348 59.6216 121.35Z" fill="#263238"/>
<path fill-rule="evenodd" clip-rule="evenodd" d="M59.7808 119.572C59.7928 119.571 59.8 119.436 59.8036 119.178C59.8024 118.883 59.8018 118.512 59.8006 118.055C59.7976 117.08 59.7982 115.669 59.8502 113.927C59.9364 110.442 60.2369 106.692 60.8162 101.404C61.365 96.4331 62.1018 90.6468 62.8787 86.8852C63.0456 86.0294 63.2132 85.2591 63.3718 84.5852C63.522 83.9101 63.6507 83.3271 63.7752 82.8561C63.8817 82.412 63.9685 82.0505 64.0373 81.7639C64.0942 81.5131 64.1181 81.3796 64.1062 81.376C64.0948 81.373 64.0481 81.4999 63.9697 81.7447C63.8841 82.0272 63.7764 82.3833 63.6435 82.8214C63.4987 83.2882 63.3509 83.867 63.1815 84.5397C63.0049 85.2112 62.82 85.9797 62.6369 86.8337C61.8684 90.2422 61.0538 95.0063 60.4685 100.307C59.8879 105.605 59.6264 110.429 59.6037 113.922C59.5827 115.669 59.6198 117.083 59.6647 118.059C59.6922 118.515 59.715 118.886 59.7329 119.181C59.7527 119.438 59.7682 119.572 59.7808 119.572Z" fill="#263238"/>
<path fill-rule="evenodd" clip-rule="evenodd" d="M59.8042 110.267C59.8287 110.266 59.8246 109.849 59.7958 109.093C59.7527 108.339 59.6492 107.249 59.4367 105.914C59.2117 104.582 58.8969 103 58.4025 101.281C58.1883 100.495 57.6849 98.6122 56.4652 95.7993C54.8582 91.9874 52.6755 88.871 50.7764 86.9409C50.3306 86.4286 49.8344 86.0587 49.4382 85.6966C49.2323 85.523 49.051 85.3501 48.866 85.213C48.6805 85.0843 48.5075 84.9652 48.3471 84.8551C47.7223 84.4272 47.3722 84.2022 47.359 84.2219C47.3027 84.2985 48.7589 85.1556 50.5975 87.1115C52.4289 89.0632 54.5506 92.1586 56.1444 95.9381C57.0338 97.988 57.6532 99.817 58.0931 101.37C58.6006 103.072 58.9382 104.637 59.1931 105.956C59.4355 107.278 59.5762 108.357 59.6606 109.105C59.73 109.853 59.7803 110.267 59.8042 110.267Z" fill="#263238"/>
<path fill-rule="evenodd" clip-rule="evenodd" d="M50.8125 126.68L51.745 139.454H68.1546L69.0865 126.68H50.8125Z" fill="#5A5A5A"/>
<path fill-rule="evenodd" clip-rule="evenodd" d="M49.2266 126.68H71.0437V121.646H49.2266V126.68Z" fill="#5A5A5A"/>
<path fill-rule="evenodd" clip-rule="evenodd" d="M49.2266 138.965V140.361H50.2518H70.6834V138.965H49.2266Z" fill="#0864AA"/>
<path fill-rule="evenodd" clip-rule="evenodd" d="M51.2568 142.816L50.252 140.36H69.9019L68.73 142.816H51.2568Z" fill="#0864AA"/>
<path fill-rule="evenodd" clip-rule="evenodd" d="M68.7806 130.855C68.7842 130.858 68.7585 130.898 68.7046 130.972C68.6394 131.058 68.5586 131.166 68.4592 131.298C68.2258 131.596 67.9062 132.005 67.5034 132.521L67.4603 132.576L67.4196 132.519C66.8187 131.687 66.0161 130.577 65.0711 129.27H65.2064C64.5073 130.259 63.7293 131.361 62.8944 132.544L62.8214 132.647L62.7406 132.55C61.8871 131.535 60.9606 130.432 59.9982 129.287L60.1562 129.286C60.1084 129.345 60.0569 129.41 60.0054 129.475C59.1549 130.542 58.332 131.573 57.5534 132.549L57.4714 132.652L57.3965 132.545C56.5634 131.367 55.786 130.267 55.0827 129.272L55.2174 129.278C54.0773 130.577 53.1101 131.678 52.3686 132.525L52.3177 132.582L52.2794 132.517C51.9035 131.886 51.6043 131.383 51.387 131.018C51.2936 130.855 51.2182 130.724 51.1584 130.619C51.1081 130.528 51.0842 130.48 51.0884 130.477C51.0925 130.474 51.1249 130.517 51.1841 130.603C51.2506 130.705 51.3337 130.831 51.4373 130.987C51.6647 131.346 51.9795 131.839 52.3733 132.459L52.2848 132.452C53.0149 131.596 53.9659 130.481 55.0881 129.166L55.1588 129.083L55.2228 129.172C55.932 130.163 56.7167 131.258 57.5563 132.431L57.3995 132.427C58.1758 131.449 58.9969 130.416 59.8456 129.348C59.8971 129.283 59.9492 129.219 59.9964 129.159L60.0742 129.061L60.1544 129.156C61.1138 130.304 62.0379 131.408 62.889 132.425L62.7358 132.431C63.5797 131.255 64.3655 130.158 65.0711 129.174L65.1393 129.079L65.2064 129.174C66.1311 130.495 66.9169 131.617 67.5052 132.458L67.4214 132.455C67.8404 131.952 68.1737 131.553 68.4161 131.263C68.5239 131.138 68.6118 131.036 68.6819 130.955C68.7435 130.886 68.777 130.852 68.7806 130.855Z" fill="#E0E0E0"/>
<path fill-rule="evenodd" clip-rule="evenodd" d="M69.3134 126.596C69.3134 126.653 65.2017 126.698 60.1306 126.698C55.0584 126.698 50.9473 126.653 50.9473 126.596C50.9473 126.54 55.0584 126.494 60.1306 126.494C65.2017 126.494 69.3134 126.54 69.3134 126.596Z" fill="#455A64"/>
<path fill-rule="evenodd" clip-rule="evenodd" d="M70.1436 140.498C70.1436 140.555 65.6752 140.6 60.1642 140.6C54.6508 140.6 50.1836 140.555 50.1836 140.498C50.1836 140.441 54.6508 140.396 60.1642 140.396C65.6752 140.396 70.1436 140.441 70.1436 140.498Z" fill="#263238"/>
<path fill-rule="evenodd" clip-rule="evenodd" d="M155.043 143.101H203.088V140.765H155.043V143.101Z" fill="#263238"/>
<path fill-rule="evenodd" clip-rule="evenodd" d="M210.534 143.102L219.546 109.331H182.032L173.871 143.102H210.534Z" fill="#263238"/>
<path fill-rule="evenodd" clip-rule="evenodd" d="M176.119 140.545H209.633L217.433 110.891H183.747L176.119 140.545Z" fill="#0864AA"/>
<path fill-rule="evenodd" clip-rule="evenodd" d="M176.506 140.246H209.403L217.046 111.19H183.98L176.506 140.246ZM209.864 140.844H175.734L183.516 110.592H217.822L209.864 140.844Z" fill="#263238"/>
<path fill-rule="evenodd" clip-rule="evenodd" d="M56.0234 265.503H58.4498V149.658H56.0234V265.503Z" fill="#0864AA"/>
<path fill-rule="evenodd" clip-rule="evenodd" d="M58.4492 265.503H60.8761V149.991H58.4492V265.503Z" fill="#263238"/>
<path fill-rule="evenodd" clip-rule="evenodd" d="M205.508 265.503H207.935V149.658H205.508V265.503Z" fill="#0864AA"/>
<path fill-rule="evenodd" clip-rule="evenodd" d="M207.934 265.503H210.361V149.991H207.934V265.503Z" fill="#263238"/>
<path fill-rule="evenodd" clip-rule="evenodd" d="M27.8945 152.429H244.211V142.928H27.8945V152.429Z" fill="#0864AA"/>
<path fill-rule="evenodd" clip-rule="evenodd" d="M125.586 168.156H206.722V152.429H125.586V168.156Z" fill="#0864AA"/>
<path fill-rule="evenodd" clip-rule="evenodd" d="M169.77 159.207C169.77 160.205 168.961 161.015 167.962 161.015C166.964 161.015 166.154 160.205 166.154 159.207C166.154 158.208 166.964 157.399 167.962 157.399C168.961 157.399 169.77 158.208 169.77 159.207Z" fill="#263238"/>
<path fill-rule="evenodd" clip-rule="evenodd" d="M224.398 152.429C224.398 152.516 196.286 152.585 161.617 152.585C126.934 152.585 98.8281 152.516 98.8281 152.429C98.8281 152.343 126.934 152.273 161.617 152.273C196.286 152.273 224.398 152.343 224.398 152.429Z" fill="#263238"/>
<path fill-rule="evenodd" clip-rule="evenodd" d="M149.523 40.6265C149.846 40.6265 154.223 41.356 154.223 41.356L160.139 48.8116L161.03 50.2246L153.049 55.3268L149.523 50.1085L146.523 48.1634C146.523 48.1634 147.82 47.0286 149.685 47.839C151.548 48.6494 153.412 48.5686 153.412 48.5686L152.359 45.5701L149.117 44.9213L149.523 40.6265Z" fill="#FFBE9D"/>
<path fill-rule="evenodd" clip-rule="evenodd" d="M149.904 35.4039C150.431 35.2699 150.959 35.6158 151.044 36.1526C151.53 39.2116 152.994 48.4141 153.456 51.1307C153.532 51.5754 153.258 52.0009 152.823 52.1212L145.746 54.0789C145.228 54.222 144.705 53.8724 144.639 53.3398L142.736 38.0595C142.679 37.5974 142.974 37.1641 143.426 37.0498L149.904 35.4039Z" fill="#263238"/>
<path fill-rule="evenodd" clip-rule="evenodd" d="M145.167 52.1905L152.344 50.1909L150.441 37.4769C150.332 36.7504 149.616 36.2799 148.906 36.4685L143.154 37.9976L145.167 52.1905Z" fill="#EBEBEB"/>
<path fill-rule="evenodd" clip-rule="evenodd" d="M152.202 42.8906L148.973 45.3163C148.973 45.3163 149.241 46.165 149.732 46.2285C150.224 46.2925 152.825 45.5695 152.825 45.5695L152.202 42.8906Z" fill="#EB996E"/>
<path fill-rule="evenodd" clip-rule="evenodd" d="M151.81 40.9614L148.431 42.4403C148.431 42.4403 148.211 43.5422 149.479 43.3901L148.344 44.2011C148.344 44.2011 148.625 44.6925 150.04 44.7511C151.455 44.8092 152.824 42.8503 152.824 42.8503L151.81 40.9614Z" fill="#EB996E"/>
<path fill-rule="evenodd" clip-rule="evenodd" d="M155.166 44.7225C155.161 44.7686 154.755 44.686 154.304 44.2712C154.075 44.0749 153.836 43.8182 153.528 43.6195C153.22 43.4136 152.845 43.3184 152.458 43.4824C150.889 44.2784 149.56 44.9613 149.522 44.8715C149.495 44.8021 150.702 44.0228 152.349 43.1903C152.574 43.103 152.835 43.0635 153.075 43.1101C153.315 43.1538 153.517 43.2634 153.687 43.3813C154.029 43.6225 154.255 43.9043 154.456 44.1114C154.846 44.5453 155.178 44.6818 155.166 44.7225Z" fill="#D1734A"/>
<path fill-rule="evenodd" clip-rule="evenodd" d="M154.505 53.1503C154.455 53.2114 153.623 52.2184 153.47 50.6905C153.299 49.1643 153.903 48.0188 153.965 48.0685C154.057 48.0972 153.616 49.2254 153.78 50.6576C153.92 52.0922 154.589 53.1024 154.505 53.1503Z" fill="#D1734A"/>
<path fill-rule="evenodd" clip-rule="evenodd" d="M154.056 42.4503C154.017 42.4827 153.835 42.2307 153.402 42.0906C152.972 41.9368 152.327 41.9727 151.688 42.2875C151.048 42.591 150.494 42.98 150.038 43.1697C149.586 43.3708 149.274 43.3978 149.266 43.3583C149.255 43.314 149.532 43.2146 149.938 42.9734C150.35 42.7436 150.871 42.333 151.558 42.0045C151.902 41.8459 152.261 41.7399 152.603 41.7244C152.944 41.7088 153.25 41.7776 153.483 41.8854C153.961 42.1086 154.089 42.4402 154.056 42.4503Z" fill="#D1734A"/>
<path fill-rule="evenodd" clip-rule="evenodd" d="M153.803 63.6353L171.395 74.9289L166.733 88.2629C166.733 88.2629 154.694 84.548 154.92 84.1584C155.146 83.7682 153.803 63.6353 153.803 63.6353Z" fill="#989898"/>
<path fill-rule="evenodd" clip-rule="evenodd" d="M149.253 244.147L146.487 256.89C146.487 256.89 158.509 263.982 158.228 266.386L133.328 261.91L136.823 241.878L149.253 244.147Z" fill="#263238"/>
<path fill-rule="evenodd" clip-rule="evenodd" d="M133.326 261.909L133.758 259.904L157.47 264.946C157.47 264.946 158.491 265.628 158.226 266.386L133.326 261.909Z" fill="#455A64"/>
<path fill-rule="evenodd" clip-rule="evenodd" d="M120.934 245.55L120.523 258.583C120.523 258.583 133.632 263.377 133.79 265.793L108.492 265.904L108.299 245.571L120.934 245.55Z" fill="#263238"/>
<path fill-rule="evenodd" clip-rule="evenodd" d="M108.492 265.904L108.553 263.854L132.786 264.515C132.786 264.515 133.915 264.999 133.791 265.793L108.492 265.904Z" fill="#455A64"/>
<path fill-rule="evenodd" clip-rule="evenodd" d="M124.602 31.8507L127.18 61.7488L142.154 60.553C142.248 58.8047 142.122 52.0405 142.122 52.0405C142.122 52.0405 148.353 51.0721 148.43 44.8429C148.467 41.8175 148.034 35.5656 147.58 29.9331C147.075 23.6848 141.674 18.9853 135.415 19.351C128.934 19.7299 124.044 25.3827 124.602 31.8507Z" fill="#FFBE9D"/>
<path fill-rule="evenodd" clip-rule="evenodd" d="M142.132 51.9509C142.132 51.9509 138.196 52.2711 134.012 49.6431C134.012 49.6431 135.931 54.1258 142.147 53.565L142.132 51.9509Z" fill="#D1734A"/>
<path fill-rule="evenodd" clip-rule="evenodd" d="M145.166 34.2986C145.182 34.7684 144.799 35.17 144.308 35.1963C143.819 35.2221 143.408 34.8636 143.391 34.3937C143.375 33.9245 143.759 33.5223 144.248 33.496C144.738 33.4697 145.15 33.8288 145.166 34.2986Z" fill="#263238"/>
<path fill-rule="evenodd" clip-rule="evenodd" d="M146.248 33.0726C146.137 33.1887 145.463 32.6895 144.506 32.6925C143.55 32.6812 142.847 33.1737 142.744 33.0564C142.693 33.0043 142.805 32.7955 143.111 32.5728C143.412 32.3508 143.926 32.1353 144.522 32.1377C145.118 32.1407 145.62 32.3604 145.909 32.5854C146.203 32.811 146.303 33.0205 146.248 33.0726Z" fill="#263238"/>
<path fill-rule="evenodd" clip-rule="evenodd" d="M135.975 34.2986C135.991 34.7684 135.607 35.17 135.117 35.1963C134.628 35.2221 134.216 34.8636 134.2 34.3943C134.184 33.9245 134.567 33.5223 135.057 33.496C135.547 33.4697 135.958 33.8288 135.975 34.2986Z" fill="#263238"/>
<path fill-rule="evenodd" clip-rule="evenodd" d="M136.838 33.2508C136.728 33.3669 136.053 32.8684 135.097 32.8707C134.14 32.86 133.437 33.3519 133.334 33.2346C133.283 33.1832 133.394 32.9737 133.702 32.751C134.003 32.529 134.516 32.3135 135.112 32.3159C135.708 32.3189 136.21 32.5386 136.498 32.7636C136.792 32.9893 136.892 33.1993 136.838 33.2508Z" fill="#263238"/>
<path fill-rule="evenodd" clip-rule="evenodd" d="M140.311 40.3502C140.306 40.2957 140.901 40.1928 141.866 40.0695C142.11 40.0443 142.342 39.9959 142.383 39.8289C142.441 39.6523 142.338 39.389 142.219 39.1041C141.99 38.5128 141.749 37.8933 141.496 37.2434C140.493 34.5932 139.767 32.4141 139.874 32.3746C139.98 32.3351 140.881 34.4508 141.885 37.1009C142.127 37.7545 142.358 38.3775 142.577 38.9736C142.669 39.2513 142.829 39.5661 142.704 39.933C142.638 40.1156 142.459 40.2484 142.302 40.2903C142.145 40.3382 142.008 40.3406 141.887 40.3484C140.917 40.3999 140.315 40.4046 140.311 40.3502Z" fill="#263238"/>
<path fill-rule="evenodd" clip-rule="evenodd" d="M137.495 41.0123C137.651 41.0033 137.653 42.0423 138.542 42.7797C139.429 43.5194 140.537 43.4033 140.546 43.5482C140.56 43.6134 140.299 43.7498 139.831 43.763C139.373 43.7786 138.703 43.6313 138.159 43.1801C137.616 42.7276 137.383 42.1243 137.348 41.6982C137.308 41.2637 137.424 41.0063 137.495 41.0123Z" fill="#263238"/>
<path fill-rule="evenodd" clip-rule="evenodd" d="M137.086 29.4996C136.991 29.7599 136.035 29.6367 134.912 29.7719C133.786 29.885 132.881 30.2136 132.732 29.9802C132.665 29.8683 132.823 29.6235 133.189 29.3715C133.552 29.1201 134.131 28.8807 134.805 28.8059C135.479 28.7323 136.098 28.8389 136.506 29.0052C136.919 29.1716 137.126 29.3757 137.086 29.4996Z" fill="#263238"/>
<path fill-rule="evenodd" clip-rule="evenodd" d="M145.896 30.3021C145.728 30.5194 145.068 30.2938 144.275 30.2836C143.483 30.2447 142.811 30.429 142.656 30.2022C142.589 30.0915 142.694 29.8736 142.988 29.6677C143.276 29.463 143.761 29.2955 144.305 29.3116C144.85 29.329 145.322 29.5259 145.598 29.7485C145.878 29.9724 145.97 30.1962 145.896 30.3021Z" fill="#263238"/>
<path fill-rule="evenodd" clip-rule="evenodd" d="M131.364 25.0198C131.352 25.0288 131.341 25.0377 131.33 25.0467C130.338 25.8302 129.682 26.9637 129.508 28.2152C129.502 28.2595 129.496 28.3014 129.491 28.3409C129.247 30.1178 129.292 31.9253 129.031 33.6998C128.77 35.4738 128.155 37.2789 126.843 38.5016C126.303 39.0049 125.349 39.3509 124.905 38.7613C124.733 38.5333 124.705 38.2317 124.683 37.9474C124.352 33.6573 123.18 29.8509 123.188 25.3651C123.19 24.1442 123.764 22.998 124.757 22.287C125.696 21.6137 126.843 20.9159 127.886 21.4096C128.933 21.9046 130.283 23.8581 131.092 24.6858" fill="#263238"/>
<path fill-rule="evenodd" clip-rule="evenodd" d="M126.702 34.6694C126.595 34.6233 122.422 33.4036 122.558 37.6619C122.694 41.9208 126.941 40.9058 126.945 40.7837C126.949 40.661 126.702 34.6694 126.702 34.6694Z" fill="#FFBE9D"/>
<path fill-rule="evenodd" clip-rule="evenodd" d="M125.592 39.2113C125.573 39.1981 125.519 39.2657 125.396 39.3268C125.275 39.3866 125.067 39.4321 124.842 39.3561C124.387 39.2053 123.984 38.5033 123.94 37.7366C123.916 37.3494 123.986 36.9777 124.113 36.6677C124.233 36.3517 124.428 36.1278 124.653 36.0805C124.877 36.0207 125.041 36.1512 125.098 36.2691C125.158 36.387 125.134 36.4725 125.156 36.4791C125.169 36.4893 125.246 36.4049 125.206 36.2302C125.186 36.1464 125.132 36.047 125.03 35.9686C124.925 35.889 124.773 35.8513 124.616 35.8735C124.288 35.907 124.002 36.2182 123.862 36.5581C123.704 36.9011 123.617 37.3188 123.643 37.7533C123.698 38.611 124.163 39.3998 124.784 39.5584C125.086 39.6266 125.333 39.5285 125.459 39.4238C125.587 39.3142 125.606 39.2185 125.592 39.2113Z" fill="#D1734A"/>
<path fill-rule="evenodd" clip-rule="evenodd" d="M127.745 22.0691C126.696 20.3652 129.569 17.9185 131.671 17.256C133.773 16.5934 136.541 17.6181 138.633 18.3117C139.953 18.7498 141.268 19.3603 142.657 19.3028C143.589 19.2645 144.478 18.9258 145.357 18.6152C146.236 18.3039 147.152 18.0137 148.082 18.0771C149.012 18.1406 149.97 18.6355 150.323 19.4986C150.676 20.3616 150.17 21.5442 149.247 21.6723C150.425 21.0247 152.13 21.8758 152.321 23.2069C152.514 24.5379 151.118 25.8349 149.804 25.5482C150.41 25.0891 151.339 25.8468 151.264 26.6033C151.189 27.3593 150.503 27.9099 149.807 28.2157C148.031 28.9956 145.961 28.7466 144.123 28.1277C142.285 27.5089 140.579 26.5453 138.757 25.881C136.935 25.2166 133.883 24.0244 132.053 24.6696C130.707 25.1448 129.769 26.7667 129.009 26.4088C128.274 26.0623 127.807 25.2926 127.661 24.4936C127.514 23.6946 127.63 22.8735 127.745 22.0691Z" fill="#263238"/>
<path fill-rule="evenodd" clip-rule="evenodd" d="M149.76 21.5545C149.724 21.5336 149.54 21.8699 149.082 22.3667C148.625 22.8551 147.852 23.4979 146.716 23.8899C145.601 24.2795 144.085 24.4052 142.655 23.7259C141.206 23.0771 139.967 21.779 138.54 20.555C137.117 19.3209 135.437 18.4076 133.754 18.2562C132.08 18.0964 130.534 18.7105 129.681 19.6663C128.823 20.6316 128.651 21.7323 128.715 22.4188C128.747 22.7707 128.835 23.031 128.899 23.2016C128.975 23.3692 129.024 23.4512 129.036 23.4458C129.076 23.4326 128.899 23.0819 128.878 22.4104C128.866 21.7556 129.079 20.7334 129.899 19.8692C130.709 19.0157 132.153 18.4729 133.715 18.6416C135.286 18.8044 136.879 19.6717 138.269 20.8764C139.669 22.0722 140.946 23.4057 142.496 24.0796C144.04 24.7876 145.664 24.6159 146.818 24.1694C147.998 23.7205 148.772 23.0113 149.206 22.4744C149.422 22.2009 149.571 21.9759 149.65 21.8107C149.735 21.6491 149.772 21.5617 149.76 21.5545Z" fill="#455A64"/>
<path fill-rule="evenodd" clip-rule="evenodd" d="M125.617 34.4833C125.632 34.4977 125.8 34.3666 125.961 34.0284C126.124 33.6957 126.25 33.1468 126.173 32.4843C126.079 31.1125 124.866 29.6396 124.711 27.7442C124.617 26.8081 124.781 25.8948 125.182 25.2018C125.58 24.5111 126.204 24.061 126.765 23.8348C127.333 23.599 127.847 23.5972 128.187 23.6415C128.529 23.6959 128.713 23.7755 128.729 23.7414C128.739 23.7241 128.578 23.5912 128.221 23.4811C127.868 23.3817 127.3 23.3344 126.662 23.5559C126.031 23.7683 125.322 24.2316 124.849 25.0048C124.379 25.7709 124.191 26.7782 124.292 27.7837C124.379 28.7939 124.747 29.7079 125.113 30.468C125.478 31.231 125.782 31.9151 125.878 32.5256C126.103 33.7735 125.554 34.4629 125.617 34.4833Z" fill="#455A64"/>
<path fill-rule="evenodd" clip-rule="evenodd" d="M150.616 255.077C150.616 255.077 163.585 191.461 163.595 190.187L140.429 177.939L131.459 252.598L150.616 255.077Z" fill="#263238"/>
<path fill-rule="evenodd" clip-rule="evenodd" d="M121.444 257.209L139.358 146.948V123.166L113.414 125.018C113.105 125.946 106.564 257.355 106.564 257.355L109.09 257.209H121.444Z" fill="#263238"/>
<path fill-rule="evenodd" clip-rule="evenodd" d="M153.44 121.483L163.595 190.187L140.892 184.681L131.637 123.717L153.44 121.483Z" fill="#263238"/>
<path fill-rule="evenodd" clip-rule="evenodd" d="M158.508 148.897L157.355 139.544L158.508 148.897Z" fill="#E8505B"/>
<path fill-rule="evenodd" clip-rule="evenodd" d="M157.355 151.076C157.355 151.076 161.299 147.687 161.693 145.128C162.087 142.569 156.956 101.426 156.956 101.426L154.342 67.4179C154.342 68.0182 154.411 63.1326 153.622 62.8382C151.205 61.9368 146.308 60.2969 146.308 60.2969L143.498 57.7725C143.498 57.7725 148.546 79.3645 149.531 85.2693L157.355 151.076Z" fill="#989898"/>
<path fill-rule="evenodd" clip-rule="evenodd" d="M124.92 55.439L120.671 58.2663L104.733 64.5374L111.809 91.2352L110.863 106.718L109.954 116.562C109.954 116.562 105.212 140.937 101.021 155.75C101.021 155.75 105.694 164.608 109.538 165.844L111.136 166.793L116.833 125.072L121.725 118.471C122.193 117.837 122.633 117.187 123.045 116.515C124.246 114.558 126.985 110.11 129.168 106.68C132.051 102.149 135.757 91.8541 134.658 87.4611C133.561 83.0687 124.92 55.439 124.92 55.439Z" fill="#989898"/>
<path fill-rule="evenodd" clip-rule="evenodd" d="M114.092 147.478C117.814 144.472 120.934 140.721 123.212 136.513L114.092 147.478Z" fill="#263238"/>
<path fill-rule="evenodd" clip-rule="evenodd" d="M124.92 55.4388L128.757 80.0522C128.71 82.5503 128.23 86.0138 127.203 89.3319L120.356 111.459C120.356 111.459 114.977 123.53 116.833 125.072C118.689 126.613 133.174 125.072 133.174 125.072L152.768 122.228C153.677 122.097 154.322 121.274 154.233 120.361L151.323 90.3027C150.344 88.2265 149.941 83.9807 149.532 82.4689L143.499 57.7718L142.265 57.612L139.583 59.4536L138.172 59.5661L126.312 53.8301L124.92 55.4388Z" fill="#EBEBEB"/>
<path fill-rule="evenodd" clip-rule="evenodd" d="M121.347 108.258C124.513 98.3903 128.612 82.3457 128.612 82.3457C129.888 90.7385 128.491 99.3156 125.372 107.21C122.826 113.656 119.743 118.527 117.621 125.124L117.557 125.398C117.557 125.398 116.361 125.459 116.444 123.695C116.526 121.931 118.222 116.678 119.383 113.766C120.544 110.852 121.347 108.258 121.347 108.258Z" fill="#E0E0E0"/>
<path fill-rule="evenodd" clip-rule="evenodd" d="M140.265 61.5532H137.604L136.805 65.1957L139.134 68.0176L141.481 67.7836L142.246 65.1688L141.617 63.7084L140.265 61.5532Z" fill="#F99F1B"/>
<path fill-rule="evenodd" clip-rule="evenodd" d="M155.795 82.8377C156.636 83.0059 165.889 89.2309 169.254 88.5576C172.618 87.8848 175.338 84.7164 175.697 84.2915C177.604 82.0267 176.409 77.3321 175.86 75.5605C175.726 75.1254 175.541 74.7125 175.312 74.3192L161.028 49.7676L152.607 54.8842L161.347 70.8342L155.795 82.8377Z" fill="#989898"/>
<path fill-rule="evenodd" clip-rule="evenodd" d="M86.89 112.505C85.7259 109.595 85.9947 106.306 87.4089 103.509C89.3481 99.6731 92.4196 93.4751 93.0665 91.4426C94.0271 88.4225 102.976 65.2289 104.734 64.5376L112.536 90.7998L103.499 109.837L114.092 129.794L105.243 139.307C105.243 139.307 88.5365 116.014 87.1635 113.132C87.0654 112.926 86.9744 112.716 86.89 112.505Z" fill="#989898"/>
<path fill-rule="evenodd" clip-rule="evenodd" d="M114.489 145.364C116.421 143.545 117.861 141.735 118.911 140.142C118.886 140.078 118.882 140.023 118.905 139.982C118.938 139.923 119.005 139.891 119.086 139.872C119.667 138.967 120.126 138.143 120.475 137.438C118.995 136.475 117.062 135.02 119.165 134.72C121.752 134.352 123.603 133.094 123.866 132.406C124.129 131.718 123.267 131.1 122.585 131.539C122.035 131.895 120.932 132.202 120.095 132.399C119.404 132.561 118.691 132.611 117.986 132.533C117.164 132.441 113.795 130.98 113.207 130.872L106.906 137.506C106.906 137.506 111.742 142.633 114.489 145.364Z" fill="#FFBE9D"/>
<path fill-rule="evenodd" clip-rule="evenodd" d="M155.736 83.5678C155.715 83.5726 155.637 83.3093 155.516 82.8287C155.393 82.3487 155.236 81.649 155.063 80.7806C154.715 79.0432 154.329 76.6222 154.087 73.9272C153.849 71.2315 153.799 68.7801 153.834 67.0085C153.851 66.1227 153.88 65.4063 153.917 64.9126C153.952 64.4182 153.981 64.1453 154.002 64.1465C154.024 64.1471 154.035 64.4212 154.038 64.9156C154.043 65.4728 154.048 66.1742 154.054 67.0091C154.076 68.7753 154.16 71.2148 154.398 73.8996C154.639 76.5827 154.988 78.9983 155.28 80.7405C155.421 81.5634 155.541 82.2547 155.634 82.8041C155.719 83.2913 155.757 83.563 155.736 83.5678Z" fill="#263238"/>
<path fill-rule="evenodd" clip-rule="evenodd" d="M163.083 84.9876C163.079 84.9978 163.011 84.9804 162.883 84.938C162.755 84.8949 162.572 84.8141 162.348 84.686C161.907 84.4256 161.317 83.9307 160.828 83.1431C160.316 82.3626 160.018 81.2871 159.742 80.126C159.466 78.9553 159.199 77.6626 159.026 76.2795C158.774 73.512 158.564 71.0282 158.428 69.2184C158.369 68.3625 158.321 67.6443 158.282 67.0769C158.255 66.5712 158.25 66.2899 158.271 66.2881C158.293 66.2863 158.338 66.5634 158.403 67.0661C158.467 67.6317 158.549 68.3463 158.648 69.1998C158.839 70.9989 159.086 73.5018 159.335 76.2435C159.505 77.6039 159.763 78.8967 160.021 80.0614C160.283 81.2273 160.549 82.2674 161.017 83.0293C161.464 83.8014 162.006 84.3006 162.414 84.5836C162.827 84.8637 163.094 84.9613 163.083 84.9876Z" fill="#263238"/>
<path fill-rule="evenodd" clip-rule="evenodd" d="M158.239 66.3364C157.509 69.0925 157.004 71.9079 156.728 74.7459C156.563 76.4451 156.485 78.1951 156.996 79.8242C157.506 81.4527 158.714 82.955 160.364 83.3907C159.612 77.839 158.948 72.2759 158.369 66.7033" fill="black"/>
<path fill-rule="evenodd" clip-rule="evenodd" d="M109.232 120.146C109.232 120.146 112.036 125.887 113.585 128.892C116.817 115.539 112.717 101.487 114.054 87.8135L111.717 92.5231L111.057 103.423L110.554 109.816C110.554 109.816 110.079 116.692 109.232 120.146Z" fill="black"/>
<path fill-rule="evenodd" clip-rule="evenodd" d="M111.492 64.7781C111.511 64.7674 111.679 65.0331 111.967 65.5239C112.114 65.7681 112.287 66.0709 112.465 66.4348C112.645 66.7969 112.866 67.2021 113.062 67.6725C113.49 68.5984 113.921 69.7361 114.323 71.0235C114.708 72.3163 115.053 73.7622 115.286 75.3028C115.506 76.8457 115.592 78.33 115.595 79.6784C115.581 81.028 115.495 82.2418 115.352 83.2508C115.299 83.7578 115.204 84.2102 115.136 84.6088C115.07 85.008 114.993 85.348 114.921 85.6239C114.786 86.1769 114.702 86.4798 114.681 86.475C114.66 86.4702 114.705 86.1578 114.803 85.6C114.855 85.3211 114.915 84.9799 114.964 84.5801C115.016 84.1809 115.095 83.7302 115.133 83.2251C115.247 82.2202 115.31 81.0155 115.308 79.679C115.289 78.3431 115.195 76.875 114.978 75.3483C114.747 73.8233 114.414 72.3905 114.048 71.1055C113.665 69.8259 113.259 68.6905 112.861 67.7605C112.678 67.2877 112.473 66.8783 112.308 66.5114C112.146 66.1427 111.991 65.8333 111.861 65.5813C111.606 65.075 111.473 64.7889 111.492 64.7781Z" fill="#263238"/>
<path fill-rule="evenodd" clip-rule="evenodd" d="M103.393 109.993C103.348 110.02 102.953 109.359 102.173 108.405C101.394 107.462 100.205 106.199 98.6345 105.2C97.8475 104.714 96.9749 104.479 96.1944 104.613C95.414 104.732 94.7646 105.097 94.2595 105.434C93.251 106.131 92.695 106.675 92.6573 106.63C92.6435 106.615 92.768 106.467 93.0146 106.221C93.2624 105.978 93.6257 105.625 94.1332 105.253C94.6359 104.885 95.3015 104.477 96.1495 104.329C97 104.164 97.9756 104.423 98.7943 104.932C100.426 105.971 101.595 107.274 102.346 108.269C102.72 108.77 102.989 109.198 103.16 109.502C103.333 109.805 103.409 109.983 103.393 109.993Z" fill="#263238"/>
<path fill-rule="evenodd" clip-rule="evenodd" d="M101.435 103.702C101.502 103.66 102.279 104.899 102.829 106.606C103.387 108.311 103.486 109.77 103.407 109.776C103.315 109.789 103.081 108.374 102.533 106.703C101.994 105.029 101.353 103.745 101.435 103.702Z" fill="#263238"/>
<path fill-rule="evenodd" clip-rule="evenodd" d="M109.047 119.778C109.066 119.768 109.225 120.04 109.498 120.543C109.791 121.097 110.173 121.819 110.635 122.692C111.585 124.518 112.888 127.062 114.328 129.916L114.378 130.014L114.302 130.093C114.112 130.291 113.91 130.502 113.706 130.715C111.354 133.165 109.214 135.37 107.653 136.955C106.897 137.713 106.271 138.342 105.793 138.821C105.349 139.256 105.096 139.491 105.081 139.476C105.065 139.461 105.289 139.199 105.706 138.737C106.165 138.24 106.767 137.588 107.494 136.803C109.014 135.178 111.13 132.949 113.481 130.5C113.685 130.287 113.888 130.076 114.077 129.878L114.051 130.056C112.615 127.199 111.345 124.639 110.445 122.788C110.018 121.897 109.665 121.161 109.394 120.596C109.153 120.077 109.029 119.787 109.047 119.778Z" fill="#263238"/>
<path fill-rule="evenodd" clip-rule="evenodd" d="M120.704 107.732C120.694 107.732 120.689 107.553 120.69 107.215C120.694 106.85 120.7 106.356 120.707 105.736C120.737 104.421 120.779 102.571 120.83 100.298C120.897 98.0013 120.947 95.2691 121.073 92.2312C121.219 89.2009 121.465 85.8338 122.414 82.4313C122.884 80.7483 123.512 79.1473 124.303 77.6978L124.416 77.9222C123.651 77.8085 122.983 77.3788 122.504 76.8371C122.019 76.2961 121.69 75.6419 121.505 74.9782C121.135 73.6387 121.206 72.3179 121.193 71.1017C121.195 68.6616 121.196 66.4879 121.197 64.6636C121.208 62.8717 121.217 61.427 121.223 60.3981C121.232 59.9199 121.238 59.5393 121.244 59.252C121.251 58.9905 121.26 58.854 121.269 58.854C121.279 58.854 121.289 58.9905 121.299 59.2514C121.307 59.5393 121.317 59.9193 121.33 60.3975C121.346 61.4264 121.368 62.8705 121.396 64.6624C121.414 66.4867 121.435 68.6604 121.46 71.1005C121.48 72.3209 121.424 73.6256 121.785 74.898C121.964 75.5294 122.273 76.1345 122.726 76.6366C123.173 77.1388 123.781 77.52 124.459 77.6194L124.676 77.6517L124.571 77.8438C123.796 79.2736 123.179 80.8519 122.714 82.5151C121.776 85.8775 121.52 89.2231 121.36 92.2449C121.219 95.2745 121.145 98.0103 121.051 100.304C120.958 102.577 120.882 104.426 120.828 105.74C120.797 106.36 120.771 106.852 120.752 107.218C120.731 107.555 120.715 107.732 120.704 107.732Z" fill="#263238"/>
<path fill-rule="evenodd" clip-rule="evenodd" d="M146.355 60.6763C146.365 60.6733 146.412 60.7859 146.494 61.0049C146.583 61.2527 146.698 61.5723 146.841 61.9685C147.142 62.8453 147.56 64.0602 148.075 65.5595C148.593 67.0976 149.208 68.9231 149.895 70.9633C150.224 71.997 150.632 73.0491 150.938 74.2192C151.075 74.8051 151.153 75.4455 151.014 76.0823C150.882 76.7066 150.544 77.3452 149.947 77.7108L149.995 77.493C150.502 78.2423 151.033 79.0347 151.531 79.8702C152.266 81.1115 152.883 82.4061 153.207 83.7455C153.534 85.0879 153.534 86.425 153.478 87.6693C153.332 90.159 153.167 92.3896 153.039 94.2683C152.902 96.1189 152.79 97.6283 152.71 98.714C152.666 99.2131 152.631 99.6141 152.605 99.9212C152.577 100.197 152.558 100.341 152.547 100.341C152.536 100.34 152.535 100.195 152.542 99.917C152.554 99.6093 152.57 99.2072 152.589 98.7062C152.645 97.6193 152.723 96.1075 152.819 94.2546C152.926 92.3657 153.051 90.1321 153.191 87.6567C153.239 86.422 153.231 85.1143 152.91 83.8179C152.592 82.5204 151.989 81.2551 151.262 80.0294C150.772 79.2041 150.243 78.4153 149.739 77.6653L149.649 77.5313L149.786 77.4475C150.289 77.1429 150.595 76.5863 150.717 76.0183C150.845 75.4449 150.779 74.8506 150.65 74.2862C150.36 73.1592 149.953 72.0778 149.634 71.0495C148.973 69.0009 148.38 67.1683 147.88 65.6235C147.402 64.1129 147.014 62.8872 146.735 62.0032C146.613 61.5998 146.516 61.2748 146.44 61.0229C146.375 60.7984 146.346 60.6793 146.355 60.6763Z" fill="#263238"/>
<path fill-rule="evenodd" clip-rule="evenodd" d="M123.059 135.033C123.077 135.046 122.979 135.22 122.786 135.522C122.594 135.826 122.305 136.258 121.938 136.785C121.207 137.839 120.159 139.272 118.948 140.812C117.736 142.353 116.591 143.708 115.739 144.668C115.312 145.148 114.962 145.531 114.712 145.789C114.462 146.048 114.317 146.184 114.3 146.169C114.267 146.14 114.763 145.52 115.57 144.525C116.378 143.53 117.494 142.156 118.703 140.619C119.911 139.083 120.984 137.675 121.761 136.655C122.537 135.636 123.023 135.008 123.059 135.033Z" fill="#455A64"/>
<path fill-rule="evenodd" clip-rule="evenodd" d="M132.436 127.309C132.436 127.309 132.433 127.424 132.411 127.646C132.387 127.88 132.351 128.206 132.306 128.631C132.206 129.509 132.062 130.783 131.876 132.418C131.488 135.704 130.903 140.458 130.139 146.325C128.624 158.063 126.324 174.249 123.855 192.133C122.624 201.08 121.493 209.607 120.529 217.371C120.279 219.313 120.081 221.209 119.806 223.046C119.525 224.877 119.253 226.655 118.989 228.375C118.468 231.814 117.983 235.018 117.539 237.944C116.66 243.795 115.966 248.532 115.51 251.809C115.283 253.448 115.115 254.721 115.015 255.586C114.965 256.018 114.931 256.348 114.917 256.571C114.91 256.681 114.907 256.766 114.914 256.82C114.921 256.892 114.954 256.816 114.952 256.829C114.952 256.829 114.951 256.837 114.943 256.85C114.936 256.875 114.895 256.856 114.898 256.823C114.886 256.766 114.884 256.681 114.885 256.569C114.889 256.345 114.912 256.013 114.952 255.579C115.033 254.711 115.181 253.435 115.39 251.793C115.808 248.51 116.47 243.768 117.321 237.912C117.753 234.984 118.226 231.778 118.734 228.337C118.992 226.617 119.26 224.837 119.536 223.005C119.804 221.176 119.998 219.275 120.243 217.336C121.193 209.569 122.315 201.038 123.546 192.091C126.016 174.205 128.35 158.025 129.921 146.297C130.694 140.439 131.32 135.695 131.755 132.403C131.966 130.772 132.13 129.5 132.245 128.623C132.302 128.201 132.348 127.875 132.379 127.642C132.412 127.421 132.436 127.309 132.436 127.309Z" fill="#455A64"/>
<path fill-rule="evenodd" clip-rule="evenodd" d="M146.092 254.487C146.092 254.487 146.101 254.375 146.134 254.16C146.171 253.934 146.223 253.617 146.289 253.207C146.434 252.358 146.645 251.127 146.915 249.548C147.474 246.36 148.278 241.768 149.272 236.099C151.294 224.738 154.084 209.062 157.166 191.748C157.391 190.681 157.47 189.601 157.357 188.535C157.222 187.472 157.044 186.397 156.887 185.342C156.56 183.225 156.237 181.139 155.92 179.09C155.275 174.993 154.638 171.043 154.01 167.285C152.761 159.766 151.554 153.009 150.476 147.348C149.396 141.687 148.449 137.12 147.727 133.979C147.387 132.404 147.079 131.191 146.888 130.365C146.794 129.961 146.722 129.648 146.67 129.424C146.623 129.212 146.606 129.101 146.606 129.101C146.606 129.101 146.644 129.206 146.701 129.416C146.76 129.637 146.842 129.948 146.949 130.349C147.16 131.171 147.487 132.38 147.846 133.951C148.604 137.086 149.584 141.649 150.692 147.306C151.798 152.965 153.028 159.72 154.294 167.237C154.93 170.995 155.572 174.946 156.221 179.042C156.54 181.092 156.865 183.178 157.194 185.295C157.351 186.357 157.527 187.412 157.667 188.503C157.783 189.599 157.7 190.726 157.472 191.81C154.355 209.115 151.534 224.783 149.489 236.139C148.454 241.8 147.616 246.386 147.034 249.569C146.739 251.144 146.51 252.371 146.351 253.218C146.271 253.626 146.21 253.94 146.165 254.166C146.122 254.379 146.092 254.487 146.092 254.487Z" fill="#455A64"/>
<path fill-rule="evenodd" clip-rule="evenodd" d="M139.358 146.169C139.443 146.183 138.385 153.307 136.995 162.078C135.605 170.853 134.408 177.952 134.323 177.939C134.238 177.926 135.296 170.804 136.687 162.029C138.077 153.258 139.273 146.156 139.358 146.169Z" fill="#455A64"/>
<path fill-rule="evenodd" clip-rule="evenodd" d="M121.659 257.01C121.661 257.032 121.452 257.067 121.073 257.113C120.693 257.158 120.143 257.21 119.463 257.264C118.102 257.37 116.217 257.47 114.134 257.505C112.05 257.539 110.163 257.501 108.799 257.44C108.117 257.409 107.566 257.375 107.185 257.342C106.805 257.309 106.595 257.281 106.596 257.259C106.597 257.214 107.441 257.214 108.804 257.219C110.168 257.224 112.05 257.227 114.128 257.194C116.207 257.158 118.088 257.094 119.45 257.043C120.812 256.994 121.656 256.966 121.659 257.01Z" fill="#455A64"/>
<path fill-rule="evenodd" clip-rule="evenodd" d="M150.616 255.077C150.613 255.098 150.343 255.084 149.856 255.039C149.307 254.981 148.617 254.907 147.797 254.82C146.06 254.622 143.664 254.327 141.019 253.984C138.373 253.64 135.981 253.312 134.251 253.061C133.436 252.937 132.751 252.832 132.205 252.749C131.722 252.67 131.457 252.617 131.459 252.598C131.461 252.573 131.733 252.586 132.22 252.629C132.707 252.671 133.411 252.745 134.279 252.842C136.017 253.037 138.414 253.331 141.059 253.674C143.704 254.018 146.096 254.348 147.826 254.601C148.641 254.728 149.326 254.834 149.872 254.919C150.354 255 150.619 255.056 150.616 255.077Z" fill="#455A64"/>
<path fill-rule="evenodd" clip-rule="evenodd" d="M125.348 59.4163C125.361 59.3995 125.597 59.5521 126.011 59.843C126.478 60.1668 127.067 60.5756 127.771 61.0634C129.262 62.0844 131.352 63.4532 133.746 64.8207C134.643 65.3355 135.519 65.8143 136.331 66.2434L136.117 66.3397C136.619 64.3563 137.062 62.6512 137.388 61.4434C137.544 60.885 137.676 60.4158 137.782 60.0333C137.879 59.706 137.94 59.5312 137.957 59.5354C137.974 59.5396 137.946 59.7227 137.879 60.0573C137.795 60.4457 137.692 60.9215 137.569 61.4883C137.294 62.708 136.889 64.4233 136.407 66.4116L136.362 66.5947L136.193 66.5073C135.374 66.0848 134.492 65.6078 133.59 65.0913C131.187 63.7177 129.107 62.3136 127.644 61.2435C126.91 60.7102 126.333 60.2578 125.938 59.94C125.546 59.6192 125.335 59.4336 125.348 59.4163Z" fill="#263238"/>
<path fill-rule="evenodd" clip-rule="evenodd" d="M145.127 63.8226C145.161 63.8795 144.064 64.6168 142.482 65.6092L142.349 65.693L142.277 65.5511C142.022 65.0567 141.751 64.5289 141.467 63.9782C140.848 62.7567 140.302 61.6435 139.922 60.8301C139.541 60.018 139.325 59.5057 139.364 59.4859C139.403 59.4668 139.688 59.9438 140.119 60.7308C140.55 61.5184 141.126 62.6155 141.745 63.8364C142.022 64.3912 142.287 64.9215 142.536 65.4188L142.331 65.3608C143.935 64.4068 145.092 63.7658 145.127 63.8226Z" fill="#263238"/>
<path fill-rule="evenodd" clip-rule="evenodd" d="M141.207 63.2383C141.218 63.2521 141.016 63.4089 140.682 63.6507C140.348 63.8931 139.882 64.221 139.363 64.5765C138.843 64.9326 138.369 65.2487 138.022 65.4725C137.676 65.6957 137.457 65.8268 137.448 65.8124C137.438 65.7981 137.64 65.6407 137.974 65.3983C138.308 65.1565 138.774 64.8291 139.292 64.4736C139.81 64.1187 140.284 63.8027 140.631 63.5794C140.977 63.3556 141.197 63.2245 141.207 63.2383Z" fill="#263238"/>
<path fill-rule="evenodd" clip-rule="evenodd" d="M139.409 64.4757C139.386 64.5008 138.865 64.0082 138.246 63.3744C137.626 62.7406 137.145 62.2086 137.171 62.1858C137.197 62.1631 137.718 62.6562 138.335 63.2877C138.951 63.9179 139.433 64.4505 139.409 64.4757Z" fill="#263238"/>
<path fill-rule="evenodd" clip-rule="evenodd" d="M128.135 117.569C128.239 117.552 128.207 119.658 129.372 121.882C130.504 124.125 132.237 125.324 132.162 125.398C132.143 125.426 131.689 125.173 131.067 124.614C130.445 124.058 129.684 123.164 129.095 122.025C128.511 120.884 128.227 119.745 128.137 118.916C128.043 118.084 128.101 117.568 128.135 117.569Z" fill="#263238"/>
<path fill-rule="evenodd" clip-rule="evenodd" d="M131.615 125.454C131.609 125.531 130.259 125.396 128.764 124.689C127.265 123.991 126.3 123.038 126.356 122.984C126.415 122.91 127.443 123.731 128.897 124.406C130.345 125.094 131.633 125.361 131.615 125.454Z" fill="#263238"/>
<path fill-rule="evenodd" clip-rule="evenodd" d="M143.314 106.297C143.335 106.292 143.412 106.521 143.535 106.94C143.659 107.357 143.819 107.968 144.003 108.726C144.371 110.24 144.806 112.352 145.156 114.706C145.505 117.062 145.7 119.21 145.788 120.766C145.833 121.545 145.856 122.175 145.859 122.611C145.863 123.047 145.855 123.288 145.834 123.289C145.812 123.291 145.779 123.051 145.738 122.618C145.692 122.118 145.635 121.505 145.569 120.783C145.424 119.235 145.195 117.099 144.848 114.752C144.499 112.407 144.099 110.297 143.788 108.773C143.642 108.063 143.518 107.46 143.417 106.968C143.331 106.542 143.293 106.303 143.314 106.297Z" fill="#263238"/>
<path fill-rule="evenodd" clip-rule="evenodd" d="M139.326 68.6299C138.548 74.8471 137.971 88.3947 137.757 94.6569C137.577 99.9015 137.596 105.15 137.616 110.398C137.621 112.088 137.64 113.837 138.336 115.378C139.587 118.147 142.646 119.537 145.456 120.693L139.326 68.6299Z" fill="#E0E0E0"/>
<path fill-rule="evenodd" clip-rule="evenodd" d="M146.319 119.795L149.533 111.916L141.481 67.7832L139.135 68.0178C139.135 68.0178 139.462 113.886 139.359 114.3L146.319 119.795Z" fill="#F99F1B"/>
<path fill-rule="evenodd" clip-rule="evenodd" d="M141.395 67.7867C141.4 67.8196 140.903 67.9237 140.28 67.9686C139.657 68.0147 139.15 67.9842 139.15 67.9507C139.15 67.9153 139.653 67.8896 140.271 67.8441C140.888 67.7992 141.389 67.7514 141.395 67.7867Z" fill="#263238"/>
</g>
<path fill-rule="evenodd" clip-rule="evenodd" d="M197.692 131.545L196.407 135H205.715L207 131.545H197.692ZM194.635 135L201.725 116H191.09L184 135H194.635Z" fill="#FFFFFD"/>
</svg>
