<?xml version="1.0" encoding="utf-8"?><svg xmlns="http://www.w3.org/2000/svg" xmlns:xlink="http://www.w3.org/1999/xlink"><symbol viewBox="0 0 67 67" id="add" xmlns="http://www.w3.org/2000/svg"><path d="M40.679 27.518a1.197 1.197 0 0 1-1.197-1.197V0H27.518v26.321c0 .661-.536 1.197-1.197 1.197H0v11.964h26.321c.661 0 1.197.536 1.197 1.197V67h11.964V40.679c0-.661.536-1.197 1.197-1.197H67V27.518H40.679z"/></symbol><symbol viewBox="0 0 10 17" id="arrow-next" xmlns="http://www.w3.org/2000/svg"><path d="M1.889 0L0 1.889l6.12 6.12L0 14.128l1.889 1.888 8.008-8.009L1.89 0z"/></symbol><symbol viewBox="0 0 11 16" id="contacts-address" xmlns="http://www.w3.org/2000/svg"><path d="M5.501 0C2.463 0 0 2.417 0 5.4c0 1.525 1.515 4.258 1.515 4.258L5.298 16l3.948-6.268S11 7.124 11 5.399C11 2.417 8.538 0 5.501 0zm-.026 8.373c-1.74 0-3.149-1.392-3.149-3.113 0-1.719 1.409-3.11 3.15-3.11 1.738 0 3.15 1.391 3.15 3.11 0 1.72-1.412 3.113-3.15 3.113z"/></symbol><symbol viewBox="0 0 13 13" id="contacts-email" xmlns="http://www.w3.org/2000/svg"><path d="M1.863 11.177a6.322 6.322 0 0 0 2.128 1.341A7.68 7.68 0 0 0 6.733 13c1.112 0 2.138-.168 3.06-.513.836-.304.116-1.844-.498-1.592-.677.282-1.503.429-2.446.429a5.781 5.781 0 0 1-2.011-.335 4.386 4.386 0 0 1-1.535-.943 4.29 4.29 0 0 1-.995-1.487c-.244-.587-.36-1.257-.36-1.99 0-.692.116-1.352.35-1.939.232-.586.55-1.11.973-1.53a4.425 4.425 0 0 1 1.503-1.015 5.092 5.092 0 0 1 1.959-.367c.667 0 1.28.094 1.831.262a3.78 3.78 0 0 1 1.398.775c.392.346.699.765.92 1.268.223.503.33 1.09.33 1.76a4.6 4.6 0 0 1-.128 1.1c-.085.324-.19.618-.339.848-.137.22-.296.398-.487.524-.222.146-.55.23-.804.146-.318-.104-.254-.544-.233-.806.032-.356.127-.691.2-1.037.117-.566.244-1.121.36-1.676.064-.304.138-.618.202-.922a.634.634 0 0 0-.625-.765h-.465a.635.635 0 0 0-.615.461c-.031.126-.063.23-.063.23-.233-.712-1.09-.91-1.768-.9-.89.01-1.704.46-2.297 1.1-.053.062-.117.125-.17.188a4.03 4.03 0 0 0-.698 1.247c-.17.482-.254.974-.254 1.477 0 .43.063.838.18 1.204.127.378.306.702.54.975.232.272.529.492.878.65.35.156.741.24 1.165.24.317 0 .614-.052.878-.146a3.28 3.28 0 0 0 .688-.346c.16-.105.307-.23.424-.346.074.136.159.251.275.367.297.314.752.471 1.355.471a3.44 3.44 0 0 0 1.377-.283 3.258 3.258 0 0 0 1.153-.859c.318-.377.583-.838.773-1.382.19-.545.286-1.174.286-1.865 0-.943-.18-1.78-.53-2.483a5.199 5.199 0 0 0-1.418-1.77C10.47.954 9.792.608 9.041.367A7.132 7.132 0 0 0 6.733 0c-.921 0-1.8.168-2.615.492A6.844 6.844 0 0 0 1.98 1.865 6.356 6.356 0 0 0 .53 3.928 6.359 6.359 0 0 0 0 6.516c0 .932.159 1.812.487 2.598a5.908 5.908 0 0 0 1.376 2.063zm5.727-4.4c-.074.283-.18.556-.328.807a1.9 1.9 0 0 1-.56.597c-.213.147-.467.22-.784.22a.886.886 0 0 1-.477-.115.908.908 0 0 1-.307-.325 1.518 1.518 0 0 1-.169-.46 2.563 2.563 0 0 1-.053-.462c0-.293.042-.586.127-.89a2.74 2.74 0 0 1 .36-.796c.159-.23.339-.42.561-.566a1.18 1.18 0 0 1 .688-.199c.212 0 .381.032.508.105a.883.883 0 0 1 .307.283c.085.126.138.272.18.43.043.177.064.366.064.544-.01.262-.042.534-.117.828z"/></symbol><symbol viewBox="0 0 11 12" id="contacts-tel" xmlns="http://www.w3.org/2000/svg"><path d="M4.265 6.048c.298.364.567.63.564.629A8.752 8.752 0 0 0 6.27 8.1c.366.288.94.325 1.253.127.312-.198.912-.6 1.36-.498.378.086.878.375 1.48 1.116 1.42 1.748.148 2.294-.733 2.999-.883.704-3.794-1.04-6.46-3.884C.5 5.117-.504 2.176.234 1.31.974.444 1.59-.84 3.158.765c.666.68.905 1.221.96 1.62.065.474-.363 1.068-.575 1.378-.212.31-.218.91.03 1.313.219.355.453.679.692.972z"/></symbol><symbol viewBox="0 0 20 24" id="docs" xmlns="http://www.w3.org/2000/svg"><path d="M.008 4.618v19.017c0 .202.164.365.366.365H14.27a.366.366 0 0 0 .365-.365V8.275c0-.008-.004-.015-.004-.023a.346.346 0 0 0-.019-.094l-.012-.035a.36.36 0 0 0-.073-.107L10.87 4.36a.355.355 0 0 0-.236-.104l-.021-.003H.374a.366.366 0 0 0-.366.366zm13.38 3.291h-2.409V5.5l2.409 2.409zM.739 4.983h9.509v3.292c0 .202.164.365.366.365h3.291v14.63H.739V4.982zm14.628 16.092v.731h1.097a.366.366 0 0 0 .366-.366V2.424a.366.366 0 0 0-.366-.365H2.567a.366.366 0 0 0-.366.365V3.52h.732v-.73h13.165v18.286h-.731zm2.601-2.058v.732h1.098a.366.366 0 0 0 .365-.366V.366A.366.366 0 0 0 19.066 0H5.168a.366.366 0 0 0-.365.366v1.097h.731V.73H18.7v18.286h-.732zM2.934 9.371h8.777v.731H2.934v-.73zm0-2.194h2.925v.731H2.934v-.731zm0 4.388h5.851v.732H2.934v-.732zm6.582 0h2.194v.732H9.516v-.732zM2.934 13.76h8.777v.731H2.934v-.731zm0 4.388h8.777v.732H2.934v-.732zm3.29-2.194h5.486v.732H6.225v-.732zm-3.29 0h2.56v.732h-2.56v-.732zm0 4.389h1.462v.731H2.934v-.731zm2.193 0h6.583v.731H5.127v-.731z"/></symbol><symbol viewBox="0 0 26 26" id="download" xmlns="http://www.w3.org/2000/svg"><path d="M20.998 7.359a8.135 8.135 0 0 0-15.955-.005 5.694 5.694 0 0 0 .656 11.35h4.067a.813.813 0 1 0 0-1.626H5.7a4.068 4.068 0 0 1 .048-8.135.813.813 0 0 0 .808-.724 6.508 6.508 0 0 1 12.93 0 .86.86 0 0 0 .856.724 4.067 4.067 0 1 1 0 8.135h-4.067a.813.813 0 1 0 0 1.627h4.067a5.694 5.694 0 0 0 .657-11.346zm-5.102 13.014l-2.063 2.063V12.198a.813.813 0 1 0-1.626 0v10.238l-2.063-2.063a.813.813 0 1 0-1.15 1.15l3.45 3.45a.816.816 0 0 0 1.152 0l3.45-3.45a.813.813 0 1 0-1.13-1.17l-.02.02z"/></symbol><symbol viewBox="0 0 8 8" id="edit" xmlns="http://www.w3.org/2000/svg"><path d="M0 6.332V8h1.667l4.917-4.918-1.666-1.666L0 6.332zm7.869-5.164L6.83.13a.445.445 0 0 0-.629 0l-.813.813L7.055 2.61l.814-.813a.445.445 0 0 0 0-.63z"/></symbol><symbol viewBox="0 0 13 16" id="file" xmlns="http://www.w3.org/2000/svg"><path fill-rule="evenodd" clip-rule="evenodd" d="M.018 2.833h2.455V0h10.322v13.435H9.833L7.268 16H.018V2.833zm7.555 10.602v.784l.784-.784h-.784zm1.522-1.044H6.53v2.566H1.061V3.877h8.034v8.514zm2.656-11.348H3.517v1.79h6.622v9.558h1.612V1.043z"/></symbol><symbol viewBox="0 0 16 16" id="filter" xmlns="http://www.w3.org/2000/svg"><path d="M15.14 0H.875a.67.67 0 0 0-.597.364.68.68 0 0 0 .053.707l5.226 7.362.005.007c.19.257.293.567.294.886v6.002a.667.667 0 0 0 .93.62l2.937-1.12c.263-.08.438-.33.438-.628V9.326c0-.319.103-.63.293-.886l.005-.007 5.226-7.362a.679.679 0 0 0 .053-.707A.67.67 0 0 0 15.14 0zM9.8 7.96c-.292.395-.45.874-.45 1.366v4.775l-2.681 1.022V9.326a2.311 2.311 0 0 0-.451-1.367L1.143.812h13.73L9.799 7.96z"/></symbol><symbol viewBox="0 0 54 37" id="icon-next" xmlns="http://www.w3.org/2000/svg"><path d="M53.264 16.732l-16.07-16a2.519 2.519 0 0 0-3.55 0c-.98.977-.98 2.56 0 3.536L45.427 16H2.511A2.506 2.506 0 0 0 0 18.5C0 19.88 1.124 21 2.51 21h42.917L33.644 32.732c-.98.977-.98 2.56 0 3.536A2.51 2.51 0 0 0 35.42 37a2.51 2.51 0 0 0 1.775-.732l16.07-16c.98-.977.98-2.56 0-3.536z"/></symbol><symbol viewBox="0 0 54 37" id="icon-prev" xmlns="http://www.w3.org/2000/svg"><path d="M.736 20.268l16.069 16c.98.976 2.57.976 3.55 0a2.49 2.49 0 0 0 0-3.536L8.574 21H51.49c1.386 0 2.51-1.12 2.51-2.5S52.876 16 51.49 16H8.572L20.356 4.268c.98-.977.98-2.56 0-3.536A2.51 2.51 0 0 0 18.58 0a2.51 2.51 0 0 0-1.775.732l-16.07 16c-.98.977-.98 2.56 0 3.536z"/></symbol><symbol viewBox="0 0 18 18" id="login" xmlns="http://www.w3.org/2000/svg"><path d="M16.366.011C16.348.01 16.332 0 16.313 0H8.25C7.01 0 6 1.01 6 2.25V3a.75.75 0 0 0 1.5 0v-.75c0-.413.337-.75.75-.75h3.494l-.229.077A1.508 1.508 0 0 0 10.5 3v11.25H8.25a.751.751 0 0 1-.75-.75V12A.75.75 0 0 0 6 12v1.5c0 1.24 1.01 2.25 2.25 2.25h2.25v.75c0 .827.673 1.5 1.5 1.5.16 0 .313-.023.478-.074l4.506-1.502A1.508 1.508 0 0 0 18 15V1.5c0-.874-.754-1.56-1.634-1.489zM8.03 6.97l-3-3a.75.75 0 0 0-1.28.53v2.25h-3a.75.75 0 0 0 0 1.5h3v2.25a.751.751 0 0 0 1.28.53l3-3a.749.749 0 0 0 0-1.06z"/></symbol><symbol fill="none" viewBox="0 0 169 61" id="logotip" xmlns="http://www.w3.org/2000/svg"><path fill-rule="evenodd" clip-rule="evenodd" d="M0 60.412h60.412V0H0v60.412z" fill="#0077B2"/><path fill-rule="evenodd" clip-rule="evenodd" d="M34.835 43.42l-2.74 7.552h19.83l2.74-7.552h-19.83zm-6.515 7.555l15.1-41.537H20.767L5.664 50.973l22.656.002z" fill="#FFFFFE"/><path fill-rule="evenodd" clip-rule="evenodd" d="M83.193 17.263c0 2.35-.65 4.237-1.951 5.663-1.3 1.427-2.958 2.14-4.971 2.14-1.776 0-3.228-.485-4.353-1.458-1.126-.972-1.815-2.331-2.066-4.08h1.992c.224 1.245.706 2.196 1.448 2.853.741.658 1.706.986 2.895.986 1.426 0 2.597-.507 3.513-1.52.916-1.015 1.416-2.396 1.5-4.144h-7.258v-1.657h7.174c-.182-1.44-.678-2.618-1.49-3.534-.81-.916-1.943-1.374-3.397-1.374-1.091 0-2.018.265-2.78.797-.762.531-1.262 1.258-1.5 2.181h-1.992a4.585 4.585 0 0 1 1.122-2.559 5.753 5.753 0 0 1 2.286-1.605 7.775 7.775 0 0 1 2.822-.514c2.25 0 3.981.738 5.191 2.213 1.21 1.476 1.815 3.346 1.815 5.612zm13.782 7.447h-2.182l-4.3-13.006-4.342 13.005h-2.077l5.328-14.935h2.266l5.307 14.935zm12.343-14.936v1.72h-8.37v4.678h7.825v1.657h-7.825v5.16h8.475v1.72H98.977V9.774h10.341zm2.108 0h2.727l4.803 12.649 4.636-12.649h2.748V24.71h-1.867V12.25l-4.678 12.46h-1.72l-4.761-12.46v12.46h-1.888V9.774zm28.591 0v1.72h-8.369v4.678h7.824v1.657h-7.824v5.16h8.474v1.72h-10.446V9.774h10.341zm14.306 0V24.71h-1.972v-6.985h-7.887v6.985h-1.972V9.774h1.972v6.23h7.887v-6.23h1.972zm13.678 0v1.72h-5.014V24.71h-1.971V11.494h-5.014v-1.72h11.999zM82.647 50.85h-2.182l-4.3-13.005-4.342 13.006h-2.077l5.328-14.935h2.266l5.307 14.935zm2.087 0V35.917h1.972v12.648h.042l7.321-12.648h2.496V50.85h-1.972V38.16h-.042L87.21 50.85h-2.476zm26.048-4.362c0 .49-.112.996-.336 1.52a5.657 5.657 0 0 1-.986 1.521c-.433.49-1.042.888-1.825 1.196-.783.307-1.671.462-2.664.462-1.874 0-3.374-.444-4.499-1.333-1.126-.887-1.689-2.198-1.689-3.933h1.909c.042 1.273.468 2.2 1.28 2.78.81.58 1.866.87 3.167.87 1.049 0 1.923-.286 2.622-.86.699-.573 1.049-1.328 1.049-2.265 0-.517-.098-.958-.294-1.322a1.876 1.876 0 0 0-.86-.818 4.43 4.43 0 0 0-1.185-.377 8.716 8.716 0 0 0-1.437-.105c-.475 0-.923.014-1.342.041V42.23c.223.029.671.042 1.342.042 2.167 0 3.251-.894 3.251-2.684 0-1.595-1.069-2.392-3.209-2.392-2.265 0-3.503 1.014-3.713 3.042h-1.909c.056-1.538.601-2.703 1.637-3.493 1.034-.79 2.383-1.185 4.048-1.185 1.524 0 2.759.335 3.702 1.007.945.671 1.416 1.678 1.416 3.02 0 .756-.245 1.438-.734 2.046-.49.608-1.07 1.01-1.741 1.206v.063c.951.181 1.689.608 2.213 1.28.525.67.787 1.44.787 2.307zM113 50.85V35.917h1.972v12.648h.042l7.321-12.648h2.496V50.85h-1.972V38.16h-.042l-7.342 12.69H113zm27.122-14.934V50.85h-1.972v-6.985h-7.887v6.985h-1.972V35.916h1.972v6.23h7.887v-6.23h1.972zm5.139 14.934h-1.972V35.917h9.817v1.72h-7.845V50.85z" fill="#0077B2"/></symbol><symbol viewBox="0 0 8 8" id="modal-close" xmlns="http://www.w3.org/2000/svg"><path d="M8 .809L7.191 0 4 3.191.809 0 0 .809 3.191 4 0 7.191.809 8 4 4.809 7.191 8 8 7.191 4.809 4 8 .809z"/></symbol><symbol viewBox="0 0 7 4" id="navbar-dropdown" xmlns="http://www.w3.org/2000/svg"><path d="M3.5 4a.488.488 0 0 1-.347-.144L.143.84a.492.492 0 0 1 0-.695.49.49 0 0 1 .694 0L3.5 2.814 6.163.144a.49.49 0 0 1 .693 0 .492.492 0 0 1 0 .695l-3.01 3.017A.488.488 0 0 1 3.5 4z"/></symbol><symbol viewBox="0 0 16 18" id="notice" xmlns="http://www.w3.org/2000/svg"><path d="M15.207 15.182l-1.308-2.146a6.301 6.301 0 0 1-.924-3.28V7.874c0-2.374-1.609-4.381-3.81-5.029V1.5c0-.827-.683-1.5-1.523-1.5-.84 0-1.524.673-1.524 1.5v1.346c-2.2.648-3.81 2.655-3.81 5.029v1.88c0 1.155-.319 2.29-.922 3.28L.078 15.181a.37.37 0 0 0-.005.379.38.38 0 0 0 .33.19H14.88a.383.383 0 0 0 .331-.19.371.371 0 0 0-.004-.378zM5.244 16.5c.43.884 1.34 1.5 2.4 1.5 1.06 0 1.969-.616 2.399-1.5H5.244z"/></symbol><symbol viewBox="0 0 11 17" id="pagin-next" xmlns="http://www.w3.org/2000/svg"><path fill-rule="evenodd" clip-rule="evenodd" d="M.9.98A1.5 1.5 0 0 0 .98 3.1l5.816 5.4-5.817 5.4a1.5 1.5 0 0 0 2.042 2.2l7-6.5a1.5 1.5 0 0 0 0-2.2l-7-6.5A1.5 1.5 0 0 0 .9.98z"/></symbol><symbol viewBox="0 0 11 17" id="pagin-prev" xmlns="http://www.w3.org/2000/svg"><path fill-rule="evenodd" clip-rule="evenodd" d="M10.1.98a1.5 1.5 0 0 1-.08 2.12L4.205 8.5l5.817 5.4a1.5 1.5 0 0 1-2.042 2.2l-7-6.5a1.5 1.5 0 0 1 0-2.2l7-6.5a1.5 1.5 0 0 1 2.12.08z"/></symbol><symbol viewBox="0 0 24 24" id="pdf" xmlns="http://www.w3.org/2000/svg"><path fill-rule="evenodd" clip-rule="evenodd" d="M4 5V0h20v18l-6 6H4V14H0V5h4zM1 6v7h15V6H1zm17 16.586V18h4.586L18 22.586zM17 17h6V1H5v4h12v9H5v9h12v-6z"/><path fill-rule="evenodd" clip-rule="evenodd" d="M3.856 12v-1.536h.99c.268 0 .496-.04.684-.117a1.28 1.28 0 0 0 .46-.31c.117-.127.203-.274.257-.44a1.63 1.63 0 0 0 0-1.017 1.187 1.187 0 0 0-.258-.438 1.28 1.28 0 0 0-.459-.31 1.784 1.784 0 0 0-.684-.116H2.914V12h.942zm.732-2.268h-.732V8.448h.732c.108 0 .212.008.312.024s.188.047.264.093a.507.507 0 0 1 .183.195.685.685 0 0 1 .07.33.685.685 0 0 1-.07.33.507.507 0 0 1-.183.195.726.726 0 0 1-.264.093c-.1.016-.204.024-.312.024zm5.031 2.103a2.05 2.05 0 0 1-.855.165H6.916V7.716h1.848c.276 0 .533.044.771.132.238.088.444.22.618.396.174.176.31.396.408.66.098.264.147.574.147.93 0 .312-.04.6-.12.864-.08.264-.2.492-.363.684a1.701 1.701 0 0 1-.606.453zm-.92-.627h-.84v-2.7h.671c.232 0 .427.033.585.099a.918.918 0 0 1 .381.285c.096.124.165.273.207.447.042.174.063.369.063.585 0 .236-.03.436-.09.6a1.1 1.1 0 0 1-.24.399.872.872 0 0 1-.342.219 1.21 1.21 0 0 1-.396.066zm3.605-.978V12h-.942V7.716h3.012v.792h-2.07v.99h1.794v.732h-1.794z"/></symbol><symbol viewBox="0 0 16 16" id="phone" xmlns="http://www.w3.org/2000/svg"><path d="M15.659 12.698l-1.77-1.18-1.575-1.05a.697.697 0 0 0-.936.153l-.974 1.252a.693.693 0 0 1-.885.183c-.66-.367-1.442-.713-3.166-2.44C4.629 7.89 4.28 7.111 3.913 6.45a.694.694 0 0 1 .183-.885l1.252-.974a.697.697 0 0 0 .152-.936L4.484 2.129 3.27.311a.697.697 0 0 0-.939-.212L.934.94a1.709 1.709 0 0 0-.776 1.003c-.382 1.395-.46 4.47 4.47 9.4 4.929 4.928 8.004 4.851 9.399 4.469.421-.12.781-.398 1.004-.776l.839-1.399a.697.697 0 0 0-.211-.938zM9.085 2.478a4.686 4.686 0 0 1 4.68 4.68.275.275 0 1 0 .551 0 5.237 5.237 0 0 0-5.231-5.23.275.275 0 0 0 0 .55zm0 1.652a3.032 3.032 0 0 1 3.028 3.028.275.275 0 0 0 .551 0 3.583 3.583 0 0 0-3.58-3.579.275.275 0 0 0 0 .55zm0 1.652c.76 0 1.376.617 1.377 1.376a.275.275 0 1 0 .55 0 1.93 1.93 0 0 0-1.927-1.927.275.275 0 0 0 0 .55z"/></symbol><symbol viewBox="0 0 16 16" id="pointer" xmlns="http://www.w3.org/2000/svg"><path d="M8 0a5.897 5.897 0 0 0-5.89 5.89c0 .848.173 1.657.515 2.405 1.472 3.223 4.296 6.625 5.126 7.591a.328.328 0 0 0 .497 0c.83-.966 3.654-4.368 5.127-7.591a5.743 5.743 0 0 0 .515-2.404A5.898 5.898 0 0 0 8 0zm0 8.95a3.063 3.063 0 0 1-3.06-3.06A3.063 3.063 0 0 1 8 2.83a3.063 3.063 0 0 1 3.06 3.06A3.063 3.063 0 0 1 8 8.95z"/></symbol><symbol viewBox="0 0 16 18" id="profile" xmlns="http://www.w3.org/2000/svg"><path d="M12.19 4.286c0 2.367-1.95 4.285-4.354 4.285S3.482 6.653 3.482 4.286 5.432 0 7.836 0c2.405 0 4.354 1.919 4.354 4.286zm-.652 6H4.135C1.856 10.286 0 12.112 0 14.357v3c0 .355.293.643.653.643H15.02a.65.65 0 0 0 .654-.643v-3c0-2.245-1.856-4.071-4.136-4.071z"/></symbol><symbol viewBox="0 0 16 16" id="search" xmlns="http://www.w3.org/2000/svg"><path d="M11.435 10.063h-.727l-.252-.252a5.89 5.89 0 0 0 1.437-3.865 5.946 5.946 0 1 0-5.947 5.947 5.91 5.91 0 0 0 3.865-1.432l.252.251v.723L14.637 16 16 14.637l-4.565-4.574zm-5.489 0a4.117 4.117 0 1 1 .001-8.234 4.117 4.117 0 0 1 0 8.234z"/></symbol><symbol viewBox="0 0 24 24" id="soc-fb" xmlns="http://www.w3.org/2000/svg"><path d="M22.5 0h-21C.5 0 0 .5 0 1.5v21c0 1 .5 1.5 1.5 1.5h11.32v-9.281H9.703v-3.633h3.117V8.412c0-3.1 1.893-4.787 4.659-4.787 1.324 0 2.463.098 2.794.142v3.24h-1.907c-1.504 0-1.796.716-1.796 1.765v2.314h3.598l-.469 3.633H16.57V24h5.93c1 0 1.5-.5 1.5-1.5v-21c0-1-.5-1.5-1.5-1.5z"/></symbol><symbol viewBox="0 0 24 24" id="soc-inst" xmlns="http://www.w3.org/2000/svg"><path d="M17.625 4.266H6.375c-1.163 0-2.11.946-2.11 2.109v11.25c0 1.163.947 2.11 2.11 2.11h11.25c1.163 0 2.11-.947 2.11-2.11V6.375c0-1.163-.947-2.11-2.11-2.11zM12 16.922A4.928 4.928 0 0 1 7.078 12 4.928 4.928 0 0 1 12 7.078 4.928 4.928 0 0 1 16.922 12 4.928 4.928 0 0 1 12 16.922zm4.922-8.438a1.408 1.408 0 0 1-1.406-1.406c0-.775.63-1.406 1.406-1.406.775 0 1.406.63 1.406 1.406 0 .775-.63 1.406-1.406 1.406zm-4.922 0A3.52 3.52 0 0 0 8.484 12 3.52 3.52 0 0 0 12 15.516 3.52 3.52 0 0 0 15.516 12 3.52 3.52 0 0 0 12 8.484zM22.5 0H1.578C.5 0 0 .5 0 1.5v21C0 23.563.438 24 1.5 24h21c1.063 0 1.5-.5 1.5-1.5v-21c0-1-.5-1.5-1.5-1.5zm-1.36 17.625a3.52 3.52 0 0 1-3.515 3.516H6.375a3.52 3.52 0 0 1-3.516-3.516V6.375a3.52 3.52 0 0 1 3.516-3.516h11.25a3.52 3.52 0 0 1 3.516 3.516v11.25z"/></symbol><symbol viewBox="0 0 24 24" id="soc-vk" xmlns="http://www.w3.org/2000/svg"><path d="M22.47 0H1.534C.686 0 0 .686 0 1.531v20.938C0 23.314.686 24 1.533 24h20.936c.845 0 1.531-.686 1.531-1.531V1.531A1.528 1.528 0 0 0 22.47 0zm-2.562 14.624c.439.447 1.39 1.198 1.218 1.961-.16.702-1.206.446-2.222.486-1.16.05-1.848.075-2.546-.486-.328-.265-.521-.58-.836-.933-.286-.318-.647-.889-1.138-.867-.883.044-.607 1.274-.92 2.112-4.905.772-6.874-2.257-8.612-5.198-.842-1.424-2.058-4.483-2.058-4.483l3.469-.011S7.376 9.228 7.67 9.75c.251.444.527.796.812 1.192.238.329.616.973 1.03.92.672-.086.794-2.695.377-3.568-.166-.354-.564-.478-.976-.598.14-.878 3.89-1.06 4.497-.38.88.99-.61 3.743.596 4.546 1.694-.887 3.14-4.603 3.14-4.603l4.061.025s-.635 2.009-1.3 2.9c-.388.521-1.675 1.683-1.625 2.545.041.683 1.088 1.347 1.626 1.895z"/></symbol><symbol viewBox="0 0 24 24" id="xls" xmlns="http://www.w3.org/2000/svg"><path fill-rule="evenodd" clip-rule="evenodd" d="M4 5V0h20v18l-6 6H4V14H0V5h4zM1 6v7h15V6H1zm17 16.586V18h4.586L18 22.586zM17 17h6V1H5v4h12v9H5v9h12v-6z"/><path fill-rule="evenodd" clip-rule="evenodd" d="M13.3 11.994a2.638 2.638 0 0 1-.771.102c-.236 0-.465-.029-.687-.087a1.728 1.728 0 0 1-.588-.273 1.349 1.349 0 0 1-.405-.474c-.1-.192-.148-.42-.144-.684h.912c0 .144.026.266.078.366.052.1.12.181.207.243a.896.896 0 0 0 .303.138c.116.03.236.045.36.045.084 0 .174-.007.27-.021a.94.94 0 0 0 .27-.081.59.59 0 0 0 .21-.165.414.414 0 0 0 .084-.267.376.376 0 0 0-.111-.282.88.88 0 0 0-.291-.18 2.904 2.904 0 0 0-.408-.126 11.273 11.273 0 0 1-.462-.12 4.104 4.104 0 0 1-.468-.147 1.608 1.608 0 0 1-.408-.225 1.06 1.06 0 0 1-.291-.345 1.048 1.048 0 0 1-.111-.501c0-.22.047-.411.14-.573.095-.162.218-.297.37-.405.152-.108.324-.188.516-.24.192-.052.384-.078.576-.078.224 0 .439.025.645.075.206.05.389.131.549.243.16.112.287.255.38.429.095.174.142.385.142.633h-.912a.757.757 0 0 0-.081-.318.53.53 0 0 0-.183-.198.774.774 0 0 0-.261-.102 1.607 1.607 0 0 0-.321-.03c-.076 0-.152.008-.228.024a.61.61 0 0 0-.207.084.521.521 0 0 0-.153.15.403.403 0 0 0-.06.228c0 .084.016.152.048.204.032.052.095.1.189.144.094.044.224.088.39.132.166.044.383.1.65.168.08.016.192.045.334.087.142.042.283.109.423.201.14.092.26.215.363.369.102.154.153.351.153.591 0 .196-.038.378-.114.546a1.186 1.186 0 0 1-.34.435 1.63 1.63 0 0 1-.557.285zM4.027 12l.954-1.482L5.917 12h1.122L5.545 9.762l1.374-2.046H5.887l-.87 1.368-.84-1.368H3.085l1.38 2.04L2.97 12h1.056zm6.42 0v-.792H8.359V7.716h-.942V12h3.03z"/></symbol></svg>