<svg width="16" height="16" viewBox="0 0 16 16"  xmlns="http://www.w3.org/2000/svg">
<path fill-rule="evenodd" clip-rule="evenodd" d="M8 15.3333C12.0501 15.3333 15.3333 12.0501 15.3333 8C15.3333 3.94991 12.0501 0.666667 8 0.666667C3.94991 0.666667 0.666667 3.94991 0.666667 8C0.666667 12.0501 3.94991 15.3333 8 15.3333ZM16 8C16 12.4183 12.4183 16 8 16C3.58172 16 0 12.4183 0 8C0 3.58172 3.58172 0 8 0C12.4183 0 16 3.58172 16 8Z"/>
<path fill-rule="evenodd" clip-rule="evenodd" d="M8.51467 3.432V4.68H7.49467V3.432H8.51467ZM8.51467 5.796V12H7.49467V5.796H8.51467Z"/></svg>
