<svg width="18" height="18" viewBox="0 0 18 18" xmlns="http://www.w3.org/2000/svg"><path d="M16.3664 0.011261C16.3477 0.00975037 16.332 0 16.3125 0H8.25C7.00951 0 6 1.00951 6 2.25V2.99995C6 3.414 6.33591 3.75005 6.74995 3.75005C7.164 3.75005 7.49991 3.414 7.49991 2.99995V2.25C7.49991 1.83678 7.83664 1.50005 8.25 1.50005H11.7442L11.5154 1.57654C10.908 1.78651 10.5 2.35876 10.5 2.99995V14.25H8.25C7.83664 14.25 7.49991 13.9132 7.49991 13.5V12C7.49991 11.586 7.164 11.25 6.74995 11.25C6.33591 11.25 6 11.586 6 12V13.5C6 14.7405 7.00951 15.75 8.25 15.75H10.5V16.5C10.5 17.3272 11.1726 18 11.9999 18C12.1604 18 12.3127 17.9768 12.4777 17.9257L16.9837 16.4235C17.5919 16.2135 18 15.6412 18 15V1.50005C18 0.625534 17.2462 -0.0600128 16.3664 0.011261Z M8.03018 6.96962L5.03023 3.96967C4.81572 3.75516 4.49327 3.69062 4.21271 3.80693C3.93297 3.92311 3.75005 4.19695 3.75005 4.4999V6.7499H0.749954C0.336044 6.7499 0 7.08594 0 7.49985C0 7.9139 0.336044 8.24994 0.749954 8.24994H3.75005V10.4999C3.75005 10.8029 3.93297 11.0766 4.21271 11.1929C4.49327 11.3091 4.81572 11.2447 5.03023 11.0302L8.03018 8.03008C8.32352 7.73688 8.32352 7.26296 8.03018 6.96962Z"/></svg>