<svg width="169" height="61" viewBox="0 0 169 61" fill="none" xmlns="http://www.w3.org/2000/svg">
<path fill-rule="evenodd" clip-rule="evenodd" d="M0 60.4124H60.4124V0H0V60.4124Z" fill="#0077B2"/>
<path fill-rule="evenodd" clip-rule="evenodd" d="M34.8347 43.4198L32.0954 50.9725H51.9241L54.6642 43.4198H34.8347ZM28.3198 50.9753L43.4207 9.43823H20.766L5.66406 50.973L28.3198 50.9753Z" fill="#FFFFFE"/>
<path fill-rule="evenodd" clip-rule="evenodd" d="M83.1927 17.2629C83.1927 19.6121 82.5424 21.4999 81.2418 22.9265C79.9413 24.3529 78.2844 25.066 76.2706 25.066C74.4945 25.066 73.0433 24.5805 71.9179 23.6083C70.792 22.6364 70.1034 21.2766 69.8516 19.5285H71.8445C72.0679 20.7731 72.5503 21.724 73.2917 22.3812C74.033 23.0387 74.9977 23.367 76.1867 23.367C77.6131 23.367 78.7841 22.8599 79.7002 21.8462C80.6158 20.8324 81.1161 19.4514 81.2 17.7033H73.9421V16.0461H81.1161C80.9341 14.6059 80.4378 13.4277 79.6266 12.5115C78.8154 11.5959 77.683 11.1378 76.2286 11.1378C75.1379 11.1378 74.2111 11.4034 73.4489 11.9347C72.6868 12.4665 72.187 13.1933 71.9494 14.1164H69.9565C70.0684 13.1375 70.4422 12.2847 71.0786 11.5574C71.7151 10.8303 72.477 10.2955 73.3653 9.95249C74.2531 9.61023 75.1935 9.43848 76.1867 9.43848C78.4378 9.43848 80.1684 10.1763 81.3782 11.6515C82.5878 13.1272 83.1927 14.9972 83.1927 17.2629Z" fill="#0077B2"/>
<path fill-rule="evenodd" clip-rule="evenodd" d="M96.9747 24.7094H94.7932L90.4928 11.704L86.1508 24.7094H84.0742L89.4021 9.77441H91.6678L96.9747 24.7094Z" fill="#0077B2"/>
<path fill-rule="evenodd" clip-rule="evenodd" d="M109.318 9.77441V11.4942H100.948V16.1722H108.773V17.8289H100.948V22.9896H109.423V24.7094H98.9766V9.77441H109.318Z" fill="#0077B2"/>
<path fill-rule="evenodd" clip-rule="evenodd" d="M111.426 9.77441H114.153L118.956 22.423L123.592 9.77441H126.34V24.7094H124.473V12.2493L119.795 24.7094H118.075L113.314 12.2493V24.7094H111.426V9.77441Z" fill="#0077B2"/>
<path fill-rule="evenodd" clip-rule="evenodd" d="M140.017 9.77441V11.4942H131.648V16.1722H139.472V17.8289H131.648V22.9896H140.122V24.7094H129.676V9.77441H140.017Z" fill="#0077B2"/>
<path fill-rule="evenodd" clip-rule="evenodd" d="M154.323 9.77441V24.7094H152.351V17.724H144.464V24.7094H142.492V9.77441H144.464V16.0042H152.351V9.77441H154.323Z" fill="#0077B2"/>
<path fill-rule="evenodd" clip-rule="evenodd" d="M168.001 9.77441V11.4942H162.987V24.7094H161.016V11.4942H156.002V9.77441H168.001Z" fill="#0077B2"/>
<path fill-rule="evenodd" clip-rule="evenodd" d="M82.6468 50.8507H80.465L76.1649 37.8454L71.8227 50.8507H69.7461L75.074 35.9158H77.3396L82.6468 50.8507Z" fill="#0077B2"/>
<path fill-rule="evenodd" clip-rule="evenodd" d="M84.7344 50.8507V35.9158H86.7061V48.5643H86.7479L94.069 35.9158H96.5647V50.8507H94.5933V38.1599H94.5512L87.2096 50.8507H84.7344Z" fill="#0077B2"/>
<path fill-rule="evenodd" clip-rule="evenodd" d="M110.782 46.4876C110.782 46.9776 110.67 47.4838 110.446 48.0084C110.222 48.5329 109.893 49.0399 109.46 49.5291C109.027 50.0191 108.418 50.4174 107.635 50.7252C106.852 51.0324 105.964 51.1866 104.971 51.1866C103.097 51.1866 101.597 50.7427 100.472 49.8544C99.3458 48.9665 98.7832 47.6556 98.7832 45.9213H100.692C100.734 47.1939 101.16 48.1205 101.972 48.7009C102.782 49.2813 103.838 49.5712 105.139 49.5712C106.188 49.5712 107.062 49.285 107.761 48.7114C108.46 48.1378 108.81 47.3827 108.81 46.4458C108.81 45.9288 108.712 45.4881 108.516 45.1243C108.32 44.7608 108.034 44.4884 107.656 44.3063C107.279 44.1246 106.884 43.9989 106.471 43.9285C106.059 43.8589 105.58 43.8236 105.034 43.8236C104.559 43.8236 104.111 43.8377 103.692 43.8654V42.2295C103.915 42.2578 104.363 42.2713 105.034 42.2713C107.201 42.2713 108.285 41.3767 108.285 39.5868C108.285 37.992 107.216 37.1953 105.076 37.1953C102.811 37.1953 101.573 38.2093 101.363 40.2368H99.4545C99.51 38.6985 100.055 37.5345 101.091 36.7441C102.125 35.9544 103.474 35.5591 105.139 35.5591C106.663 35.5591 107.898 35.8943 108.841 36.5658C109.786 37.2371 110.257 38.2441 110.257 39.5868C110.257 40.3417 110.012 41.0235 109.523 41.6319C109.033 42.2398 108.453 42.6424 107.782 42.8382V42.9008C108.733 43.0825 109.471 43.5092 109.995 44.1802C110.52 44.8517 110.782 45.6206 110.782 46.4876Z" fill="#0077B2"/>
<path fill-rule="evenodd" clip-rule="evenodd" d="M113 50.8507V35.9158H114.972V48.5643H115.014L122.335 35.9158H124.831V50.8507H122.859V38.1599H122.817L115.475 50.8507H113Z" fill="#0077B2"/>
<path fill-rule="evenodd" clip-rule="evenodd" d="M140.122 35.9158V50.8507H138.15V43.8656H130.263V50.8507H128.291V35.9158H130.263V42.1458H138.15V35.9158H140.122Z" fill="#0077B2"/>
<path fill-rule="evenodd" clip-rule="evenodd" d="M145.261 50.8507H143.289V35.9158H153.106V37.6356H145.261V50.8507Z" fill="#0077B2"/>
</svg>
