<svg width="16" height="18" viewBox="0 0 16 18" xmlns="http://www.w3.org/2000/svg"><path d="M15.2069 15.1823L13.8987 13.0358C13.2945 12.045 12.9753 10.9102 12.9753 9.75526V7.875C12.9753 5.50125 11.3661 3.49351 9.16575 2.84625V1.50001C9.16575 0.67275 8.48232 0 7.64193 0C6.80154 0 6.11811 0.67275 6.11811 1.50001V2.84625C3.91775 3.49351 2.30861 5.50125 2.30861 7.875V9.75526C2.30861 10.9102 1.98936 12.0443 1.38593 13.035L0.0777529 15.1815C0.00689575 15.2978 0.00536004 15.4418 0.0731815 15.5595C0.141003 15.6773 0.266717 15.75 0.40386 15.75H14.88C15.0172 15.75 15.1436 15.6773 15.2115 15.5603C15.2793 15.4433 15.277 15.2977 15.2069 15.1823Z M5.24414 16.5C5.67385 17.3835 6.58357 18 7.64335 18C8.70314 18 9.61289 17.3835 10.0426 16.5H5.24414V16.5Z"/></svg>