<svg width="24" height="24" viewBox="0 0 24 24" xmlns="http://www.w3.org/2000/svg"><path fill-rule="evenodd" clip-rule="evenodd" d="M4 5V0H24V18L18 24H4V14H0V5H4ZM1 6V13H16V6H1ZM18 22.586V18H22.586L18 22.586ZM17 17H23V1H5V5H17V14H5V23H17V17Z" /><path fill-rule="evenodd" clip-rule="evenodd" d="M3.85606 11.9999V10.4639H4.84606C5.11406 10.4639 5.34206 10.4249 5.53006 10.3469C5.71806 10.2689 5.87106 10.1659 5.98906 10.0379C6.10706 9.90994 6.19306 9.76294 6.24706 9.59694C6.30106 9.43094 6.32806 9.26194 6.32806 9.08994C6.32806 8.91394 6.30106 8.74394 6.24706 8.57994C6.19306 8.41594 6.10706 8.26994 5.98906 8.14194C5.87106 8.01394 5.71806 7.91094 5.53006 7.83294C5.34206 7.75494 5.11406 7.71594 4.84606 7.71594H2.91406V11.9999H3.85606ZM4.58806 9.73194H3.85606V8.44794H4.58806C4.69606 8.44794 4.80006 8.45594 4.90006 8.47194C5.00006 8.48794 5.08806 8.51894 5.16406 8.56494C5.24006 8.61094 5.30106 8.67594 5.34706 8.75994C5.39306 8.84394 5.41606 8.95394 5.41606 9.08994C5.41606 9.22594 5.39306 9.33594 5.34706 9.41994C5.30106 9.50394 5.24006 9.56894 5.16406 9.61494C5.08806 9.66094 5.00006 9.69194 4.90006 9.70794C4.80006 9.72394 4.69606 9.73194 4.58806 9.73194ZM9.61906 11.8349C9.37706 11.9449 9.09206 11.9999 8.76406 11.9999H6.91606V7.71594H8.76406C9.04006 7.71594 9.29706 7.75994 9.53506 7.84794C9.77306 7.93594 9.97906 8.06794 10.1531 8.24394C10.3271 8.41994 10.4631 8.63994 10.5611 8.90394C10.6591 9.16794 10.7081 9.47794 10.7081 9.83394C10.7081 10.1459 10.6681 10.4339 10.5881 10.6979C10.5081 10.9619 10.3871 11.1899 10.2251 11.3819C10.0631 11.5739 9.86106 11.7249 9.61906 11.8349ZM8.69806 11.2079H7.85806V8.50794H8.53006C8.76206 8.50794 8.95706 8.54094 9.11506 8.60694C9.27306 8.67294 9.40006 8.76794 9.49606 8.89194C9.59206 9.01594 9.66106 9.16494 9.70306 9.33894C9.74506 9.51294 9.76606 9.70794 9.76606 9.92394C9.76606 10.1599 9.73606 10.3599 9.67606 10.5239C9.61606 10.6879 9.53606 10.8209 9.43606 10.9229C9.33606 11.0249 9.22206 11.0979 9.09406 11.1419C8.96606 11.1859 8.83406 11.2079 8.69806 11.2079ZM12.3041 10.2299V11.9999H11.3621V7.71594H14.3741V8.50794H12.3041V9.49794H14.0981V10.2299H12.3041Z"/></svg>