<svg width="24" height="24" viewBox="0 0 24 24" xmlns="http://www.w3.org/2000/svg"><path fill-rule="evenodd" clip-rule="evenodd" d="M4 5V0H24V18L18 24H4V14H0V5H4ZM1 6V13H16V6H1ZM18 22.586V18H22.586L18 22.586ZM17 17H23V1H5V5H17V14H5V23H17V17Z"/><path fill-rule="evenodd" clip-rule="evenodd" d="M13.2997 11.994C13.0777 12.062 12.8207 12.096 12.5287 12.096C12.2927 12.096 12.0637 12.067 11.8417 12.009C11.6197 11.951 11.4237 11.86 11.2537 11.736C11.0837 11.612 10.9487 11.454 10.8487 11.262C10.7487 11.07 10.7007 10.842 10.7047 10.578H11.6167C11.6167 10.722 11.6427 10.844 11.6947 10.944C11.7467 11.044 11.8157 11.125 11.9017 11.187C11.9877 11.249 12.0887 11.295 12.2047 11.325C12.3207 11.355 12.4407 11.37 12.5647 11.37C12.6487 11.37 12.7387 11.363 12.8347 11.349C12.9307 11.335 13.0207 11.308 13.1047 11.268C13.1887 11.228 13.2587 11.173 13.3147 11.103C13.3707 11.033 13.3987 10.944 13.3987 10.836C13.3987 10.72 13.3617 10.626 13.2877 10.554C13.2137 10.482 13.1167 10.422 12.9967 10.374C12.8767 10.326 12.7407 10.284 12.5887 10.248C12.4367 10.212 12.2827 10.172 12.1267 10.128C11.9667 10.088 11.8107 10.039 11.6587 9.98101C11.5067 9.92301 11.3707 9.84801 11.2507 9.75601C11.1307 9.66401 11.0337 9.54901 10.9597 9.41101C10.8857 9.27301 10.8487 9.10601 10.8487 8.91001C10.8487 8.69001 10.8957 8.49901 10.9897 8.33701C11.0837 8.17501 11.2067 8.04001 11.3587 7.93201C11.5107 7.82401 11.6827 7.74401 11.8747 7.69201C12.0667 7.64001 12.2587 7.61401 12.4507 7.61401C12.6747 7.61401 12.8897 7.63901 13.0957 7.68901C13.3017 7.73901 13.4847 7.82001 13.6447 7.93201C13.8047 8.04401 13.9317 8.18701 14.0257 8.36101C14.1197 8.53501 14.1667 8.74601 14.1667 8.99401H13.2547C13.2467 8.86601 13.2197 8.76001 13.1737 8.67601C13.1277 8.59201 13.0667 8.52601 12.9907 8.47801C12.9147 8.43001 12.8277 8.39601 12.7297 8.37601C12.6317 8.35601 12.5247 8.34601 12.4087 8.34601C12.3327 8.34601 12.2567 8.35401 12.1807 8.37001C12.1047 8.38601 12.0357 8.41401 11.9737 8.45401C11.9117 8.49401 11.8607 8.54401 11.8207 8.60401C11.7807 8.66401 11.7607 8.74001 11.7607 8.83201C11.7607 8.91601 11.7767 8.98401 11.8087 9.03601C11.8407 9.08801 11.9037 9.13601 11.9977 9.18001C12.0917 9.22401 12.2217 9.26801 12.3877 9.31201C12.5537 9.35601 12.7707 9.41201 13.0387 9.48001C13.1187 9.49601 13.2297 9.52501 13.3717 9.56701C13.5137 9.60901 13.6547 9.67601 13.7947 9.76801C13.9347 9.86001 14.0557 9.98301 14.1577 10.137C14.2597 10.291 14.3107 10.488 14.3107 10.728C14.3107 10.924 14.2727 11.106 14.1967 11.274C14.1207 11.442 14.0077 11.587 13.8577 11.709C13.7077 11.831 13.5217 11.926 13.2997 11.994ZM4.0267 12L4.9807 10.518L5.9167 12H7.0387L5.5447 9.76201L6.9187 7.71601H5.8867L5.0167 9.08401L4.1767 7.71601H3.0847L4.4647 9.75601L2.9707 12H4.0267ZM10.4467 12V11.208H8.3587V7.71601H7.4167V12H10.4467Z"/></svg>